%TF.GenerationSoftware,KiCad,Pcbnew,9.0.5*%
%TF.CreationDate,2026-02-15T22:52:44+09:00*%
%TF.ProjectId,gen3,67656e33-2e6b-4696-9361-645f70636258,rev?*%
%TF.SameCoordinates,Original*%
%TF.FileFunction,Soldermask,Bot*%
%TF.FilePolarity,Negative*%
%FSLAX46Y46*%
G04 Gerber Fmt 4.6, Leading zero omitted, Abs format (unit mm)*
G04 Created by KiCad (PCBNEW 9.0.5) date 2026-02-15 22:52:44*
%MOMM*%
%LPD*%
G01*
G04 APERTURE LIST*
G04 Aperture macros list*
%AMRoundRect*
0 Rectangle with rounded corners*
0 $1 Rounding radius*
0 $2 $3 $4 $5 $6 $7 $8 $9 X,Y pos of 4 corners*
0 Add a 4 corners polygon primitive as box body*
4,1,4,$2,$3,$4,$5,$6,$7,$8,$9,$2,$3,0*
0 Add four circle primitives for the rounded corners*
1,1,$1+$1,$2,$3*
1,1,$1+$1,$4,$5*
1,1,$1+$1,$6,$7*
1,1,$1+$1,$8,$9*
0 Add four rect primitives between the rounded corners*
20,1,$1+$1,$2,$3,$4,$5,0*
20,1,$1+$1,$4,$5,$6,$7,0*
20,1,$1+$1,$6,$7,$8,$9,0*
20,1,$1+$1,$8,$9,$2,$3,0*%
G04 Aperture macros list end*
%ADD10O,2.200000X3.500000*%
%ADD11R,1.500000X2.500000*%
%ADD12O,1.500000X2.500000*%
%ADD13R,3.500000X3.500000*%
%ADD14RoundRect,0.750000X-0.750000X-1.000000X0.750000X-1.000000X0.750000X1.000000X-0.750000X1.000000X0*%
%ADD15RoundRect,0.875000X-0.875000X-0.875000X0.875000X-0.875000X0.875000X0.875000X-0.875000X0.875000X0*%
%ADD16O,2.500000X3.000000*%
%ADD17R,1.800000X1.800000*%
%ADD18C,1.800000*%
%ADD19C,2.700000*%
%ADD20RoundRect,0.250000X0.750000X-0.600000X0.750000X0.600000X-0.750000X0.600000X-0.750000X-0.600000X0*%
%ADD21O,2.000000X1.700000*%
%ADD22R,1.700000X1.700000*%
%ADD23O,1.700000X1.700000*%
%ADD24R,2.000000X2.000000*%
%ADD25C,2.000000*%
%ADD26RoundRect,0.250000X-0.750000X0.600000X-0.750000X-0.600000X0.750000X-0.600000X0.750000X0.600000X0*%
%ADD27C,1.524000*%
G04 APERTURE END LIST*
D10*
%TO.C,SW1*%
X105410000Y-47930000D03*
X97210000Y-47930000D03*
D11*
X103310000Y-47930000D03*
D12*
X101310000Y-47930000D03*
X99310000Y-47930000D03*
%TD*%
D13*
%TO.C,J1*%
X100600000Y-59410000D03*
D14*
X94600000Y-59410000D03*
D15*
X97600000Y-64110000D03*
%TD*%
D16*
%TO.C,SW3*%
X172140000Y-107320000D03*
X172140000Y-94820000D03*
X177140000Y-107320000D03*
X177140000Y-94820000D03*
%TD*%
D17*
%TO.C,LED4*%
X119040000Y-137010000D03*
D18*
X121580000Y-137010000D03*
%TD*%
D17*
%TO.C,LED3*%
X108730000Y-137010000D03*
D18*
X111270000Y-137010000D03*
%TD*%
D19*
%TO.C,H1*%
X91410000Y-47850000D03*
%TD*%
D20*
%TO.C,J5*%
X173035000Y-63210000D03*
D21*
X173035000Y-60710000D03*
%TD*%
D22*
%TO.C,J2*%
X90900000Y-102950000D03*
D23*
X90900000Y-105490000D03*
X93440000Y-102950000D03*
X93440000Y-105490000D03*
X95980000Y-102950000D03*
X95980000Y-105490000D03*
X98520000Y-102950000D03*
X98520000Y-105490000D03*
X101060000Y-102950000D03*
X101060000Y-105490000D03*
X103600000Y-102950000D03*
X103600000Y-105490000D03*
X106140000Y-102950000D03*
X106140000Y-105490000D03*
X108680000Y-102950000D03*
X108680000Y-105490000D03*
X111220000Y-102950000D03*
X111220000Y-105490000D03*
X113760000Y-102950000D03*
X113760000Y-105490000D03*
X116300000Y-102950000D03*
X116300000Y-105490000D03*
X118840000Y-102950000D03*
X118840000Y-105490000D03*
X121380000Y-102950000D03*
X121380000Y-105490000D03*
X123920000Y-102950000D03*
X123920000Y-105490000D03*
X126460000Y-102950000D03*
X126460000Y-105490000D03*
X129000000Y-102950000D03*
X129000000Y-105490000D03*
X131540000Y-102950000D03*
X131540000Y-105490000D03*
X134080000Y-102950000D03*
X134080000Y-105490000D03*
X136620000Y-102950000D03*
X136620000Y-105490000D03*
X139160000Y-102950000D03*
X139160000Y-105490000D03*
%TD*%
D17*
%TO.C,LED2*%
X98420000Y-137010000D03*
D18*
X100960000Y-137010000D03*
%TD*%
D24*
%TO.C,BZ1*%
X156190000Y-97270000D03*
D25*
X156190000Y-104870000D03*
%TD*%
D26*
%TO.C,J4*%
X100260000Y-122100000D03*
D21*
X100260000Y-124600000D03*
%TD*%
D19*
%TO.C,H3*%
X91410000Y-137850000D03*
%TD*%
%TO.C,H2*%
X181410000Y-47850000D03*
%TD*%
D22*
%TO.C,J3*%
X139157500Y-85160000D03*
D23*
X139157500Y-82620000D03*
X136617500Y-85160000D03*
X136617500Y-82620000D03*
X134077500Y-85160000D03*
X134077500Y-82620000D03*
X131537500Y-85160000D03*
X131537500Y-82620000D03*
X128997500Y-85160000D03*
X128997500Y-82620000D03*
X126457500Y-85160000D03*
X126457500Y-82620000D03*
X123917500Y-85160000D03*
X123917500Y-82620000D03*
X121377500Y-85160000D03*
X121377500Y-82620000D03*
X118837500Y-85160000D03*
X118837500Y-82620000D03*
X116297500Y-85160000D03*
X116297500Y-82620000D03*
X113757500Y-85160000D03*
X113757500Y-82620000D03*
X111217500Y-85160000D03*
X111217500Y-82620000D03*
X108677500Y-85160000D03*
X108677500Y-82620000D03*
X106137500Y-85160000D03*
X106137500Y-82620000D03*
X103597500Y-85160000D03*
X103597500Y-82620000D03*
X101057500Y-85160000D03*
X101057500Y-82620000D03*
X98517500Y-85160000D03*
X98517500Y-82620000D03*
X95977500Y-85160000D03*
X95977500Y-82620000D03*
X93437500Y-85160000D03*
X93437500Y-82620000D03*
X90897500Y-85160000D03*
X90897500Y-82620000D03*
%TD*%
D27*
%TO.C,LED1*%
X145020000Y-138040000D03*
X147560000Y-138040000D03*
X150100000Y-138040000D03*
X152640000Y-138040000D03*
X155180000Y-138040000D03*
X157720000Y-138040000D03*
X157720000Y-122800000D03*
X155180000Y-122800000D03*
X152640000Y-122800000D03*
X150100000Y-122800000D03*
X147560000Y-122800000D03*
X145020000Y-122800000D03*
%TD*%
D19*
%TO.C,H4*%
X181410000Y-137850000D03*
%TD*%
M02*
