M48
; DRILL file {KiCad 9.0.5} date 2026-02-15T22:52:44+0900
; FORMAT={-:-/ absolute / inch / decimal}
; #@! TF.CreationDate,2026-02-15T22:52:44+09:00
; #@! TF.GenerationSoftware,Kicad,Pcbnew,9.0.5
; #@! TF.FileFunction,Plated,1,2,PTH
FMAT,2
INCH
; #@! TA.AperFunction,Plated,PTH,ViaDrill
T1C0.0118
; #@! TA.AperFunction,Plated,PTH,ComponentDrill
T2C0.0300
; #@! TA.AperFunction,Plated,PTH,ComponentDrill
T3C0.0315
; #@! TA.AperFunction,Plated,PTH,ComponentDrill
T4C0.0354
; #@! TA.AperFunction,Plated,PTH,ComponentDrill
T5C0.0360
; #@! TA.AperFunction,Plated,PTH,ComponentDrill
T6C0.0394
; #@! TA.AperFunction,Plated,PTH,ComponentDrill
T7C0.0472
; #@! TA.AperFunction,Plated,PTH,ComponentDrill
T8C0.0591
%
G90
G05
T1
X3.4984Y-4.4453
X3.5721Y-5.2219
X3.643Y-2.9013
X3.7823Y-3.7075
X3.999Y-4.6272
X4.1286Y-5.111
X4.1795Y-2.2268
X4.2508Y-4.6272
X4.5185Y-4.5161
X4.8484Y-2.6917
X4.8693Y-4.6713
X4.9644Y-4.7716
X4.9651Y-2.4379
X5.0023Y-2.4646
X5.062Y-2.6509
X5.1502Y-2.5618
X5.2134Y-4.9772
X5.2327Y-2.3898
X5.276Y-2.163
X5.42Y-2.4416
X5.4429Y-2.2937
X5.5135Y-2.2918
X5.5146Y-2.65
X5.5386Y-3.0157
X5.5875Y-2.6709
X5.5875Y-5.0598
X5.6606Y-2.7853
X5.7161Y-3.2417
X5.735Y-4.2559
X5.7476Y-2.6335
X5.7677Y-3.0268
X5.8465Y-3.0083
X5.8567Y-2.5134
X5.8736Y-4.3579
X5.876Y-2.9013
X5.8926Y-2.6692
X5.9282Y-4.3773
X5.9656Y-2.5527
X6.0055Y-2.4874
X6.0061Y-4.6351
X6.0087Y-2.336
X6.0122Y-3.1988
X6.0134Y-2.0559
X6.0157Y-4.3122
X6.0157Y-4.4354
X6.0555Y-2.6909
X6.0875Y-4.7522
X6.0932Y-2.9495
X6.1276Y-2.9456
X6.1941Y-4.6382
X6.2048Y-3.5429
X6.2284Y-2.463
X6.2394Y-3.0142
X6.2512Y-2.6242
X6.2921Y-4.5413
X6.2951Y-4.6256
X6.3319Y-2.8806
X6.339Y-2.2906
X6.3626Y-4.3413
X6.3815Y-3.2327
X6.4209Y-2.4587
X6.4755Y-3.0036
X6.5517Y-5.133
X6.5888Y-3.0279
X6.6059Y-3.2303
X6.6102Y-3.8795
X6.6323Y-3.5102
X6.6531Y-2.6807
X6.724Y-3.548
X6.8484Y-2.0248
X7.0114Y-2.2484
X7.013Y-3.2402
T2
X5.7094Y-5.4346
X5.8094Y-5.4346
X5.9094Y-4.8346
X5.9094Y-5.4346
X6.0094Y-4.8346
X6.0094Y-5.4346
X6.1094Y-4.8346
X6.1094Y-5.4346
X6.2094Y-4.8346
X6.2094Y-5.4346
T3
X3.9098Y-1.887
X3.9886Y-1.887
X4.0673Y-1.887
T4
X3.8748Y-5.3941
X3.9748Y-5.3941
X4.2807Y-5.3941
X4.3807Y-5.3941
X4.6866Y-5.3941
X4.7866Y-5.3941
T5
X5.7094Y-4.8346
X5.8094Y-4.8346
T6
X3.5786Y-3.2528
X3.5786Y-3.3528
X3.5787Y-4.0531
X3.5787Y-4.1531
X3.6786Y-3.2528
X3.6786Y-3.3528
X3.6787Y-4.0531
X3.6787Y-4.1531
X3.7786Y-3.2528
X3.7786Y-3.3528
X3.7787Y-4.0531
X3.7787Y-4.1531
X3.8786Y-3.2528
X3.8786Y-3.3528
X3.8787Y-4.0531
X3.8787Y-4.1531
X3.9472Y-4.8071
X3.9472Y-4.9055
X3.9786Y-3.2528
X3.9786Y-3.3528
X3.9787Y-4.0531
X3.9787Y-4.1531
X4.0786Y-3.2528
X4.0786Y-3.3528
X4.0787Y-4.0531
X4.0787Y-4.1531
X4.1786Y-3.2528
X4.1786Y-3.3528
X4.1787Y-4.0531
X4.1787Y-4.1531
X4.2786Y-3.2528
X4.2786Y-3.3528
X4.2787Y-4.0531
X4.2787Y-4.1531
X4.3786Y-3.2528
X4.3786Y-3.3528
X4.3787Y-4.0531
X4.3787Y-4.1531
X4.4786Y-3.2528
X4.4786Y-3.3528
X4.4787Y-4.0531
X4.4787Y-4.1531
X4.5786Y-3.2528
X4.5786Y-3.3528
X4.5787Y-4.0531
X4.5787Y-4.1531
X4.6786Y-3.2528
X4.6786Y-3.3528
X4.6787Y-4.0531
X4.6787Y-4.1531
X4.7786Y-3.2528
X4.7786Y-3.3528
X4.7787Y-4.0531
X4.7787Y-4.1531
X4.8786Y-3.2528
X4.8786Y-3.3528
X4.8787Y-4.0531
X4.8787Y-4.1531
X4.9786Y-3.2528
X4.9786Y-3.3528
X4.9787Y-4.0531
X4.9787Y-4.1531
X5.0786Y-3.2528
X5.0786Y-3.3528
X5.0787Y-4.0531
X5.0787Y-4.1531
X5.1786Y-3.2528
X5.1786Y-3.3528
X5.1787Y-4.0531
X5.1787Y-4.1531
X5.2786Y-3.2528
X5.2786Y-3.3528
X5.2787Y-4.0531
X5.2787Y-4.1531
X5.3786Y-3.2528
X5.3786Y-3.3528
X5.3787Y-4.0531
X5.3787Y-4.1531
X5.4786Y-3.2528
X5.4786Y-3.3528
X5.4787Y-4.0531
X5.4787Y-4.1531
X6.1492Y-3.8295
X6.1492Y-4.1287
X6.8124Y-2.3902
X6.8124Y-2.4886
T7
X6.7772Y-3.7331
X6.7772Y-4.2252
X6.974Y-3.7331
X6.974Y-4.2252
T8
X3.8272Y-1.887
X4.15Y-1.887
T6
G00X3.7244Y-2.2996
M15
G01X3.7244Y-2.3783
M16
G05
G00X3.8031Y-2.524
M15
G01X3.8819Y-2.524
M16
G05
G00X3.9606Y-2.2996
M15
G01X3.9606Y-2.3783
M16
G05
M30
