%TF.GenerationSoftware,KiCad,Pcbnew,9.0.5*%
%TF.CreationDate,2026-02-15T22:52:44+09:00*%
%TF.ProjectId,gen3,67656e33-2e6b-4696-9361-645f70636258,rev?*%
%TF.SameCoordinates,Original*%
%TF.FileFunction,Soldermask,Top*%
%TF.FilePolarity,Negative*%
%FSLAX46Y46*%
G04 Gerber Fmt 4.6, Leading zero omitted, Abs format (unit mm)*
G04 Created by KiCad (PCBNEW 9.0.5) date 2026-02-15 22:52:44*
%MOMM*%
%LPD*%
G01*
G04 APERTURE LIST*
G04 Aperture macros list*
%AMRoundRect*
0 Rectangle with rounded corners*
0 $1 Rounding radius*
0 $2 $3 $4 $5 $6 $7 $8 $9 X,Y pos of 4 corners*
0 Add a 4 corners polygon primitive as box body*
4,1,4,$2,$3,$4,$5,$6,$7,$8,$9,$2,$3,0*
0 Add four circle primitives for the rounded corners*
1,1,$1+$1,$2,$3*
1,1,$1+$1,$4,$5*
1,1,$1+$1,$6,$7*
1,1,$1+$1,$8,$9*
0 Add four rect primitives between the rounded corners*
20,1,$1+$1,$2,$3,$4,$5,0*
20,1,$1+$1,$4,$5,$6,$7,0*
20,1,$1+$1,$6,$7,$8,$9,0*
20,1,$1+$1,$8,$9,$2,$3,0*%
G04 Aperture macros list end*
%ADD10O,2.200000X3.500000*%
%ADD11R,1.500000X2.500000*%
%ADD12O,1.500000X2.500000*%
%ADD13R,3.500000X3.500000*%
%ADD14RoundRect,0.750000X-0.750000X-1.000000X0.750000X-1.000000X0.750000X1.000000X-0.750000X1.000000X0*%
%ADD15RoundRect,0.875000X-0.875000X-0.875000X0.875000X-0.875000X0.875000X0.875000X-0.875000X0.875000X0*%
%ADD16O,2.500000X3.000000*%
%ADD17RoundRect,0.250000X0.450000X-0.262500X0.450000X0.262500X-0.450000X0.262500X-0.450000X-0.262500X0*%
%ADD18RoundRect,0.250000X-0.262500X-0.450000X0.262500X-0.450000X0.262500X0.450000X-0.262500X0.450000X0*%
%ADD19R,1.800000X1.800000*%
%ADD20C,1.800000*%
%ADD21RoundRect,0.150000X-0.587500X-0.150000X0.587500X-0.150000X0.587500X0.150000X-0.587500X0.150000X0*%
%ADD22RoundRect,0.250000X-0.275000X-0.750000X0.275000X-0.750000X0.275000X0.750000X-0.275000X0.750000X0*%
%ADD23RoundRect,0.250000X0.750000X-0.600000X0.750000X0.600000X-0.750000X0.600000X-0.750000X-0.600000X0*%
%ADD24O,2.000000X1.700000*%
%ADD25R,1.700000X1.700000*%
%ADD26O,1.700000X1.700000*%
%ADD27RoundRect,0.150000X0.150000X-0.825000X0.150000X0.825000X-0.150000X0.825000X-0.150000X-0.825000X0*%
%ADD28R,2.000000X2.000000*%
%ADD29C,2.000000*%
%ADD30RoundRect,0.250000X-0.750000X0.600000X-0.750000X-0.600000X0.750000X-0.600000X0.750000X0.600000X0*%
%ADD31C,1.524000*%
%ADD32RoundRect,0.225000X-0.225000X-0.375000X0.225000X-0.375000X0.225000X0.375000X-0.225000X0.375000X0*%
%ADD33RoundRect,0.250000X0.262500X0.450000X-0.262500X0.450000X-0.262500X-0.450000X0.262500X-0.450000X0*%
G04 APERTURE END LIST*
D10*
%TO.C,SW1*%
X105410000Y-47930000D03*
X97210000Y-47930000D03*
D11*
X103310000Y-47930000D03*
D12*
X101310000Y-47930000D03*
X99310000Y-47930000D03*
%TD*%
D13*
%TO.C,J1*%
X100600000Y-59410000D03*
D14*
X94600000Y-59410000D03*
D15*
X97600000Y-64110000D03*
%TD*%
D16*
%TO.C,SW3*%
X172140000Y-107320000D03*
X172140000Y-94820000D03*
X177140000Y-107320000D03*
X177140000Y-94820000D03*
%TD*%
D17*
%TO.C,R_US7*%
X175623300Y-75192500D03*
X175623300Y-73367500D03*
%TD*%
D18*
%TO.C,R_US13*%
X92930000Y-132410000D03*
X94755000Y-132410000D03*
%TD*%
D19*
%TO.C,LED4*%
X119040000Y-137010000D03*
D20*
X121580000Y-137010000D03*
%TD*%
D21*
%TO.C,Q5*%
X166128800Y-86820000D03*
X166128800Y-88720000D03*
X168003800Y-87770000D03*
%TD*%
D19*
%TO.C,LED3*%
X108730000Y-137010000D03*
D20*
X111270000Y-137010000D03*
%TD*%
D17*
%TO.C,R_US6*%
X171206700Y-75192500D03*
X171206700Y-73367500D03*
%TD*%
%TO.C,R_US5*%
X166790000Y-75192500D03*
X166790000Y-73367500D03*
%TD*%
D22*
%TO.C,SW2*%
X108500000Y-123350000D03*
X112950000Y-123350000D03*
%TD*%
D18*
%TO.C,R_US15*%
X114260000Y-132410000D03*
X116085000Y-132410000D03*
%TD*%
D17*
%TO.C,R_US17*%
X128870000Y-65392500D03*
X128870000Y-63567500D03*
%TD*%
D23*
%TO.C,J5*%
X173035000Y-63210000D03*
D24*
X173035000Y-60710000D03*
%TD*%
D17*
%TO.C,R_US4*%
X162373300Y-75192500D03*
X162373300Y-73367500D03*
%TD*%
D25*
%TO.C,J2*%
X90900000Y-102950000D03*
D26*
X90900000Y-105490000D03*
X93440000Y-102950000D03*
X93440000Y-105490000D03*
X95980000Y-102950000D03*
X95980000Y-105490000D03*
X98520000Y-102950000D03*
X98520000Y-105490000D03*
X101060000Y-102950000D03*
X101060000Y-105490000D03*
X103600000Y-102950000D03*
X103600000Y-105490000D03*
X106140000Y-102950000D03*
X106140000Y-105490000D03*
X108680000Y-102950000D03*
X108680000Y-105490000D03*
X111220000Y-102950000D03*
X111220000Y-105490000D03*
X113760000Y-102950000D03*
X113760000Y-105490000D03*
X116300000Y-102950000D03*
X116300000Y-105490000D03*
X118840000Y-102950000D03*
X118840000Y-105490000D03*
X121380000Y-102950000D03*
X121380000Y-105490000D03*
X123920000Y-102950000D03*
X123920000Y-105490000D03*
X126460000Y-102950000D03*
X126460000Y-105490000D03*
X129000000Y-102950000D03*
X129000000Y-105490000D03*
X131540000Y-102950000D03*
X131540000Y-105490000D03*
X134080000Y-102950000D03*
X134080000Y-105490000D03*
X136620000Y-102950000D03*
X136620000Y-105490000D03*
X139160000Y-102950000D03*
X139160000Y-105490000D03*
%TD*%
D27*
%TO.C,U1*%
X135088800Y-64935000D03*
X136358800Y-64935000D03*
X137628800Y-64935000D03*
X138898800Y-64935000D03*
X140168800Y-64935000D03*
X141438800Y-64935000D03*
X142708800Y-64935000D03*
X143978800Y-64935000D03*
X143978800Y-59985000D03*
X142708800Y-59985000D03*
X141438800Y-59985000D03*
X140168800Y-59985000D03*
X138898800Y-59985000D03*
X137628800Y-59985000D03*
X136358800Y-59985000D03*
X135088800Y-59985000D03*
%TD*%
D17*
%TO.C,R_US10*%
X167517900Y-113922500D03*
X167517900Y-112097500D03*
%TD*%
%TO.C,R_US9*%
X177364300Y-113922500D03*
X177364300Y-112097500D03*
%TD*%
D21*
%TO.C,Q3*%
X171503600Y-114130000D03*
X171503600Y-116030000D03*
X173378600Y-115080000D03*
%TD*%
D18*
%TO.C,R_US14*%
X103990000Y-132410000D03*
X105815000Y-132410000D03*
%TD*%
D21*
%TO.C,Q2*%
X161657100Y-114130000D03*
X161657100Y-116030000D03*
X163532100Y-115080000D03*
%TD*%
D19*
%TO.C,LED2*%
X98420000Y-137010000D03*
D20*
X100960000Y-137010000D03*
%TD*%
D28*
%TO.C,BZ1*%
X156190000Y-97270000D03*
D29*
X156190000Y-104870000D03*
%TD*%
D30*
%TO.C,J4*%
X100260000Y-122100000D03*
D24*
X100260000Y-124600000D03*
%TD*%
D27*
%TO.C,U2*%
X156241300Y-64935000D03*
X157511300Y-64935000D03*
X158781300Y-64935000D03*
X160051300Y-64935000D03*
X161321300Y-64935000D03*
X162591300Y-64935000D03*
X163861300Y-64935000D03*
X165131300Y-64935000D03*
X165131300Y-59985000D03*
X163861300Y-59985000D03*
X162591300Y-59985000D03*
X161321300Y-59985000D03*
X160051300Y-59985000D03*
X158781300Y-59985000D03*
X157511300Y-59985000D03*
X156241300Y-59985000D03*
%TD*%
D17*
%TO.C,R_US11*%
X157671400Y-113922500D03*
X157671400Y-112097500D03*
%TD*%
D21*
%TO.C,Q1*%
X151810700Y-114130000D03*
X151810700Y-116030000D03*
X153685700Y-115080000D03*
%TD*%
D17*
%TO.C,R_US2*%
X153540000Y-75192500D03*
X153540000Y-73367500D03*
%TD*%
%TO.C,R_US1*%
X150022500Y-65392500D03*
X150022500Y-63567500D03*
%TD*%
D25*
%TO.C,J3*%
X139157500Y-85160000D03*
D26*
X139157500Y-82620000D03*
X136617500Y-85160000D03*
X136617500Y-82620000D03*
X134077500Y-85160000D03*
X134077500Y-82620000D03*
X131537500Y-85160000D03*
X131537500Y-82620000D03*
X128997500Y-85160000D03*
X128997500Y-82620000D03*
X126457500Y-85160000D03*
X126457500Y-82620000D03*
X123917500Y-85160000D03*
X123917500Y-82620000D03*
X121377500Y-85160000D03*
X121377500Y-82620000D03*
X118837500Y-85160000D03*
X118837500Y-82620000D03*
X116297500Y-85160000D03*
X116297500Y-82620000D03*
X113757500Y-85160000D03*
X113757500Y-82620000D03*
X111217500Y-85160000D03*
X111217500Y-82620000D03*
X108677500Y-85160000D03*
X108677500Y-82620000D03*
X106137500Y-85160000D03*
X106137500Y-82620000D03*
X103597500Y-85160000D03*
X103597500Y-82620000D03*
X101057500Y-85160000D03*
X101057500Y-82620000D03*
X98517500Y-85160000D03*
X98517500Y-82620000D03*
X95977500Y-85160000D03*
X95977500Y-82620000D03*
X93437500Y-85160000D03*
X93437500Y-82620000D03*
X90897500Y-85160000D03*
X90897500Y-82620000D03*
%TD*%
D31*
%TO.C,LED1*%
X145020000Y-138040000D03*
X147560000Y-138040000D03*
X150100000Y-138040000D03*
X152640000Y-138040000D03*
X155180000Y-138040000D03*
X157720000Y-138040000D03*
X157720000Y-122800000D03*
X155180000Y-122800000D03*
X152640000Y-122800000D03*
X150100000Y-122800000D03*
X147560000Y-122800000D03*
X145020000Y-122800000D03*
%TD*%
D17*
%TO.C,R_US12*%
X147825000Y-113922500D03*
X147825000Y-112097500D03*
%TD*%
D32*
%TO.C,D1*%
X173610000Y-88320000D03*
X176910000Y-88320000D03*
%TD*%
D21*
%TO.C,Q4*%
X181350000Y-114130000D03*
X181350000Y-116030000D03*
X183225000Y-115080000D03*
%TD*%
D17*
%TO.C,R_US8*%
X180040000Y-75192500D03*
X180040000Y-73367500D03*
%TD*%
D33*
%TO.C,R_US16*%
X121197500Y-123350000D03*
X119372500Y-123350000D03*
%TD*%
D18*
%TO.C,R_US18*%
X158675000Y-88520000D03*
X160500000Y-88520000D03*
%TD*%
D17*
%TO.C,R_US3*%
X157956700Y-75192500D03*
X157956700Y-73367500D03*
%TD*%
M02*
