%TF.GenerationSoftware,KiCad,Pcbnew,8.0.4*%
%TF.CreationDate,2024-08-25T14:08:54+09:00*%
%TF.ProjectId,gen2,67656e32-2e6b-4696-9361-645f70636258,rev?*%
%TF.SameCoordinates,PX48ab840PY9157080*%
%TF.FileFunction,Paste,Top*%
%TF.FilePolarity,Positive*%
%FSLAX46Y46*%
G04 Gerber Fmt 4.6, Leading zero omitted, Abs format (unit mm)*
G04 Created by KiCad (PCBNEW 8.0.4) date 2024-08-25 14:08:54*
%MOMM*%
%LPD*%
G01*
G04 APERTURE LIST*
G04 Aperture macros list*
%AMRoundRect*
0 Rectangle with rounded corners*
0 $1 Rounding radius*
0 $2 $3 $4 $5 $6 $7 $8 $9 X,Y pos of 4 corners*
0 Add a 4 corners polygon primitive as box body*
4,1,4,$2,$3,$4,$5,$6,$7,$8,$9,$2,$3,0*
0 Add four circle primitives for the rounded corners*
1,1,$1+$1,$2,$3*
1,1,$1+$1,$4,$5*
1,1,$1+$1,$6,$7*
1,1,$1+$1,$8,$9*
0 Add four rect primitives between the rounded corners*
20,1,$1+$1,$2,$3,$4,$5,0*
20,1,$1+$1,$4,$5,$6,$7,0*
20,1,$1+$1,$6,$7,$8,$9,0*
20,1,$1+$1,$8,$9,$2,$3,0*%
G04 Aperture macros list end*
%ADD10RoundRect,0.250000X0.450000X-0.262500X0.450000X0.262500X-0.450000X0.262500X-0.450000X-0.262500X0*%
%ADD11RoundRect,0.150000X0.150000X-0.825000X0.150000X0.825000X-0.150000X0.825000X-0.150000X-0.825000X0*%
%ADD12RoundRect,0.150000X-0.587500X-0.150000X0.587500X-0.150000X0.587500X0.150000X-0.587500X0.150000X0*%
%ADD13R,1.550000X1.300000*%
G04 APERTURE END LIST*
D10*
%TO.C,R_US2*%
X101621150Y55009650D03*
X101621150Y56834650D03*
%TD*%
%TO.C,R_US5*%
X116861150Y55009650D03*
X116861150Y56834650D03*
%TD*%
%TO.C,R_US8*%
X73681150Y26661650D03*
X73681150Y28486650D03*
%TD*%
%TO.C,R_US12*%
X66061150Y26661650D03*
X66061150Y28486650D03*
%TD*%
D11*
%TO.C,primary1*%
X94255150Y72662150D03*
X95525150Y72662150D03*
X96795150Y72662150D03*
X98065150Y72662150D03*
X99335150Y72662150D03*
X100605150Y72662150D03*
X101875150Y72662150D03*
X103145150Y72662150D03*
X103145150Y77612150D03*
X101875150Y77612150D03*
X100605150Y77612150D03*
X99335150Y77612150D03*
X98065150Y77612150D03*
X96795150Y77612150D03*
X95525150Y77612150D03*
X94255150Y77612150D03*
%TD*%
D10*
%TO.C,R_US17*%
X91461150Y64307950D03*
X91461150Y66132950D03*
%TD*%
D12*
%TO.C,Q4*%
X66726150Y10744150D03*
X66726150Y8844150D03*
X68601150Y9794150D03*
%TD*%
D10*
%TO.C,R_US1*%
X96541150Y55060450D03*
X96541150Y56885450D03*
%TD*%
%TO.C,R_US14*%
X101621150Y64307950D03*
X101621150Y66132950D03*
%TD*%
%TO.C,R_US16*%
X58441150Y26661650D03*
X58441150Y28486650D03*
%TD*%
D13*
%TO.C,SW1*%
X52261150Y9104150D03*
X44301150Y9104150D03*
X52261150Y13604150D03*
X44301150Y13604150D03*
%TD*%
D10*
%TO.C,R_US9*%
X58441150Y14319150D03*
X58441150Y16144150D03*
%TD*%
D12*
%TO.C,Q5*%
X59106150Y10744150D03*
X59106150Y8844150D03*
X60981150Y9794150D03*
%TD*%
D10*
%TO.C,R_US4*%
X111781150Y55009650D03*
X111781150Y56834650D03*
%TD*%
%TO.C,R_US6*%
X121941150Y55009650D03*
X121941150Y56834650D03*
%TD*%
%TO.C,R_US11*%
X73681150Y14319150D03*
X73681150Y16144150D03*
%TD*%
D12*
%TO.C,Q2*%
X66726150Y22494150D03*
X66726150Y20594150D03*
X68601150Y21544150D03*
%TD*%
%TO.C,Q1*%
X74316150Y22494150D03*
X74316150Y20594150D03*
X76191150Y21544150D03*
%TD*%
D10*
%TO.C,R_US15*%
X106701150Y64307950D03*
X106701150Y66132950D03*
%TD*%
%TO.C,R_US7*%
X127021150Y55060450D03*
X127021150Y56885450D03*
%TD*%
D12*
%TO.C,Q3*%
X74346150Y10744150D03*
X74346150Y8844150D03*
X76221150Y9794150D03*
%TD*%
D10*
%TO.C,R_US13*%
X96541150Y64307950D03*
X96541150Y66132950D03*
%TD*%
D11*
%TO.C,secondary1*%
X115997550Y72662150D03*
X117267550Y72662150D03*
X118537550Y72662150D03*
X119807550Y72662150D03*
X121077550Y72662150D03*
X122347550Y72662150D03*
X123617550Y72662150D03*
X124887550Y72662150D03*
X124887550Y77612150D03*
X123617550Y77612150D03*
X122347550Y77612150D03*
X121077550Y77612150D03*
X119807550Y77612150D03*
X118537550Y77612150D03*
X117267550Y77612150D03*
X115997550Y77612150D03*
%TD*%
D10*
%TO.C,R_US10*%
X66061150Y14319150D03*
X66061150Y16144150D03*
%TD*%
%TO.C,R_US3*%
X106701150Y55009650D03*
X106701150Y56834650D03*
%TD*%
M02*
