M48
; DRILL file {KiCad 8.0.4} date 2024-08-25T14:08:54+0900
; FORMAT={-:-/ absolute / inch / decimal}
; #@! TF.CreationDate,2024-08-25T14:08:54+09:00
; #@! TF.GenerationSoftware,Kicad,Pcbnew,8.0.4
; #@! TF.FileFunction,Plated,1,2,PTH
FMAT,2
INCH
; #@! TA.AperFunction,Plated,PTH,ViaDrill
T1C0.0157
; #@! TA.AperFunction,Plated,PTH,ComponentDrill
T2C0.0300
; #@! TA.AperFunction,Plated,PTH,ComponentDrill
T3C0.0315
; #@! TA.AperFunction,Plated,PTH,ComponentDrill
T4C0.0354
; #@! TA.AperFunction,Plated,PTH,ComponentDrill
T5C0.0394
; #@! TA.AperFunction,Plated,PTH,ComponentDrill
T6C0.0472
%
G90
G05
T1
X1.3488Y1.9716
X2.0048Y0.9676
X2.3708Y0.7076
X2.4811Y0.707
X2.5188Y0.4016
X2.6269Y0.6843
X2.7308Y1.1016
X2.7488Y0.6576
X2.7488Y0.4976
X2.9263Y0.6886
X3.2128Y1.2178
X3.2472Y2.405
X3.4308Y0.7916
X3.4588Y2.4096
X3.5888Y2.3016
X3.6052Y2.2332
X3.6628Y3.0086
X3.664Y0.6744
X3.719Y2.1611
X3.733Y2.98
X3.7725Y2.7201
X3.8059Y3.1217
X3.8128Y2.4316
X3.8133Y2.3194
X3.8368Y2.6939
X3.8368Y2.9756
X3.925Y3.1189
X4.0428Y1.2656
X4.1207Y2.5275
X4.2628Y2.6036
X4.2828Y2.7756
X4.3076Y1.9224
X4.3548Y2.0056
X4.3648Y1.7756
X4.4576Y1.9216
X4.6048Y0.9676
X4.643Y3.115
X4.6928Y2.9736
T2
X3.7008Y1.1356
X3.7008Y0.7356
X3.8008Y1.1356
X3.8008Y0.7356
X3.9008Y1.1356
X3.9008Y0.7356
X4.0008Y1.1356
X4.0008Y0.7356
X4.1008Y1.1356
X4.1008Y0.7356
X4.2008Y1.1356
X4.2008Y0.7356
X4.3008Y1.1356
X4.3008Y0.7356
X4.4008Y1.1356
X4.4008Y0.7356
T3
X1.5007Y2.5035
X1.5008Y1.5037
X1.6007Y2.5035
X1.6008Y1.5037
X1.7007Y2.5035
X1.7007Y1.5035
X1.8007Y2.5035
X1.8007Y1.5035
X1.9007Y2.5035
X1.9007Y1.5035
X2.0007Y2.5035
X2.0007Y1.5035
X2.1007Y2.5035
X2.1007Y1.5035
X2.2007Y2.5035
X2.2007Y1.5035
X2.3007Y2.5035
X2.3007Y1.5035
X2.4007Y2.5035
X2.4007Y1.5035
X2.5007Y2.5035
X2.5007Y1.5035
X2.6007Y2.5035
X2.6007Y1.5035
X2.7007Y2.5035
X2.7007Y1.5035
X2.8007Y2.5035
X2.8007Y1.5035
X2.9007Y2.5035
X2.9007Y1.5035
X3.0007Y2.5035
X3.0007Y1.5035
X3.1007Y2.5035
X3.1007Y1.5035
X3.2007Y2.5035
X3.2007Y1.5035
X3.3007Y2.5035
X3.3007Y1.5035
T4
X3.4468Y0.4036
X3.5468Y0.4036
X3.9468Y0.4036
X4.0468Y0.4036
X4.4468Y0.4036
X4.5468Y0.4036
T5
X1.4007Y2.6035
X1.4007Y2.5035
X1.4007Y1.5035
X1.4007Y1.4035
X1.5007Y2.6035
X1.5007Y2.5035
X1.5007Y1.5035
X1.5007Y1.4035
X1.6007Y2.6035
X1.6007Y2.5035
X1.6007Y1.5035
X1.6007Y1.4035
X1.6367Y0.9348
X1.6367Y0.8364
X1.6427Y3.0407
X1.6427Y2.9423
X1.7007Y2.6035
X1.7007Y2.5035
X1.7007Y1.5035
X1.7007Y1.4035
X1.8007Y2.6035
X1.8007Y2.5035
X1.8007Y1.5035
X1.8007Y1.4035
X1.9007Y2.6035
X1.9007Y2.5035
X1.9007Y1.5035
X1.9007Y1.4035
X2.0007Y2.6035
X2.0007Y2.5035
X2.0007Y1.5035
X2.0007Y1.4035
X2.1007Y2.6035
X2.1007Y2.5035
X2.1007Y1.5035
X2.1007Y1.4035
X2.2007Y2.6035
X2.2007Y2.5035
X2.2007Y1.5035
X2.2007Y1.4035
X2.3007Y2.6035
X2.3007Y2.5035
X2.3007Y1.5035
X2.3007Y1.4035
X2.4007Y2.6035
X2.4007Y2.5035
X2.4007Y1.5035
X2.4007Y1.4035
X2.5007Y2.6035
X2.5007Y2.5035
X2.5007Y1.5035
X2.5007Y1.4035
X2.6007Y2.6035
X2.6007Y2.5035
X2.6007Y1.5035
X2.6007Y1.4035
X2.7007Y2.6035
X2.7007Y2.5035
X2.7007Y1.5035
X2.7007Y1.4035
X2.8007Y2.6035
X2.8007Y2.5035
X2.8007Y1.5035
X2.8007Y1.4035
X2.9007Y2.6035
X2.9007Y2.5035
X2.9007Y1.5035
X2.9007Y1.4035
X3.0007Y2.6035
X3.0007Y2.5035
X3.0007Y1.5035
X3.0007Y1.4035
X3.1007Y2.6035
X3.1007Y2.5035
X3.1007Y1.5035
X3.1007Y1.4035
X3.2007Y2.6035
X3.2007Y2.5035
X3.2007Y1.5035
X3.2007Y1.4035
X3.3007Y2.6035
X3.3007Y2.5035
X3.3007Y1.5035
X3.3007Y1.4035
X4.7008Y1.8072
X4.7008Y1.508
T6
X3.9008Y1.8958
X3.9008Y1.4037
X4.0977Y1.8958
X4.0977Y1.4037
M30
