%TF.GenerationSoftware,KiCad,Pcbnew,8.0.4*%
%TF.CreationDate,2024-08-25T14:08:54+09:00*%
%TF.ProjectId,gen2,67656e32-2e6b-4696-9361-645f70636258,rev?*%
%TF.SameCoordinates,PX48ab840PY9157080*%
%TF.FileFunction,Copper,L2,Bot*%
%TF.FilePolarity,Positive*%
%FSLAX46Y46*%
G04 Gerber Fmt 4.6, Leading zero omitted, Abs format (unit mm)*
G04 Created by KiCad (PCBNEW 8.0.4) date 2024-08-25 14:08:54*
%MOMM*%
%LPD*%
G01*
G04 APERTURE LIST*
G04 Aperture macros list*
%AMRoundRect*
0 Rectangle with rounded corners*
0 $1 Rounding radius*
0 $2 $3 $4 $5 $6 $7 $8 $9 X,Y pos of 4 corners*
0 Add a 4 corners polygon primitive as box body*
4,1,4,$2,$3,$4,$5,$6,$7,$8,$9,$2,$3,0*
0 Add four circle primitives for the rounded corners*
1,1,$1+$1,$2,$3*
1,1,$1+$1,$4,$5*
1,1,$1+$1,$6,$7*
1,1,$1+$1,$8,$9*
0 Add four rect primitives between the rounded corners*
20,1,$1+$1,$2,$3,$4,$5,0*
20,1,$1+$1,$4,$5,$6,$7,0*
20,1,$1+$1,$6,$7,$8,$9,0*
20,1,$1+$1,$8,$9,$2,$3,0*%
G04 Aperture macros list end*
%TA.AperFunction,ComponentPad*%
%ADD10R,1.200000X2.000000*%
%TD*%
%TA.AperFunction,ComponentPad*%
%ADD11O,1.200000X2.000000*%
%TD*%
%TA.AperFunction,ComponentPad*%
%ADD12C,1.524000*%
%TD*%
%TA.AperFunction,ComponentPad*%
%ADD13R,1.800000X1.800000*%
%TD*%
%TA.AperFunction,ComponentPad*%
%ADD14C,1.800000*%
%TD*%
%TA.AperFunction,ComponentPad*%
%ADD15RoundRect,0.250000X-0.750000X0.600000X-0.750000X-0.600000X0.750000X-0.600000X0.750000X0.600000X0*%
%TD*%
%TA.AperFunction,ComponentPad*%
%ADD16O,2.000000X1.700000*%
%TD*%
%TA.AperFunction,ComponentPad*%
%ADD17O,1.700000X1.700000*%
%TD*%
%TA.AperFunction,ComponentPad*%
%ADD18R,1.700000X1.700000*%
%TD*%
%TA.AperFunction,ComponentPad*%
%ADD19R,2.000000X2.000000*%
%TD*%
%TA.AperFunction,ComponentPad*%
%ADD20C,2.000000*%
%TD*%
%TA.AperFunction,ComponentPad*%
%ADD21O,2.500000X3.000000*%
%TD*%
%TA.AperFunction,ViaPad*%
%ADD22C,0.800000*%
%TD*%
%TA.AperFunction,Conductor*%
%ADD23C,0.500000*%
%TD*%
%TA.AperFunction,Conductor*%
%ADD24C,1.000000*%
%TD*%
G04 APERTURE END LIST*
D10*
%TO.P,U1,1,3V3*%
%TO.N,+3V3*%
X83838450Y63589250D03*
D11*
%TO.P,U1,2,CHIP_PU*%
%TO.N,/Pin2*%
X81298450Y63589250D03*
%TO.P,U1,3,SENSOR_VP/GPIO36/ADC1_CH0*%
%TO.N,/Pin3*%
X78758450Y63589250D03*
%TO.P,U1,4,SENSOR_VN/GPIO39/ADC1_CH3*%
%TO.N,/Pin4*%
X76218450Y63589250D03*
%TO.P,U1,5,VDET_1/GPIO34/ADC1_CH6*%
%TO.N,/Pin5*%
X73678450Y63589250D03*
%TO.P,U1,6,VDET_2/GPIO35/ADC1_CH7*%
%TO.N,/Pin6*%
X71138450Y63589250D03*
%TO.P,U1,7,32K_XP/GPIO32/ADC1_CH4*%
%TO.N,/Pin7*%
X68598450Y63589250D03*
%TO.P,U1,8,32K_XN/GPIO33/ADC1_CH5*%
%TO.N,/Pin8*%
X66058450Y63589250D03*
%TO.P,U1,9,DAC_1/ADC2_CH8/GPIO25*%
%TO.N,/Pin9*%
X63518450Y63589250D03*
%TO.P,U1,10,DAC_2/ADC2_CH9/GPIO26*%
%TO.N,/Pin10*%
X60978450Y63589250D03*
%TO.P,U1,11,ADC2_CH7/GPIO27*%
%TO.N,/Pin11*%
X58438450Y63589250D03*
%TO.P,U1,12,MTMS/GPIO14/ADC2_CH6*%
%TO.N,/Pin12*%
X55898450Y63589250D03*
%TO.P,U1,13,MTDI/GPIO12/ADC2_CH5*%
%TO.N,/Pin13*%
X53358450Y63589250D03*
%TO.P,U1,14,GND*%
%TO.N,GNDPWR*%
X50818450Y63589250D03*
%TO.P,U1,15,MTCK/GPIO13/ADC2_CH4*%
%TO.N,/Pin15*%
X48278450Y63589250D03*
%TO.P,U1,16,SD_DATA2/GPIO9*%
%TO.N,/Pin16*%
X45738450Y63589250D03*
%TO.P,U1,17,SD_DATA3/GPIO10*%
%TO.N,/Pin17*%
X43198450Y63589250D03*
%TO.P,U1,18,CMD*%
%TO.N,/Pin18*%
X40658450Y63589250D03*
%TO.P,U1,19,5V*%
%TO.N,+5V*%
X38118450Y63589250D03*
%TO.P,U1,20,SD_CLK/GPIO6*%
%TO.N,/Pin20*%
X38121170Y38192930D03*
%TO.P,U1,21,SD_DATA0/GPIO7*%
%TO.N,/Pin21*%
X40661170Y38192930D03*
%TO.P,U1,22,SD_DATA1/GPIO8*%
%TO.N,/Pin22*%
X43198450Y38189250D03*
%TO.P,U1,23,MTDO/GPIO15/ADC2_CH3*%
%TO.N,/Pin23*%
X45738450Y38189250D03*
%TO.P,U1,24,ADC2_CH2/GPIO2*%
%TO.N,/Pin24*%
X48278450Y38189250D03*
%TO.P,U1,25,GPIO0/BOOT/ADC2_CH1*%
%TO.N,/Pin25*%
X50818450Y38189250D03*
%TO.P,U1,26,ADC2_CH0/GPIO4*%
%TO.N,/Pin26*%
X53358450Y38189250D03*
%TO.P,U1,27,GPIO16*%
%TO.N,/Pin27*%
X55898450Y38189250D03*
%TO.P,U1,28,GPIO17*%
%TO.N,/Pin28*%
X58438450Y38189250D03*
%TO.P,U1,29,GPIO5*%
%TO.N,/Pin29*%
X60978450Y38189250D03*
%TO.P,U1,30,GPIO18*%
%TO.N,/Pin30*%
X63518450Y38189250D03*
%TO.P,U1,31,GPIO19*%
%TO.N,/Pin31*%
X66058450Y38189250D03*
%TO.P,U1,32,GND*%
%TO.N,GNDPWR*%
X68598450Y38189250D03*
%TO.P,U1,33,GPIO21*%
%TO.N,/Pin33*%
X71138450Y38189250D03*
%TO.P,U1,34,U0RXD/GPIO3*%
%TO.N,/Pin34*%
X73678450Y38189250D03*
%TO.P,U1,35,U0TXD/GPIO1*%
%TO.N,/Pin35*%
X76218450Y38189250D03*
%TO.P,U1,36,GPIO22*%
%TO.N,/Pin36*%
X78758450Y38189250D03*
%TO.P,U1,37,GPIO23*%
%TO.N,/Pin37*%
X81298450Y38189250D03*
%TO.P,U1,38,GND*%
%TO.N,GNDPWR*%
X83838450Y38189250D03*
%TD*%
D12*
%TO.P,U2,1,CC1*%
%TO.N,Net-(Q5-C)*%
X94001150Y18684150D03*
%TO.P,U2,2,CC2*%
%TO.N,Net-(Q4-C)*%
X96541150Y18684150D03*
%TO.P,U2,3,d*%
%TO.N,Net-(U2-d)*%
X99081150Y18684150D03*
%TO.P,U2,4,CC5*%
%TO.N,Net-(Q1-C)*%
X101621150Y18684150D03*
%TO.P,U2,5,e*%
%TO.N,Net-(U2-e)*%
X104161150Y18684150D03*
%TO.P,U2,6,CC3*%
%TO.N,Net-(Q3-C)*%
X106701150Y18684150D03*
%TO.P,U2,7,DPX*%
%TO.N,unconnected-(U2-DPX-Pad7)*%
X109241150Y18684150D03*
%TO.P,U2,8,CC4*%
%TO.N,Net-(Q2-C)*%
X111781150Y18684150D03*
%TO.P,U2,9*%
%TO.N,N/C*%
X111781150Y28844150D03*
%TO.P,U2,10*%
X109241150Y28844150D03*
%TO.P,U2,11,f*%
%TO.N,Net-(U2-f)*%
X106701150Y28844150D03*
%TO.P,U2,12*%
%TO.N,N/C*%
X104161150Y28844150D03*
%TO.P,U2,13,c/D3*%
%TO.N,Net-(U2-c{slash}D3)*%
X101621150Y28844150D03*
%TO.P,U2,14,a/D1*%
%TO.N,Net-(U2-a{slash}D1)*%
X99081150Y28844150D03*
%TO.P,U2,15,g*%
%TO.N,Net-(U2-g)*%
X96541150Y28844150D03*
%TO.P,U2,16,b/D2*%
%TO.N,Net-(U2-b{slash}D2)*%
X94001150Y28844150D03*
%TD*%
D13*
%TO.P,LED1,1,K*%
%TO.N,GNDPWR*%
X87549550Y10251350D03*
D14*
%TO.P,LED1,2,A*%
%TO.N,Net-(LED1-A)*%
X90089550Y10251350D03*
%TD*%
D15*
%TO.P,J1,1,Pin_1*%
%TO.N,GNDPWR*%
X41571150Y23744150D03*
D16*
%TO.P,J1,2,Pin_2*%
%TO.N,+3V3*%
X41571150Y21244150D03*
%TD*%
D15*
%TO.P,J3,1,Pin_1*%
%TO.N,GNDPWR*%
X41723550Y77234150D03*
D16*
%TO.P,J3,2,Pin_2*%
%TO.N,+5V*%
X41723550Y74734150D03*
%TD*%
D17*
%TO.P,J4,20a,Pin_20a*%
%TO.N,/Pin20*%
X38118450Y38189250D03*
%TO.P,J4,20b,Pin_20b*%
X38118450Y35649250D03*
%TO.P,J4,21a,Pin_21a*%
%TO.N,/Pin21*%
X40658450Y38189250D03*
%TO.P,J4,21b,Pin_21b*%
X40658450Y35649250D03*
%TO.P,J4,22a,Pin_22a*%
%TO.N,/Pin22*%
X43198450Y38189250D03*
%TO.P,J4,22b,Pin_22b*%
X43198450Y35649250D03*
%TO.P,J4,23a,Pin_23a*%
%TO.N,/Pin23*%
X45738450Y38189250D03*
%TO.P,J4,23b,Pin_23b*%
X45738450Y35649250D03*
%TO.P,J4,24a,Pin_24a*%
%TO.N,/Pin24*%
X48278450Y38189250D03*
%TO.P,J4,24b,Pin_24b*%
X48278450Y35649250D03*
%TO.P,J4,25a,Pin_25a*%
%TO.N,/Pin25*%
X50818450Y38189250D03*
%TO.P,J4,25b,Pin_25b*%
X50818450Y35649250D03*
%TO.P,J4,26a,Pin_26a*%
%TO.N,/Pin26*%
X53358450Y38189250D03*
%TO.P,J4,26b,Pin_26b*%
X53358450Y35649250D03*
%TO.P,J4,27a,Pin_27a*%
%TO.N,/Pin27*%
X55898450Y38189250D03*
%TO.P,J4,27b,Pin_27b*%
X55898450Y35649250D03*
%TO.P,J4,28a,Pin_28a*%
%TO.N,/Pin28*%
X58438450Y38189250D03*
%TO.P,J4,28b,Pin_28b*%
X58438450Y35649250D03*
%TO.P,J4,29a,Pin_29a*%
%TO.N,/Pin29*%
X60978450Y38189250D03*
%TO.P,J4,29b,Pin_29b*%
X60978450Y35649250D03*
%TO.P,J4,30a,Pin_30a*%
%TO.N,/Pin30*%
X63518450Y38189250D03*
%TO.P,J4,30b,Pin_30b*%
X63518450Y35649250D03*
%TO.P,J4,31a,Pin_31a*%
%TO.N,/Pin31*%
X66058450Y38189250D03*
%TO.P,J4,31b,Pin_31b*%
X66058450Y35649250D03*
%TO.P,J4,32a,Pin_32a*%
%TO.N,GNDPWR*%
X68598450Y38189250D03*
%TO.P,J4,32b,Pin_32b*%
X68598450Y35649250D03*
%TO.P,J4,33a,Pin_33a*%
%TO.N,/Pin33*%
X71138450Y38189250D03*
%TO.P,J4,33b,Pin_33b*%
X71138450Y35649250D03*
%TO.P,J4,34a,Pin_34a*%
%TO.N,/Pin34*%
X73678450Y38189250D03*
%TO.P,J4,34b,Pin_34b*%
X73678450Y35649250D03*
%TO.P,J4,35a,Pin_35a*%
%TO.N,/Pin35*%
X76218450Y38189250D03*
%TO.P,J4,35b,Pin_35b*%
X76218450Y35649250D03*
%TO.P,J4,36a,Pin_36a*%
%TO.N,/Pin36*%
X78758450Y38189250D03*
%TO.P,J4,36b,Pin_36b*%
X78758450Y35649250D03*
%TO.P,J4,37a,Pin_37a*%
%TO.N,/Pin37*%
X81298450Y38189250D03*
%TO.P,J4,37b,Pin_37b*%
X81298450Y35649250D03*
%TO.P,J4,38a,Pin_38a*%
%TO.N,GNDPWR*%
X83838450Y38189250D03*
%TO.P,J4,38b,Pin_38b*%
X83838450Y35649250D03*
D18*
%TO.P,J4,none_a,Pin_none_a*%
%TO.N,unconnected-(J4-Pin_none_a-Padnone_a)*%
X35578450Y38189250D03*
D17*
%TO.P,J4,none_b,Pin_none_b*%
X35578450Y35649250D03*
%TD*%
D13*
%TO.P,LED3,1,K*%
%TO.N,GNDPWR*%
X112949550Y10251350D03*
D14*
%TO.P,LED3,2,A*%
%TO.N,Net-(LED3-A)*%
X115489550Y10251350D03*
%TD*%
D13*
%TO.P,LED2,1,K*%
%TO.N,GNDPWR*%
X100249550Y10251350D03*
D14*
%TO.P,LED2,2,A*%
%TO.N,Net-(LED2-A)*%
X102789550Y10251350D03*
%TD*%
D19*
%TO.P,BZ1,1,-*%
%TO.N,/Pin13*%
X119401150Y45902950D03*
D20*
%TO.P,BZ1,2,+*%
%TO.N,GNDPWR*%
X119401150Y38302950D03*
%TD*%
D18*
%TO.P,J2,1a,Pin_1a*%
%TO.N,+3V3*%
X83838450Y63589250D03*
D17*
%TO.P,J2,1b,Pin_1b*%
X83838450Y66129250D03*
%TO.P,J2,2a,Pin_2a*%
%TO.N,/Pin2*%
X81298450Y63589250D03*
%TO.P,J2,2b,Pin_2b*%
X81298450Y66129250D03*
%TO.P,J2,3a,Pin_3a*%
%TO.N,/Pin3*%
X78758450Y63589250D03*
%TO.P,J2,3b,Pin_3b*%
X78758450Y66129250D03*
%TO.P,J2,4a,Pin_4a*%
%TO.N,/Pin4*%
X76218450Y63589250D03*
%TO.P,J2,4b,Pin_4b*%
X76218450Y66129250D03*
%TO.P,J2,5a,Pin_5a*%
%TO.N,/Pin5*%
X73678450Y63589250D03*
%TO.P,J2,5b,Pin_5b*%
X73678450Y66129250D03*
%TO.P,J2,6a,Pin_6a*%
%TO.N,/Pin6*%
X71138450Y63589250D03*
%TO.P,J2,6b,Pin_6b*%
X71138450Y66129250D03*
%TO.P,J2,7a,Pin_7a*%
%TO.N,/Pin7*%
X68598450Y63589250D03*
%TO.P,J2,7b,Pin_7b*%
X68598450Y66129250D03*
%TO.P,J2,8a,Pin_8a*%
%TO.N,/Pin8*%
X66058450Y63589250D03*
%TO.P,J2,8b,Pin_8b*%
X66058450Y66129250D03*
%TO.P,J2,9a,Pin_9a*%
%TO.N,/Pin9*%
X63518450Y63589250D03*
%TO.P,J2,9b,Pin_9b*%
X63518450Y66129250D03*
%TO.P,J2,10a,Pin_10a*%
%TO.N,/Pin10*%
X60978450Y63589250D03*
%TO.P,J2,10b,Pin_10b*%
X60978450Y66129250D03*
%TO.P,J2,11a,Pin_11a*%
%TO.N,/Pin11*%
X58438450Y63589250D03*
%TO.P,J2,11b,Pin_11b*%
X58438450Y66129250D03*
%TO.P,J2,12a,Pin_12a*%
%TO.N,/Pin12*%
X55898450Y63589250D03*
%TO.P,J2,12b,Pin_12b*%
X55898450Y66129250D03*
%TO.P,J2,13a,Pin_13a*%
%TO.N,/Pin13*%
X53358450Y63589250D03*
%TO.P,J2,13b,Pin_13b*%
X53358450Y66129250D03*
%TO.P,J2,14a,Pin_14a*%
%TO.N,GNDPWR*%
X50818450Y63589250D03*
%TO.P,J2,14b,Pin_14b*%
X50818450Y66129250D03*
%TO.P,J2,15a,Pin_15a*%
%TO.N,/Pin15*%
X48278450Y63589250D03*
%TO.P,J2,15b,Pin_15b*%
X48278450Y66129250D03*
%TO.P,J2,16a,Pin_16a*%
%TO.N,/Pin16*%
X45738450Y63589250D03*
%TO.P,J2,16b,Pin_16b*%
X45738450Y66129250D03*
%TO.P,J2,17a,Pin_17a*%
%TO.N,/Pin17*%
X43198450Y63589250D03*
%TO.P,J2,17b,Pin_17b*%
X43198450Y66129250D03*
%TO.P,J2,18a,Pin_18a*%
%TO.N,/Pin18*%
X40658450Y63589250D03*
%TO.P,J2,18b,Pin_18b*%
X40658450Y66129250D03*
%TO.P,J2,19a,Pin_19a*%
%TO.N,+5V*%
X38118450Y63589250D03*
%TO.P,J2,19b,Pin_19b*%
X38118450Y66129250D03*
%TO.P,J2,none_a,Pin_none_a*%
%TO.N,unconnected-(J2-Pin_none_a-Padnone_a)*%
X35578450Y63589250D03*
%TO.P,J2,none_b,Pin_none_b*%
X35578450Y66129250D03*
%TD*%
D21*
%TO.P,SW2,1,1*%
%TO.N,/Pin4*%
X99081150Y35652950D03*
X99081150Y48152950D03*
%TO.P,SW2,2,2*%
%TO.N,GNDPWR*%
X104081150Y35652950D03*
X104081150Y48152950D03*
%TD*%
D22*
%TO.N,GNDPWR*%
X119197950Y75529350D03*
X60219150Y17972950D03*
X34260350Y50078550D03*
X69363150Y27980550D03*
X102687950Y32146150D03*
X63978350Y10200550D03*
X116962750Y24576950D03*
X50922750Y24576950D03*
X108783950Y70500150D03*
X110866750Y45100150D03*
X87143150Y20106550D03*
X69820350Y12638950D03*
X69820350Y16702950D03*
X97455550Y75580150D03*
%TO.N,Net-(primary1-QA)*%
X94818350Y75693150D03*
X87854350Y61203750D03*
%TO.N,Net-(primary1-QB)*%
X63019550Y17957250D03*
X91156350Y58460550D03*
%TO.N,Net-(primary1-QC)*%
X91571250Y56722450D03*
X66723350Y17382350D03*
%TO.N,Net-(primary1-QD)*%
X74326950Y17490750D03*
X94461450Y54891150D03*
%TO.N,Net-(primary1-QE)*%
X81605950Y30932150D03*
X95821450Y69090650D03*
X96845950Y61762550D03*
X96857050Y58911850D03*
%TO.N,+3V3*%
X82479650Y61087450D03*
X93034450Y76419450D03*
%TO.N,Net-(U2-d)*%
X110612750Y50942150D03*
%TO.N,Net-(U2-c{slash}D3)*%
X113223150Y48808550D03*
%TO.N,Net-(U2-b{slash}D2)*%
X109413600Y48828600D03*
%TO.N,Net-(LED1-A)*%
X97455250Y68425950D03*
%TO.N,Net-(LED2-A)*%
X104666350Y64198450D03*
%TO.N,Net-(LED3-A)*%
X108275950Y66131350D03*
%TO.N,/Pin10*%
X99695850Y79221150D03*
X117932450Y79121750D03*
%TO.N,/Pin11*%
X96669750Y79290250D03*
%TO.N,Net-(Q3-C)*%
X93065950Y17130950D03*
%TD*%
D23*
%TO.N,Net-(primary1-QA)*%
X87854350Y68729150D02*
X94818350Y75693150D01*
X87854350Y61203750D02*
X87854350Y68729150D01*
%TO.N,Net-(primary1-QB)*%
X85165850Y53985450D02*
X85165850Y35101850D01*
X83238650Y33174650D02*
X78236950Y33174650D01*
X85165850Y35101850D02*
X83238650Y33174650D01*
X78236950Y33174650D02*
X63019550Y17957250D01*
X89640950Y58460550D02*
X85165850Y53985450D01*
X91156350Y58460550D02*
X89640950Y58460550D01*
%TO.N,Net-(primary1-QC)*%
X91571250Y56722450D02*
X89751150Y54902350D01*
X83817750Y32122750D02*
X80820550Y32122750D01*
X89751150Y38056150D02*
X83817750Y32122750D01*
X89751150Y54902350D02*
X89751150Y38056150D01*
X66723350Y18025550D02*
X66723350Y17382350D01*
X80820550Y32122750D02*
X66723350Y18025550D01*
%TO.N,Net-(primary1-QD)*%
X74326950Y17490750D02*
X94461450Y37625250D01*
X94461450Y37625250D02*
X94461450Y54891150D01*
%TO.N,Net-(primary1-QE)*%
X84963950Y30932150D02*
X92266950Y38235150D01*
X81605950Y30932150D02*
X84963950Y30932150D01*
X95729950Y68999150D02*
X95821450Y69090650D01*
X92266950Y38235150D02*
X92266950Y54321750D01*
X95729950Y62878550D02*
X95729950Y68999150D01*
X92266950Y54321750D02*
X96857050Y58911850D01*
X96845950Y61762550D02*
X95729950Y62878550D01*
%TO.N,/Pin13*%
X56963150Y59984550D02*
X53358450Y63589250D01*
X53358450Y66129250D02*
X53358450Y63589250D01*
X118312350Y45902950D02*
X104230750Y59984550D01*
X119401150Y45902950D02*
X118312350Y45902950D01*
X104230750Y59984550D02*
X56963150Y59984550D01*
D24*
%TO.N,+3V3*%
X83429750Y62037550D02*
X82479650Y61087450D01*
X83838450Y67500250D02*
X83838450Y66129250D01*
X83838450Y62037550D02*
X83429750Y62037550D01*
X93034450Y76419450D02*
X92757650Y76419450D01*
X83838450Y63589250D02*
X83838450Y62037550D01*
X92757650Y76419450D02*
X83838450Y67500250D01*
D23*
%TO.N,Net-(U2-d)*%
X110612750Y50942150D02*
X110612750Y47843350D01*
X101921950Y33615350D02*
X100351150Y32044550D01*
X100351150Y19954150D02*
X99081150Y18684150D01*
X101921950Y39152550D02*
X101921950Y33615350D01*
X100351150Y32044550D02*
X100351150Y19954150D01*
X110612750Y47843350D02*
X101921950Y39152550D01*
%TO.N,Net-(U2-c{slash}D3)*%
X113223150Y48808550D02*
X113223150Y40446150D01*
X113223150Y40446150D02*
X101621150Y28844150D01*
%TO.N,Net-(U2-b{slash}D2)*%
X98395750Y50128750D02*
X95907550Y47640550D01*
X95907550Y47640550D02*
X95907550Y30750550D01*
X109413600Y48828600D02*
X108113450Y50128750D01*
X95907550Y30750550D02*
X94001150Y28844150D01*
X108113450Y50128750D02*
X98395750Y50128750D01*
%TO.N,Net-(LED1-A)*%
X120863650Y47108850D02*
X120863650Y25226650D01*
X97455250Y68425950D02*
X104613550Y61267650D01*
X92312550Y12474350D02*
X90089550Y10251350D01*
X120863650Y25226650D02*
X108111350Y12474350D01*
X104613550Y61267650D02*
X106704850Y61267650D01*
X106704850Y61267650D02*
X120863650Y47108850D01*
X108111350Y12474350D02*
X92312550Y12474350D01*
%TO.N,Net-(LED2-A)*%
X122347550Y24627750D02*
X122347550Y47843350D01*
X107971150Y10251350D02*
X122347550Y24627750D01*
X102789550Y10251350D02*
X107971150Y10251350D01*
X122347550Y47843350D02*
X105992450Y64198450D01*
X105992450Y64198450D02*
X104666350Y64198450D01*
%TO.N,Net-(LED3-A)*%
X123566750Y50154950D02*
X123566750Y18328550D01*
X123566750Y18328550D02*
X115489550Y10251350D01*
X123617550Y51805750D02*
X123617550Y50205750D01*
X123617550Y50205750D02*
X123566750Y50154950D01*
X108275950Y66131350D02*
X109291950Y66131350D01*
X109291950Y66131350D02*
X123617550Y51805750D01*
%TO.N,/Pin3*%
X78758450Y66129250D02*
X78758450Y63589250D01*
D24*
%TO.N,+5V*%
X38118450Y63589250D02*
X38118450Y66129250D01*
D23*
%TO.N,/Pin8*%
X66058450Y66129250D02*
X66058450Y63589250D01*
%TO.N,/Pin15*%
X48278450Y66129250D02*
X48278450Y63589250D01*
%TO.N,/Pin7*%
X68598450Y66129250D02*
X68598450Y63589250D01*
%TO.N,/Pin18*%
X40658450Y66129250D02*
X40658450Y63589250D01*
%TO.N,/Pin2*%
X81298450Y66129250D02*
X81298450Y63589250D01*
%TO.N,/Pin10*%
X73243650Y78394450D02*
X60978450Y66129250D01*
X60978450Y63589250D02*
X60978450Y66129250D01*
X99795250Y79121750D02*
X117932450Y79121750D01*
X98869150Y78394450D02*
X73243650Y78394450D01*
X99695850Y79221150D02*
X98869150Y78394450D01*
X99695850Y79221150D02*
X99795250Y79121750D01*
%TO.N,/Pin17*%
X43198450Y66129250D02*
X43198450Y63589250D01*
%TO.N,/Pin5*%
X73678450Y66129250D02*
X73678450Y63589250D01*
%TO.N,/Pin16*%
X45738450Y66129250D02*
X45738450Y63589250D01*
%TO.N,/Pin4*%
X99081150Y48152950D02*
X99081150Y35652950D01*
X76218450Y66129250D02*
X76218450Y63589250D01*
%TO.N,/Pin6*%
X71138450Y66129250D02*
X71138450Y63589250D01*
%TO.N,/Pin11*%
X58438450Y66129250D02*
X71599450Y79290250D01*
X58438450Y63589250D02*
X58438450Y66129250D01*
X71599450Y79290250D02*
X96669750Y79290250D01*
%TO.N,/Pin12*%
X55898450Y66129250D02*
X55898450Y63589250D01*
%TO.N,/Pin26*%
X53358450Y35649250D02*
X53358450Y38189250D01*
%TO.N,/Pin34*%
X73678450Y35649250D02*
X73678450Y38189250D01*
%TO.N,/Pin23*%
X45738450Y35649250D02*
X45738450Y38189250D01*
%TO.N,/Pin37*%
X81298450Y35649250D02*
X81298450Y38189250D01*
%TO.N,/Pin33*%
X71138450Y35649250D02*
X71138450Y38189250D01*
%TO.N,/Pin35*%
X76218450Y35649250D02*
X76218450Y38189250D01*
%TO.N,unconnected-(J4-Pin_none_a-Padnone_a)*%
X35578450Y35649250D02*
X35578450Y38189250D01*
%TO.N,/Pin25*%
X50818450Y35649250D02*
X50818450Y38189250D01*
%TO.N,/Pin31*%
X66058450Y35649250D02*
X66058450Y38189250D01*
%TO.N,/Pin21*%
X40658450Y38189250D02*
X40661150Y38191950D01*
X40661150Y38191950D02*
X40661150Y38192950D01*
X40658450Y35649250D02*
X40658450Y38189250D01*
%TO.N,/Pin36*%
X78758450Y35649250D02*
X78758450Y38189250D01*
%TO.N,/Pin22*%
X43198450Y35649250D02*
X43198450Y38189250D01*
%TO.N,/Pin29*%
X60978450Y35649250D02*
X60978450Y38189250D01*
%TO.N,/Pin28*%
X58438450Y35649250D02*
X58438450Y38189250D01*
%TO.N,/Pin27*%
X55898450Y35649250D02*
X55898450Y38189250D01*
%TO.N,/Pin30*%
X63518450Y35649250D02*
X63518450Y38189250D01*
%TO.N,/Pin24*%
X48278450Y35649250D02*
X48278450Y38189250D01*
%TO.N,/Pin20*%
X38118450Y38189250D02*
X38121150Y38191950D01*
X38118450Y35649250D02*
X38118450Y38189250D01*
X38121150Y38191950D02*
X38121150Y38192950D01*
%TO.N,Net-(Q3-C)*%
X105147950Y17130950D02*
X106701150Y18684150D01*
X93065950Y17130950D02*
X105147950Y17130950D01*
%TO.N,unconnected-(J2-Pin_none_a-Padnone_a)*%
X35578450Y66129250D02*
X35578450Y63589250D01*
%TD*%
%TA.AperFunction,Conductor*%
%TO.N,GNDPWR*%
G36*
X114333054Y48820878D02*
G01*
X117833934Y45319998D01*
X117845537Y45312245D01*
X117890343Y45258637D01*
X117900650Y45209141D01*
X117900650Y44855081D01*
X117900651Y44855074D01*
X117907058Y44795467D01*
X117957352Y44660622D01*
X117957356Y44660615D01*
X118043602Y44545406D01*
X118043605Y44545403D01*
X118158814Y44459157D01*
X118158821Y44459153D01*
X118293667Y44408859D01*
X118293666Y44408859D01*
X118300594Y44408115D01*
X118353277Y44402450D01*
X119989150Y44402451D01*
X120056189Y44382766D01*
X120101944Y44329963D01*
X120113150Y44278451D01*
X120113150Y39818123D01*
X120093465Y39751084D01*
X120040661Y39705329D01*
X119971503Y39695385D01*
X119948887Y39700842D01*
X119770643Y39762034D01*
X119525443Y39802950D01*
X119276857Y39802950D01*
X119031656Y39762034D01*
X118796546Y39681320D01*
X118796540Y39681318D01*
X118577911Y39563001D01*
X118531092Y39526562D01*
X118531092Y39526560D01*
X119271740Y38785913D01*
X119208157Y38768875D01*
X119094143Y38703049D01*
X119001051Y38609957D01*
X118935225Y38495943D01*
X118918187Y38432361D01*
X118177714Y39172834D01*
X118077417Y39019318D01*
X117977562Y38791668D01*
X117916537Y38550689D01*
X117916535Y38550680D01*
X117896009Y38302956D01*
X117896009Y38302945D01*
X117916535Y38055221D01*
X117916537Y38055212D01*
X117977562Y37814233D01*
X118077416Y37586586D01*
X118177714Y37433068D01*
X118918187Y38173541D01*
X118935225Y38109957D01*
X119001051Y37995943D01*
X119094143Y37902851D01*
X119208157Y37837025D01*
X119271738Y37819988D01*
X118531092Y37079341D01*
X118577918Y37042895D01*
X118577920Y37042894D01*
X118796535Y36924586D01*
X118796546Y36924581D01*
X119031656Y36843867D01*
X119276857Y36802950D01*
X119525443Y36802950D01*
X119770643Y36843867D01*
X119948887Y36905058D01*
X120018686Y36908208D01*
X120079107Y36873122D01*
X120110968Y36810939D01*
X120113150Y36787777D01*
X120113150Y25588881D01*
X120093465Y25521842D01*
X120076831Y25501200D01*
X113253505Y18677875D01*
X113192182Y18644390D01*
X113122490Y18649374D01*
X113066557Y18691246D01*
X113042296Y18754748D01*
X113029220Y18904218D01*
X112972044Y19117600D01*
X112878684Y19317811D01*
X112751976Y19498770D01*
X112595770Y19654976D01*
X112595766Y19654979D01*
X112595765Y19654980D01*
X112414816Y19781682D01*
X112414812Y19781684D01*
X112310584Y19830286D01*
X112214600Y19875044D01*
X112214597Y19875045D01*
X112214595Y19875046D01*
X112001220Y19932220D01*
X112001212Y19932221D01*
X111781152Y19951473D01*
X111781148Y19951473D01*
X111561087Y19932221D01*
X111561079Y19932220D01*
X111347704Y19875046D01*
X111347698Y19875043D01*
X111147490Y19781685D01*
X111147488Y19781684D01*
X110966527Y19654975D01*
X110810325Y19498773D01*
X110683616Y19317812D01*
X110683615Y19317810D01*
X110623532Y19188961D01*
X110577359Y19136522D01*
X110510166Y19117370D01*
X110443285Y19137586D01*
X110398768Y19188961D01*
X110338684Y19317810D01*
X110338683Y19317812D01*
X110211977Y19498769D01*
X110211973Y19498773D01*
X110055770Y19654976D01*
X110055766Y19654979D01*
X110055765Y19654980D01*
X109874816Y19781682D01*
X109874812Y19781684D01*
X109770584Y19830286D01*
X109674600Y19875044D01*
X109674597Y19875045D01*
X109674595Y19875046D01*
X109461220Y19932220D01*
X109461212Y19932221D01*
X109241152Y19951473D01*
X109241148Y19951473D01*
X109021087Y19932221D01*
X109021079Y19932220D01*
X108807704Y19875046D01*
X108807698Y19875043D01*
X108607490Y19781685D01*
X108607488Y19781684D01*
X108426527Y19654975D01*
X108270325Y19498773D01*
X108143616Y19317812D01*
X108143615Y19317810D01*
X108083532Y19188961D01*
X108037359Y19136522D01*
X107970166Y19117370D01*
X107903285Y19137586D01*
X107858768Y19188961D01*
X107798684Y19317810D01*
X107798683Y19317812D01*
X107671977Y19498769D01*
X107671973Y19498773D01*
X107515770Y19654976D01*
X107515766Y19654979D01*
X107515765Y19654980D01*
X107334816Y19781682D01*
X107334812Y19781684D01*
X107230584Y19830286D01*
X107134600Y19875044D01*
X107134597Y19875045D01*
X107134595Y19875046D01*
X106921220Y19932220D01*
X106921212Y19932221D01*
X106701152Y19951473D01*
X106701148Y19951473D01*
X106481087Y19932221D01*
X106481079Y19932220D01*
X106267704Y19875046D01*
X106267698Y19875043D01*
X106067490Y19781685D01*
X106067488Y19781684D01*
X105886527Y19654975D01*
X105730325Y19498773D01*
X105603616Y19317812D01*
X105603615Y19317810D01*
X105543532Y19188961D01*
X105497359Y19136522D01*
X105430166Y19117370D01*
X105363285Y19137586D01*
X105318768Y19188961D01*
X105258684Y19317810D01*
X105258683Y19317812D01*
X105131977Y19498769D01*
X105131973Y19498773D01*
X104975770Y19654976D01*
X104975766Y19654979D01*
X104975765Y19654980D01*
X104794816Y19781682D01*
X104794812Y19781684D01*
X104690584Y19830286D01*
X104594600Y19875044D01*
X104594597Y19875045D01*
X104594595Y19875046D01*
X104381220Y19932220D01*
X104381212Y19932221D01*
X104161152Y19951473D01*
X104161148Y19951473D01*
X103941087Y19932221D01*
X103941079Y19932220D01*
X103727704Y19875046D01*
X103727698Y19875043D01*
X103527490Y19781685D01*
X103527488Y19781684D01*
X103346527Y19654975D01*
X103190325Y19498773D01*
X103063616Y19317812D01*
X103063615Y19317810D01*
X103003532Y19188961D01*
X102957359Y19136522D01*
X102890166Y19117370D01*
X102823285Y19137586D01*
X102778768Y19188961D01*
X102718684Y19317810D01*
X102718683Y19317812D01*
X102591977Y19498769D01*
X102591973Y19498773D01*
X102435770Y19654976D01*
X102435766Y19654979D01*
X102435765Y19654980D01*
X102254816Y19781682D01*
X102254812Y19781684D01*
X102150584Y19830286D01*
X102054600Y19875044D01*
X102054597Y19875045D01*
X102054595Y19875046D01*
X101841220Y19932220D01*
X101841212Y19932221D01*
X101621152Y19951473D01*
X101621148Y19951473D01*
X101401087Y19932221D01*
X101401076Y19932219D01*
X101257743Y19893813D01*
X101187893Y19895476D01*
X101130031Y19934639D01*
X101102527Y19998867D01*
X101101650Y20013588D01*
X101101650Y27514714D01*
X101121335Y27581753D01*
X101174139Y27627508D01*
X101243297Y27637452D01*
X101257718Y27634495D01*
X101401082Y27596080D01*
X101558273Y27582328D01*
X101621148Y27576827D01*
X101621150Y27576827D01*
X101621152Y27576827D01*
X101677456Y27581753D01*
X101841218Y27596080D01*
X102054600Y27653256D01*
X102254812Y27746616D01*
X102435770Y27873324D01*
X102591976Y28029530D01*
X102718684Y28210488D01*
X102778768Y28339339D01*
X102824940Y28391779D01*
X102892133Y28410931D01*
X102959015Y28390715D01*
X103003532Y28339339D01*
X103063614Y28210492D01*
X103063618Y28210484D01*
X103190320Y28029535D01*
X103190325Y28029529D01*
X103346528Y27873326D01*
X103346534Y27873321D01*
X103527483Y27746619D01*
X103527485Y27746618D01*
X103527488Y27746616D01*
X103727700Y27653256D01*
X103941082Y27596080D01*
X104098273Y27582328D01*
X104161148Y27576827D01*
X104161150Y27576827D01*
X104161152Y27576827D01*
X104217456Y27581753D01*
X104381218Y27596080D01*
X104594600Y27653256D01*
X104794812Y27746616D01*
X104975770Y27873324D01*
X105131976Y28029530D01*
X105258684Y28210488D01*
X105318768Y28339339D01*
X105364940Y28391779D01*
X105432133Y28410931D01*
X105499015Y28390715D01*
X105543532Y28339339D01*
X105603614Y28210492D01*
X105603618Y28210484D01*
X105730320Y28029535D01*
X105730325Y28029529D01*
X105886528Y27873326D01*
X105886534Y27873321D01*
X106067483Y27746619D01*
X106067485Y27746618D01*
X106067488Y27746616D01*
X106267700Y27653256D01*
X106481082Y27596080D01*
X106638273Y27582328D01*
X106701148Y27576827D01*
X106701150Y27576827D01*
X106701152Y27576827D01*
X106757456Y27581753D01*
X106921218Y27596080D01*
X107134600Y27653256D01*
X107334812Y27746616D01*
X107515770Y27873324D01*
X107671976Y28029530D01*
X107798684Y28210488D01*
X107858768Y28339339D01*
X107904940Y28391779D01*
X107972133Y28410931D01*
X108039015Y28390715D01*
X108083532Y28339339D01*
X108143614Y28210492D01*
X108143618Y28210484D01*
X108270320Y28029535D01*
X108270325Y28029529D01*
X108426528Y27873326D01*
X108426534Y27873321D01*
X108607483Y27746619D01*
X108607485Y27746618D01*
X108607488Y27746616D01*
X108807700Y27653256D01*
X109021082Y27596080D01*
X109178273Y27582328D01*
X109241148Y27576827D01*
X109241150Y27576827D01*
X109241152Y27576827D01*
X109297456Y27581753D01*
X109461218Y27596080D01*
X109674600Y27653256D01*
X109874812Y27746616D01*
X110055770Y27873324D01*
X110211976Y28029530D01*
X110338684Y28210488D01*
X110398768Y28339339D01*
X110444940Y28391779D01*
X110512133Y28410931D01*
X110579015Y28390715D01*
X110623532Y28339339D01*
X110683614Y28210492D01*
X110683618Y28210484D01*
X110810320Y28029535D01*
X110810325Y28029529D01*
X110966528Y27873326D01*
X110966534Y27873321D01*
X111147483Y27746619D01*
X111147485Y27746618D01*
X111147488Y27746616D01*
X111347700Y27653256D01*
X111561082Y27596080D01*
X111718273Y27582328D01*
X111781148Y27576827D01*
X111781150Y27576827D01*
X111781152Y27576827D01*
X111837456Y27581753D01*
X112001218Y27596080D01*
X112214600Y27653256D01*
X112414812Y27746616D01*
X112595770Y27873324D01*
X112751976Y28029530D01*
X112878684Y28210488D01*
X112972044Y28410700D01*
X113029220Y28624082D01*
X113048473Y28844150D01*
X113029220Y29064218D01*
X112972044Y29277600D01*
X112878684Y29477811D01*
X112751976Y29658770D01*
X112595770Y29814976D01*
X112595766Y29814979D01*
X112595765Y29814980D01*
X112414816Y29941682D01*
X112414812Y29941684D01*
X112414810Y29941685D01*
X112214600Y30035044D01*
X112214597Y30035045D01*
X112214595Y30035046D01*
X112001220Y30092220D01*
X112001212Y30092221D01*
X111781152Y30111473D01*
X111781148Y30111473D01*
X111561087Y30092221D01*
X111561079Y30092220D01*
X111347704Y30035046D01*
X111347698Y30035043D01*
X111147490Y29941685D01*
X111147488Y29941684D01*
X110966527Y29814975D01*
X110810325Y29658773D01*
X110683616Y29477812D01*
X110683615Y29477810D01*
X110623532Y29348961D01*
X110577359Y29296522D01*
X110510166Y29277370D01*
X110443285Y29297586D01*
X110398768Y29348961D01*
X110338684Y29477810D01*
X110338683Y29477812D01*
X110211977Y29658769D01*
X110211973Y29658773D01*
X110055770Y29814976D01*
X110055766Y29814979D01*
X110055765Y29814980D01*
X109874816Y29941682D01*
X109874812Y29941684D01*
X109874810Y29941685D01*
X109674600Y30035044D01*
X109674597Y30035045D01*
X109674595Y30035046D01*
X109461220Y30092220D01*
X109461212Y30092221D01*
X109241152Y30111473D01*
X109241148Y30111473D01*
X109021087Y30092221D01*
X109021079Y30092220D01*
X108807704Y30035046D01*
X108807698Y30035043D01*
X108607490Y29941685D01*
X108607488Y29941684D01*
X108426527Y29814975D01*
X108270325Y29658773D01*
X108143616Y29477812D01*
X108143615Y29477810D01*
X108083532Y29348961D01*
X108037359Y29296522D01*
X107970166Y29277370D01*
X107903285Y29297586D01*
X107858768Y29348961D01*
X107798684Y29477810D01*
X107798683Y29477812D01*
X107671977Y29658769D01*
X107671973Y29658773D01*
X107515770Y29814976D01*
X107515766Y29814979D01*
X107515765Y29814980D01*
X107334816Y29941682D01*
X107334812Y29941684D01*
X107334810Y29941685D01*
X107134600Y30035044D01*
X107134597Y30035045D01*
X107134595Y30035046D01*
X106921220Y30092220D01*
X106921212Y30092221D01*
X106701152Y30111473D01*
X106701148Y30111473D01*
X106481087Y30092221D01*
X106481079Y30092220D01*
X106267704Y30035046D01*
X106267698Y30035043D01*
X106067490Y29941685D01*
X106067488Y29941684D01*
X105886527Y29814975D01*
X105730325Y29658773D01*
X105603616Y29477812D01*
X105603615Y29477810D01*
X105543532Y29348961D01*
X105497359Y29296522D01*
X105430166Y29277370D01*
X105363285Y29297586D01*
X105318768Y29348961D01*
X105258684Y29477810D01*
X105258683Y29477812D01*
X105131977Y29658769D01*
X105131973Y29658773D01*
X104975770Y29814976D01*
X104975766Y29814979D01*
X104975765Y29814980D01*
X104794816Y29941682D01*
X104794812Y29941684D01*
X104794810Y29941685D01*
X104594600Y30035044D01*
X104594597Y30035045D01*
X104594595Y30035046D01*
X104381220Y30092220D01*
X104381212Y30092221D01*
X104231746Y30105297D01*
X104166677Y30130749D01*
X104125698Y30187340D01*
X104121820Y30257102D01*
X104154870Y30316504D01*
X113806102Y39967734D01*
X113855336Y40041421D01*
X113888234Y40090655D01*
X113911668Y40147230D01*
X113944809Y40227238D01*
X113973650Y40372233D01*
X113973650Y40520068D01*
X113973650Y48274229D01*
X113990263Y48336229D01*
X114018156Y48384541D01*
X114050329Y48440266D01*
X114108824Y48620294D01*
X114122052Y48746160D01*
X114148636Y48810773D01*
X114205934Y48850758D01*
X114275753Y48853418D01*
X114333054Y48820878D01*
G37*
%TD.AperFunction*%
%TA.AperFunction,Conductor*%
G36*
X102475779Y49358565D02*
G01*
X102521534Y49305761D01*
X102531478Y49236603D01*
X102516126Y49192248D01*
X102508255Y49178617D01*
X102508252Y49178610D01*
X102420468Y48966681D01*
X102361092Y48745088D01*
X102331151Y48517661D01*
X102331150Y48517645D01*
X102331150Y48402950D01*
X103532668Y48402950D01*
X103522039Y48384541D01*
X103481150Y48231941D01*
X103481150Y48073959D01*
X103522039Y47921359D01*
X103532668Y47902950D01*
X102331150Y47902950D01*
X102331150Y47788256D01*
X102331151Y47788240D01*
X102361092Y47560813D01*
X102420468Y47339220D01*
X102508252Y47127291D01*
X102508256Y47127282D01*
X102622959Y46928612D01*
X102762605Y46746621D01*
X102762611Y46746614D01*
X102924813Y46584412D01*
X102924820Y46584406D01*
X103106811Y46444760D01*
X103305481Y46330057D01*
X103305490Y46330053D01*
X103517419Y46242269D01*
X103739009Y46182894D01*
X103739014Y46182893D01*
X103831149Y46170764D01*
X103831150Y46170764D01*
X103831150Y47604468D01*
X103849559Y47593839D01*
X104002159Y47552950D01*
X104160141Y47552950D01*
X104312741Y47593839D01*
X104331150Y47604468D01*
X104331150Y46170764D01*
X104423285Y46182893D01*
X104423290Y46182894D01*
X104644880Y46242269D01*
X104856809Y46330053D01*
X104856818Y46330057D01*
X105055488Y46444760D01*
X105237479Y46584406D01*
X105237486Y46584412D01*
X105399688Y46746614D01*
X105399694Y46746621D01*
X105539340Y46928612D01*
X105654043Y47127282D01*
X105654047Y47127291D01*
X105741831Y47339220D01*
X105801207Y47560813D01*
X105831148Y47788240D01*
X105831150Y47788256D01*
X105831150Y47902950D01*
X104629632Y47902950D01*
X104640261Y47921359D01*
X104681150Y48073959D01*
X104681150Y48231941D01*
X104640261Y48384541D01*
X104629632Y48402950D01*
X105831150Y48402950D01*
X105831150Y48517645D01*
X105831148Y48517661D01*
X105801207Y48745088D01*
X105741831Y48966681D01*
X105654047Y49178610D01*
X105654044Y49178617D01*
X105646174Y49192248D01*
X105629700Y49260148D01*
X105652551Y49326175D01*
X105707472Y49369367D01*
X105753560Y49378250D01*
X107751220Y49378250D01*
X107818259Y49358565D01*
X107838901Y49341931D01*
X108500828Y48680004D01*
X108531078Y48630642D01*
X108586419Y48460320D01*
X108586421Y48460316D01*
X108681067Y48296384D01*
X108777307Y48189499D01*
X108807729Y48155712D01*
X108960865Y48044452D01*
X108960870Y48044449D01*
X109133792Y47967458D01*
X109133797Y47967456D01*
X109318954Y47928100D01*
X109318955Y47928100D01*
X109336770Y47928100D01*
X109403809Y47908415D01*
X109449564Y47855611D01*
X109459508Y47786453D01*
X109430483Y47722897D01*
X109424451Y47716419D01*
X101339000Y39630970D01*
X101338994Y39630962D01*
X101289762Y39557282D01*
X101289763Y39557281D01*
X101256871Y39508054D01*
X101256864Y39508042D01*
X101200292Y39371464D01*
X101200290Y39371458D01*
X101171450Y39226471D01*
X101171450Y33977580D01*
X101151765Y33910541D01*
X101135131Y33889899D01*
X99768200Y32522969D01*
X99768199Y32522968D01*
X99721445Y32452993D01*
X99721444Y32452992D01*
X99686069Y32400051D01*
X99686062Y32400039D01*
X99629493Y32263468D01*
X99629490Y32263458D01*
X99600650Y32118471D01*
X99600650Y30173588D01*
X99580965Y30106549D01*
X99528161Y30060794D01*
X99459003Y30050850D01*
X99444557Y30053813D01*
X99301223Y30092219D01*
X99301219Y30092220D01*
X99301218Y30092220D01*
X99301217Y30092221D01*
X99301212Y30092221D01*
X99081152Y30111473D01*
X99081148Y30111473D01*
X98861087Y30092221D01*
X98861079Y30092220D01*
X98647704Y30035046D01*
X98647698Y30035043D01*
X98447490Y29941685D01*
X98447488Y29941684D01*
X98266527Y29814975D01*
X98110325Y29658773D01*
X97983616Y29477812D01*
X97983615Y29477810D01*
X97923532Y29348961D01*
X97877359Y29296522D01*
X97810166Y29277370D01*
X97743285Y29297586D01*
X97698768Y29348961D01*
X97638684Y29477810D01*
X97638683Y29477812D01*
X97511977Y29658769D01*
X97511973Y29658773D01*
X97355770Y29814976D01*
X97355766Y29814979D01*
X97355765Y29814980D01*
X97174816Y29941682D01*
X97174812Y29941684D01*
X97174810Y29941685D01*
X96974600Y30035044D01*
X96974597Y30035045D01*
X96974595Y30035046D01*
X96761220Y30092220D01*
X96761212Y30092221D01*
X96600544Y30106277D01*
X96535475Y30131729D01*
X96494496Y30188320D01*
X96490618Y30258082D01*
X96508246Y30298691D01*
X96543475Y30351416D01*
X96572634Y30395055D01*
X96596940Y30453734D01*
X96629209Y30531638D01*
X96658050Y30676633D01*
X96658050Y30824468D01*
X96658050Y47278321D01*
X96677735Y47345360D01*
X96694369Y47366002D01*
X96889180Y47560813D01*
X97127948Y47799582D01*
X97189269Y47833065D01*
X97258960Y47828081D01*
X97314894Y47786210D01*
X97338566Y47728085D01*
X97352212Y47624437D01*
X97360602Y47560712D01*
X97381126Y47484116D01*
X97419992Y47339063D01*
X97507800Y47127074D01*
X97507807Y47127060D01*
X97622542Y46928333D01*
X97762231Y46746289D01*
X97762239Y46746280D01*
X97924480Y46584039D01*
X97924488Y46584032D01*
X98106532Y46444343D01*
X98106535Y46444342D01*
X98106538Y46444339D01*
X98268650Y46350744D01*
X98316866Y46300177D01*
X98330650Y46243357D01*
X98330650Y37562543D01*
X98310965Y37495504D01*
X98268650Y37455156D01*
X98106532Y37361558D01*
X97924488Y37221869D01*
X97762231Y37059612D01*
X97622542Y36877568D01*
X97507807Y36678841D01*
X97507800Y36678827D01*
X97419992Y36466838D01*
X97419992Y36466837D01*
X97372886Y36291031D01*
X97360603Y36245191D01*
X97360601Y36245180D01*
X97330650Y36017692D01*
X97330650Y35288209D01*
X97355596Y35098735D01*
X97360602Y35060712D01*
X97386674Y34963408D01*
X97419992Y34839063D01*
X97507800Y34627074D01*
X97507807Y34627060D01*
X97574046Y34512330D01*
X97595223Y34475650D01*
X97622542Y34428333D01*
X97762231Y34246289D01*
X97762239Y34246280D01*
X97924480Y34084039D01*
X97924488Y34084032D01*
X98106532Y33944343D01*
X98106535Y33944342D01*
X98106538Y33944339D01*
X98305262Y33829606D01*
X98305267Y33829604D01*
X98305273Y33829601D01*
X98396630Y33791760D01*
X98517263Y33741792D01*
X98738912Y33682402D01*
X98966416Y33652450D01*
X98966423Y33652450D01*
X99195877Y33652450D01*
X99195884Y33652450D01*
X99423388Y33682402D01*
X99645037Y33741792D01*
X99857038Y33829606D01*
X100055762Y33944339D01*
X100237811Y34084031D01*
X100237815Y34084036D01*
X100237820Y34084039D01*
X100400061Y34246280D01*
X100400064Y34246285D01*
X100400069Y34246289D01*
X100539761Y34428338D01*
X100654494Y34627062D01*
X100742308Y34839063D01*
X100801698Y35060712D01*
X100831650Y35288216D01*
X100831650Y36017684D01*
X100801698Y36245188D01*
X100742308Y36466837D01*
X100692340Y36587470D01*
X100654499Y36678827D01*
X100654496Y36678833D01*
X100654494Y36678838D01*
X100539761Y36877562D01*
X100539758Y36877565D01*
X100539757Y36877568D01*
X100400323Y37059280D01*
X100400069Y37059611D01*
X100400068Y37059612D01*
X100400061Y37059620D01*
X100237820Y37221861D01*
X100237811Y37221869D01*
X100055767Y37361558D01*
X99893650Y37455156D01*
X99845434Y37505723D01*
X99831650Y37562543D01*
X99831650Y46243357D01*
X99851335Y46310396D01*
X99893650Y46350744D01*
X100055762Y46444339D01*
X100237811Y46584031D01*
X100237815Y46584036D01*
X100237820Y46584039D01*
X100400061Y46746280D01*
X100400064Y46746285D01*
X100400069Y46746289D01*
X100539761Y46928338D01*
X100654494Y47127062D01*
X100742308Y47339063D01*
X100801698Y47560712D01*
X100831650Y47788216D01*
X100831650Y48517684D01*
X100801698Y48745188D01*
X100742308Y48966837D01*
X100655327Y49176828D01*
X100654499Y49178827D01*
X100654496Y49178831D01*
X100654494Y49178838D01*
X100646752Y49192248D01*
X100646750Y49192252D01*
X100630279Y49260152D01*
X100653132Y49326179D01*
X100708054Y49369368D01*
X100754138Y49378250D01*
X102408740Y49378250D01*
X102475779Y49358565D01*
G37*
%TD.AperFunction*%
%TA.AperFunction,Conductor*%
G36*
X111552537Y51601346D02*
G01*
X111554648Y51599284D01*
X113233201Y49920731D01*
X113266686Y49859408D01*
X113261702Y49789716D01*
X113219830Y49733783D01*
X113154366Y49709366D01*
X113145520Y49709050D01*
X113128504Y49709050D01*
X113102812Y49703589D01*
X112943347Y49669695D01*
X112943342Y49669693D01*
X112770420Y49592702D01*
X112770415Y49592699D01*
X112617279Y49481439D01*
X112490616Y49340765D01*
X112395971Y49176835D01*
X112395968Y49176828D01*
X112360724Y49068357D01*
X112337476Y48996806D01*
X112317690Y48808550D01*
X112337476Y48620294D01*
X112337477Y48620291D01*
X112395968Y48440273D01*
X112395971Y48440266D01*
X112456037Y48336229D01*
X112472650Y48274229D01*
X112472650Y40808381D01*
X112452965Y40741342D01*
X112436331Y40720700D01*
X101851422Y30135792D01*
X101790099Y30102307D01*
X101752935Y30099945D01*
X101621153Y30111473D01*
X101621148Y30111473D01*
X101401087Y30092221D01*
X101401076Y30092219D01*
X101257743Y30053813D01*
X101187893Y30055476D01*
X101130031Y30094639D01*
X101102527Y30158867D01*
X101101650Y30173588D01*
X101101650Y31682321D01*
X101121335Y31749360D01*
X101137969Y31770002D01*
X101820960Y32452993D01*
X102504902Y33136935D01*
X102532155Y33177723D01*
X102587034Y33259855D01*
X102610468Y33316430D01*
X102643609Y33396438D01*
X102672450Y33541433D01*
X102672450Y33689268D01*
X102672450Y34037413D01*
X102692135Y34104452D01*
X102744939Y34150207D01*
X102814097Y34160151D01*
X102877653Y34131126D01*
X102884131Y34125094D01*
X102924813Y34084412D01*
X102924820Y34084406D01*
X103106811Y33944760D01*
X103305481Y33830057D01*
X103305490Y33830053D01*
X103517419Y33742269D01*
X103739009Y33682894D01*
X103739014Y33682893D01*
X103831149Y33670764D01*
X103831150Y33670764D01*
X103831150Y35104468D01*
X103849559Y35093839D01*
X104002159Y35052950D01*
X104160141Y35052950D01*
X104312741Y35093839D01*
X104331150Y35104468D01*
X104331150Y33670764D01*
X104423285Y33682893D01*
X104423290Y33682894D01*
X104644880Y33742269D01*
X104856809Y33830053D01*
X104856818Y33830057D01*
X105055488Y33944760D01*
X105237479Y34084406D01*
X105237486Y34084412D01*
X105399688Y34246614D01*
X105399694Y34246621D01*
X105539340Y34428612D01*
X105654043Y34627282D01*
X105654047Y34627291D01*
X105741831Y34839220D01*
X105801207Y35060813D01*
X105831148Y35288240D01*
X105831150Y35288256D01*
X105831150Y35402950D01*
X104629632Y35402950D01*
X104640261Y35421359D01*
X104681150Y35573959D01*
X104681150Y35731941D01*
X104640261Y35884541D01*
X104629632Y35902950D01*
X105831150Y35902950D01*
X105831150Y36017645D01*
X105831148Y36017661D01*
X105801207Y36245088D01*
X105741831Y36466681D01*
X105654047Y36678610D01*
X105654043Y36678619D01*
X105539340Y36877289D01*
X105399694Y37059280D01*
X105399688Y37059287D01*
X105237486Y37221489D01*
X105237479Y37221495D01*
X105055488Y37361141D01*
X104856818Y37475844D01*
X104856809Y37475848D01*
X104644880Y37563632D01*
X104423287Y37623008D01*
X104331150Y37635139D01*
X104331150Y36201433D01*
X104312741Y36212061D01*
X104160141Y36252950D01*
X104002159Y36252950D01*
X103849559Y36212061D01*
X103831150Y36201433D01*
X103831150Y37635139D01*
X103831149Y37635139D01*
X103739012Y37623008D01*
X103517419Y37563632D01*
X103305490Y37475848D01*
X103305481Y37475844D01*
X103106811Y37361141D01*
X102924820Y37221495D01*
X102924813Y37221489D01*
X102884131Y37180806D01*
X102822808Y37147321D01*
X102753116Y37152305D01*
X102697183Y37194177D01*
X102672766Y37259641D01*
X102672450Y37268487D01*
X102672450Y38790321D01*
X102692135Y38857360D01*
X102708769Y38878002D01*
X111195698Y47364931D01*
X111195701Y47364934D01*
X111277834Y47487855D01*
X111334408Y47624437D01*
X111352705Y47716419D01*
X111363250Y47769430D01*
X111363250Y50407829D01*
X111379863Y50469829D01*
X111439929Y50573866D01*
X111498424Y50753894D01*
X111518210Y50942150D01*
X111498424Y51130406D01*
X111439929Y51310434D01*
X111359580Y51449603D01*
X111343107Y51517504D01*
X111365960Y51583530D01*
X111420881Y51626721D01*
X111490435Y51633362D01*
X111552537Y51601346D01*
G37*
%TD.AperFunction*%
%TA.AperFunction,Conductor*%
G36*
X68848450Y36082262D02*
G01*
X68791443Y36115175D01*
X68664276Y36149250D01*
X68532624Y36149250D01*
X68405457Y36115175D01*
X68348450Y36082262D01*
X68348450Y37756238D01*
X68405457Y37723325D01*
X68532624Y37689250D01*
X68664276Y37689250D01*
X68791443Y37723325D01*
X68848450Y37756238D01*
X68848450Y36082262D01*
G37*
%TD.AperFunction*%
%TA.AperFunction,Conductor*%
G36*
X84088450Y36082262D02*
G01*
X84031443Y36115175D01*
X83904276Y36149250D01*
X83772624Y36149250D01*
X83645457Y36115175D01*
X83588450Y36082262D01*
X83588450Y37756238D01*
X83645457Y37723325D01*
X83772624Y37689250D01*
X83904276Y37689250D01*
X84031443Y37723325D01*
X84088450Y37756238D01*
X84088450Y36082262D01*
G37*
%TD.AperFunction*%
%TA.AperFunction,Conductor*%
G36*
X51068450Y64022262D02*
G01*
X51011443Y64055175D01*
X50884276Y64089250D01*
X50752624Y64089250D01*
X50625457Y64055175D01*
X50568450Y64022262D01*
X50568450Y65696238D01*
X50625457Y65663325D01*
X50752624Y65629250D01*
X50884276Y65629250D01*
X51011443Y65663325D01*
X51068450Y65696238D01*
X51068450Y64022262D01*
G37*
%TD.AperFunction*%
%TA.AperFunction,Conductor*%
G36*
X129694489Y92387565D02*
G01*
X129740244Y92334761D01*
X129751450Y92283250D01*
X129751450Y5232250D01*
X129731765Y5165211D01*
X129678961Y5119456D01*
X129627450Y5108250D01*
X31476450Y5108250D01*
X31409411Y5127935D01*
X31363656Y5180739D01*
X31352450Y5232250D01*
X31352450Y9908892D01*
X33830650Y9908892D01*
X33830650Y9679409D01*
X33850362Y9529692D01*
X33860602Y9451912D01*
X33900367Y9303506D01*
X33919992Y9230263D01*
X34007800Y9018274D01*
X34007807Y9018260D01*
X34122542Y8819533D01*
X34262231Y8637489D01*
X34262239Y8637480D01*
X34424480Y8475239D01*
X34424488Y8475232D01*
X34606532Y8335543D01*
X34606535Y8335542D01*
X34606538Y8335539D01*
X34805262Y8220806D01*
X34805267Y8220804D01*
X34805273Y8220801D01*
X34896630Y8182960D01*
X35017263Y8132992D01*
X35238912Y8073602D01*
X35466416Y8043650D01*
X35466423Y8043650D01*
X35695877Y8043650D01*
X35695884Y8043650D01*
X35923388Y8073602D01*
X36145037Y8132992D01*
X36357038Y8220806D01*
X36555762Y8335539D01*
X36737811Y8475231D01*
X36737815Y8475236D01*
X36737820Y8475239D01*
X36900061Y8637480D01*
X36900064Y8637485D01*
X36900069Y8637489D01*
X37039761Y8819538D01*
X37154494Y9018262D01*
X37242308Y9230263D01*
X37301698Y9451912D01*
X37331650Y9679416D01*
X37331650Y9908884D01*
X37301698Y10136388D01*
X37242308Y10358037D01*
X37190688Y10482658D01*
X37154499Y10570027D01*
X37154496Y10570033D01*
X37154494Y10570038D01*
X37039761Y10768762D01*
X37039758Y10768765D01*
X37039757Y10768768D01*
X36938914Y10900188D01*
X36900069Y10950811D01*
X36900068Y10950812D01*
X36900061Y10950820D01*
X36737820Y11113061D01*
X36737811Y11113069D01*
X36555767Y11252758D01*
X36499461Y11285266D01*
X36357038Y11367494D01*
X36357026Y11367500D01*
X36145037Y11455308D01*
X35923388Y11514698D01*
X35885365Y11519704D01*
X35695891Y11544650D01*
X35695884Y11544650D01*
X35466416Y11544650D01*
X35466408Y11544650D01*
X35249865Y11516141D01*
X35238912Y11514698D01*
X35149704Y11490795D01*
X35017262Y11455308D01*
X34805273Y11367500D01*
X34805259Y11367493D01*
X34606532Y11252758D01*
X34424488Y11113069D01*
X34262231Y10950812D01*
X34122542Y10768768D01*
X34007807Y10570041D01*
X34007800Y10570027D01*
X33919992Y10358038D01*
X33891406Y10251350D01*
X33875532Y10192106D01*
X33860603Y10136391D01*
X33860601Y10136380D01*
X33830650Y9908892D01*
X31352450Y9908892D01*
X31352450Y21350437D01*
X40070650Y21350437D01*
X40070650Y21137864D01*
X40103903Y20927911D01*
X40169594Y20725736D01*
X40266101Y20536330D01*
X40391040Y20364364D01*
X40541363Y20214041D01*
X40713329Y20089102D01*
X40713331Y20089101D01*
X40713334Y20089099D01*
X40902738Y19992593D01*
X41104907Y19926904D01*
X41314863Y19893650D01*
X41314864Y19893650D01*
X41827436Y19893650D01*
X41827437Y19893650D01*
X42037393Y19926904D01*
X42239562Y19992593D01*
X42428966Y20089099D01*
X42450939Y20105064D01*
X42600936Y20214041D01*
X42600938Y20214044D01*
X42600942Y20214046D01*
X42751254Y20364358D01*
X42751256Y20364362D01*
X42751259Y20364364D01*
X42876198Y20536330D01*
X42876197Y20536330D01*
X42876201Y20536334D01*
X42972707Y20725738D01*
X43038396Y20927907D01*
X43071650Y21137863D01*
X43071650Y21350437D01*
X43038396Y21560393D01*
X42972707Y21762562D01*
X42876201Y21951966D01*
X42876199Y21951969D01*
X42876198Y21951971D01*
X42751259Y22123937D01*
X42612081Y22263115D01*
X42578596Y22324438D01*
X42583580Y22394130D01*
X42625452Y22450063D01*
X42634666Y22456335D01*
X42789493Y22551833D01*
X42913465Y22675805D01*
X43005506Y22825026D01*
X43005508Y22825031D01*
X43060655Y22991453D01*
X43060656Y22991460D01*
X43071149Y23094164D01*
X43071150Y23094177D01*
X43071150Y23494150D01*
X42004162Y23494150D01*
X42037075Y23551157D01*
X42071150Y23678324D01*
X42071150Y23809976D01*
X42037075Y23937143D01*
X42004162Y23994150D01*
X43071149Y23994150D01*
X43071149Y24394122D01*
X43071148Y24394137D01*
X43060655Y24496848D01*
X43005508Y24663270D01*
X43005506Y24663275D01*
X42913465Y24812496D01*
X42789495Y24936466D01*
X42640274Y25028507D01*
X42640269Y25028509D01*
X42473847Y25083656D01*
X42473840Y25083657D01*
X42371136Y25094150D01*
X41821150Y25094150D01*
X41821150Y24177162D01*
X41764143Y24210075D01*
X41636976Y24244150D01*
X41505324Y24244150D01*
X41378157Y24210075D01*
X41321150Y24177162D01*
X41321150Y25094150D01*
X40771178Y25094150D01*
X40771162Y25094149D01*
X40668452Y25083656D01*
X40502030Y25028509D01*
X40502025Y25028507D01*
X40352804Y24936466D01*
X40228834Y24812496D01*
X40136793Y24663275D01*
X40136791Y24663270D01*
X40081644Y24496848D01*
X40081643Y24496841D01*
X40071150Y24394137D01*
X40071150Y23994150D01*
X41138138Y23994150D01*
X41105225Y23937143D01*
X41071150Y23809976D01*
X41071150Y23678324D01*
X41105225Y23551157D01*
X41138138Y23494150D01*
X40071151Y23494150D01*
X40071151Y23094164D01*
X40081644Y22991453D01*
X40136791Y22825031D01*
X40136793Y22825026D01*
X40228834Y22675805D01*
X40352804Y22551835D01*
X40507634Y22456335D01*
X40554358Y22404387D01*
X40565581Y22335424D01*
X40537737Y22271342D01*
X40530219Y22263115D01*
X40391039Y22123935D01*
X40266101Y21951971D01*
X40169594Y21762565D01*
X40103903Y21560390D01*
X40070650Y21350437D01*
X31352450Y21350437D01*
X31352450Y66129251D01*
X34222791Y66129251D01*
X34222791Y66129250D01*
X34243386Y65893847D01*
X34243388Y65893837D01*
X34304544Y65665595D01*
X34304546Y65665591D01*
X34304547Y65665587D01*
X34384251Y65494662D01*
X34404415Y65451420D01*
X34404417Y65451416D01*
X34512731Y65296729D01*
X34539954Y65257850D01*
X34539956Y65257848D01*
X34707045Y65090758D01*
X34707048Y65090756D01*
X34707049Y65090755D01*
X34775073Y65043125D01*
X34818698Y64988549D01*
X34827950Y64941550D01*
X34827950Y64776952D01*
X34808265Y64709913D01*
X34775075Y64675378D01*
X34707045Y64627743D01*
X34539955Y64460653D01*
X34404415Y64267081D01*
X34404414Y64267079D01*
X34304548Y64052915D01*
X34304544Y64052906D01*
X34243388Y63824664D01*
X34243386Y63824654D01*
X34222791Y63589251D01*
X34222791Y63589250D01*
X34243386Y63353847D01*
X34243388Y63353837D01*
X34304544Y63125595D01*
X34304546Y63125591D01*
X34304547Y63125587D01*
X34384454Y62954227D01*
X34404415Y62911420D01*
X34404417Y62911416D01*
X34479189Y62804632D01*
X34539955Y62717849D01*
X34707049Y62550755D01*
X34803834Y62482985D01*
X34900615Y62415218D01*
X34900617Y62415217D01*
X34900620Y62415215D01*
X35114787Y62315347D01*
X35343042Y62254187D01*
X35531368Y62237711D01*
X35578449Y62233591D01*
X35578450Y62233591D01*
X35578451Y62233591D01*
X35617684Y62237024D01*
X35813858Y62254187D01*
X36042113Y62315347D01*
X36256280Y62415215D01*
X36449851Y62550755D01*
X36616945Y62717849D01*
X36746876Y62903409D01*
X36801452Y62947033D01*
X36870950Y62954227D01*
X36933305Y62922704D01*
X36950025Y62903408D01*
X37079951Y62717854D01*
X37079956Y62717848D01*
X37154890Y62642914D01*
X37174211Y62616326D01*
X37174676Y62616610D01*
X37177215Y62612466D01*
X37177218Y62612462D01*
X37279036Y62472322D01*
X37401522Y62349836D01*
X37541662Y62248018D01*
X37696005Y62169377D01*
X37860749Y62115848D01*
X38031839Y62088750D01*
X38031840Y62088750D01*
X38205060Y62088750D01*
X38205061Y62088750D01*
X38376151Y62115848D01*
X38540895Y62169377D01*
X38695238Y62248018D01*
X38835378Y62349836D01*
X38957864Y62472322D01*
X39059682Y62612462D01*
X39059687Y62612474D01*
X39062233Y62616625D01*
X39062703Y62616337D01*
X39082009Y62642914D01*
X39156945Y62717849D01*
X39286876Y62903410D01*
X39341451Y62947033D01*
X39410949Y62954227D01*
X39473304Y62922704D01*
X39490024Y62903409D01*
X39619955Y62717849D01*
X39619956Y62717848D01*
X39694890Y62642914D01*
X39714211Y62616326D01*
X39714676Y62616610D01*
X39717215Y62612466D01*
X39717218Y62612462D01*
X39819036Y62472322D01*
X39941522Y62349836D01*
X40081662Y62248018D01*
X40236005Y62169377D01*
X40400749Y62115848D01*
X40571839Y62088750D01*
X40571840Y62088750D01*
X40745060Y62088750D01*
X40745061Y62088750D01*
X40916151Y62115848D01*
X41080895Y62169377D01*
X41235238Y62248018D01*
X41375378Y62349836D01*
X41497864Y62472322D01*
X41599682Y62612462D01*
X41599687Y62612474D01*
X41602233Y62616625D01*
X41602703Y62616337D01*
X41622009Y62642914D01*
X41696945Y62717849D01*
X41826876Y62903410D01*
X41881451Y62947033D01*
X41950949Y62954227D01*
X42013304Y62922704D01*
X42030024Y62903409D01*
X42159955Y62717849D01*
X42159956Y62717848D01*
X42234890Y62642914D01*
X42254211Y62616326D01*
X42254676Y62616610D01*
X42257215Y62612466D01*
X42257218Y62612462D01*
X42359036Y62472322D01*
X42481522Y62349836D01*
X42621662Y62248018D01*
X42776005Y62169377D01*
X42940749Y62115848D01*
X43111839Y62088750D01*
X43111840Y62088750D01*
X43285060Y62088750D01*
X43285061Y62088750D01*
X43456151Y62115848D01*
X43620895Y62169377D01*
X43775238Y62248018D01*
X43915378Y62349836D01*
X44037864Y62472322D01*
X44139682Y62612462D01*
X44139687Y62612474D01*
X44142233Y62616625D01*
X44142703Y62616337D01*
X44162009Y62642914D01*
X44236945Y62717849D01*
X44366876Y62903410D01*
X44421451Y62947033D01*
X44490949Y62954227D01*
X44553304Y62922704D01*
X44570024Y62903409D01*
X44699955Y62717849D01*
X44699956Y62717848D01*
X44774890Y62642914D01*
X44794211Y62616326D01*
X44794676Y62616610D01*
X44797215Y62612466D01*
X44797218Y62612462D01*
X44899036Y62472322D01*
X45021522Y62349836D01*
X45161662Y62248018D01*
X45316005Y62169377D01*
X45480749Y62115848D01*
X45651839Y62088750D01*
X45651840Y62088750D01*
X45825060Y62088750D01*
X45825061Y62088750D01*
X45996151Y62115848D01*
X46160895Y62169377D01*
X46315238Y62248018D01*
X46455378Y62349836D01*
X46577864Y62472322D01*
X46679682Y62612462D01*
X46679687Y62612474D01*
X46682233Y62616625D01*
X46682703Y62616337D01*
X46702009Y62642914D01*
X46776945Y62717849D01*
X46906876Y62903410D01*
X46961451Y62947033D01*
X47030949Y62954227D01*
X47093304Y62922704D01*
X47110024Y62903409D01*
X47239955Y62717849D01*
X47239956Y62717848D01*
X47314890Y62642914D01*
X47334211Y62616326D01*
X47334676Y62616610D01*
X47337215Y62612466D01*
X47337218Y62612462D01*
X47439036Y62472322D01*
X47561522Y62349836D01*
X47701662Y62248018D01*
X47856005Y62169377D01*
X48020749Y62115848D01*
X48191839Y62088750D01*
X48191840Y62088750D01*
X48365060Y62088750D01*
X48365061Y62088750D01*
X48536151Y62115848D01*
X48700895Y62169377D01*
X48855238Y62248018D01*
X48995378Y62349836D01*
X49117864Y62472322D01*
X49219682Y62612462D01*
X49219687Y62612474D01*
X49222233Y62616625D01*
X49222703Y62616337D01*
X49242009Y62642914D01*
X49316945Y62717849D01*
X49447180Y62903845D01*
X49501757Y62947469D01*
X49571255Y62954663D01*
X49633610Y62923140D01*
X49650329Y62903845D01*
X49780340Y62718172D01*
X49855301Y62643211D01*
X49874643Y62616591D01*
X49875104Y62616873D01*
X49877642Y62612731D01*
X49979417Y62472648D01*
X50101847Y62350218D01*
X50241925Y62248446D01*
X50396194Y62169842D01*
X50560865Y62116336D01*
X50560864Y62116336D01*
X50568449Y62115135D01*
X50568450Y62115136D01*
X50568450Y63156238D01*
X50625457Y63123325D01*
X50752624Y63089250D01*
X50884276Y63089250D01*
X51011443Y63123325D01*
X51068450Y63156238D01*
X51068450Y62115135D01*
X51076034Y62116336D01*
X51240705Y62169842D01*
X51394974Y62248446D01*
X51535052Y62350218D01*
X51657488Y62472654D01*
X51759250Y62612719D01*
X51761793Y62616869D01*
X51762255Y62616586D01*
X51781598Y62643212D01*
X51856563Y62718177D01*
X51986569Y62903844D01*
X52041146Y62947469D01*
X52110644Y62954663D01*
X52172999Y62923140D01*
X52189719Y62903845D01*
X52319955Y62717849D01*
X52319956Y62717848D01*
X52394890Y62642914D01*
X52414211Y62616326D01*
X52414676Y62616610D01*
X52417215Y62612466D01*
X52417218Y62612462D01*
X52519036Y62472322D01*
X52641522Y62349836D01*
X52781662Y62248018D01*
X52936005Y62169377D01*
X53100749Y62115848D01*
X53271839Y62088750D01*
X53271840Y62088750D01*
X53445060Y62088750D01*
X53445061Y62088750D01*
X53616151Y62115848D01*
X53660367Y62130216D01*
X53730206Y62132212D01*
X53786366Y62099966D01*
X55090719Y60795614D01*
X56380199Y59506134D01*
X56484734Y59401599D01*
X56484737Y59401597D01*
X56484738Y59401596D01*
X56607653Y59319467D01*
X56607656Y59319465D01*
X56664229Y59296032D01*
X56664230Y59296032D01*
X56744238Y59262891D01*
X56860391Y59239787D01*
X56879618Y59235963D01*
X56889231Y59234050D01*
X56889232Y59234050D01*
X56889233Y59234050D01*
X57037068Y59234050D01*
X89053720Y59234050D01*
X89120759Y59214365D01*
X89166514Y59161561D01*
X89176458Y59092403D01*
X89147433Y59028847D01*
X89141401Y59022369D01*
X84582898Y54463867D01*
X84581445Y54461692D01*
X84537331Y54395668D01*
X84500764Y54340943D01*
X84500763Y54340941D01*
X84444193Y54204368D01*
X84444190Y54204358D01*
X84415350Y54059371D01*
X84415350Y39729084D01*
X84395665Y39662045D01*
X84342861Y39616290D01*
X84273703Y39606346D01*
X84253032Y39611153D01*
X84096043Y39662162D01*
X84096031Y39662165D01*
X84088450Y39663366D01*
X84088450Y38622262D01*
X84031443Y38655175D01*
X83904276Y38689250D01*
X83772624Y38689250D01*
X83645457Y38655175D01*
X83588450Y38622262D01*
X83588450Y39663366D01*
X83588449Y39663366D01*
X83580868Y39662165D01*
X83580860Y39662163D01*
X83416192Y39608659D01*
X83261925Y39530055D01*
X83121847Y39428283D01*
X82999417Y39305853D01*
X82897648Y39165777D01*
X82895102Y39161623D01*
X82894642Y39161905D01*
X82875303Y39135294D01*
X82800343Y39060333D01*
X82670330Y38874655D01*
X82615753Y38831031D01*
X82546254Y38823838D01*
X82483900Y38855360D01*
X82467180Y38874656D01*
X82336946Y39060650D01*
X82310462Y39087134D01*
X82262007Y39135589D01*
X82242698Y39162169D01*
X82242230Y39161881D01*
X82239685Y39166034D01*
X82233862Y39174048D01*
X82137864Y39306178D01*
X82015378Y39428664D01*
X81875238Y39530482D01*
X81720895Y39609123D01*
X81556151Y39662652D01*
X81556149Y39662653D01*
X81556148Y39662653D01*
X81424721Y39683469D01*
X81385061Y39689750D01*
X81211839Y39689750D01*
X81172178Y39683469D01*
X81040752Y39662653D01*
X80876002Y39609122D01*
X80721661Y39530482D01*
X80656375Y39483048D01*
X80581522Y39428664D01*
X80581520Y39428662D01*
X80581519Y39428662D01*
X80459038Y39306181D01*
X80459038Y39306180D01*
X80459036Y39306178D01*
X80415309Y39245994D01*
X80357218Y39166039D01*
X80354674Y39161886D01*
X80354208Y39162172D01*
X80334893Y39135592D01*
X80259956Y39060654D01*
X80130025Y38875092D01*
X80075448Y38831467D01*
X80005950Y38824273D01*
X79943595Y38855796D01*
X79926875Y38875092D01*
X79796946Y39060650D01*
X79770462Y39087134D01*
X79722007Y39135589D01*
X79702698Y39162169D01*
X79702230Y39161881D01*
X79699685Y39166034D01*
X79693862Y39174048D01*
X79597864Y39306178D01*
X79475378Y39428664D01*
X79335238Y39530482D01*
X79180895Y39609123D01*
X79016151Y39662652D01*
X79016149Y39662653D01*
X79016148Y39662653D01*
X78884721Y39683469D01*
X78845061Y39689750D01*
X78671839Y39689750D01*
X78632178Y39683469D01*
X78500752Y39662653D01*
X78336002Y39609122D01*
X78181661Y39530482D01*
X78116375Y39483048D01*
X78041522Y39428664D01*
X78041520Y39428662D01*
X78041519Y39428662D01*
X77919038Y39306181D01*
X77919038Y39306180D01*
X77919036Y39306178D01*
X77875309Y39245994D01*
X77817218Y39166039D01*
X77814674Y39161886D01*
X77814208Y39162172D01*
X77794893Y39135592D01*
X77719956Y39060654D01*
X77590025Y38875092D01*
X77535448Y38831467D01*
X77465950Y38824273D01*
X77403595Y38855796D01*
X77386875Y38875092D01*
X77256946Y39060650D01*
X77230462Y39087134D01*
X77182007Y39135589D01*
X77162698Y39162169D01*
X77162230Y39161881D01*
X77159685Y39166034D01*
X77153862Y39174048D01*
X77057864Y39306178D01*
X76935378Y39428664D01*
X76795238Y39530482D01*
X76640895Y39609123D01*
X76476151Y39662652D01*
X76476149Y39662653D01*
X76476148Y39662653D01*
X76344721Y39683469D01*
X76305061Y39689750D01*
X76131839Y39689750D01*
X76092178Y39683469D01*
X75960752Y39662653D01*
X75796002Y39609122D01*
X75641661Y39530482D01*
X75576375Y39483048D01*
X75501522Y39428664D01*
X75501520Y39428662D01*
X75501519Y39428662D01*
X75379038Y39306181D01*
X75379038Y39306180D01*
X75379036Y39306178D01*
X75335309Y39245994D01*
X75277218Y39166039D01*
X75274674Y39161886D01*
X75274208Y39162172D01*
X75254893Y39135592D01*
X75179956Y39060654D01*
X75050025Y38875092D01*
X74995448Y38831467D01*
X74925950Y38824273D01*
X74863595Y38855796D01*
X74846875Y38875092D01*
X74716946Y39060650D01*
X74690462Y39087134D01*
X74642007Y39135589D01*
X74622698Y39162169D01*
X74622230Y39161881D01*
X74619685Y39166034D01*
X74613862Y39174048D01*
X74517864Y39306178D01*
X74395378Y39428664D01*
X74255238Y39530482D01*
X74100895Y39609123D01*
X73936151Y39662652D01*
X73936149Y39662653D01*
X73936148Y39662653D01*
X73804721Y39683469D01*
X73765061Y39689750D01*
X73591839Y39689750D01*
X73552178Y39683469D01*
X73420752Y39662653D01*
X73256002Y39609122D01*
X73101661Y39530482D01*
X73036375Y39483048D01*
X72961522Y39428664D01*
X72961520Y39428662D01*
X72961519Y39428662D01*
X72839038Y39306181D01*
X72839038Y39306180D01*
X72839036Y39306178D01*
X72795309Y39245994D01*
X72737218Y39166039D01*
X72734674Y39161886D01*
X72734208Y39162172D01*
X72714893Y39135592D01*
X72639956Y39060654D01*
X72510025Y38875092D01*
X72455448Y38831467D01*
X72385950Y38824273D01*
X72323595Y38855796D01*
X72306875Y38875092D01*
X72176946Y39060650D01*
X72150462Y39087134D01*
X72102007Y39135589D01*
X72082698Y39162169D01*
X72082230Y39161881D01*
X72079685Y39166034D01*
X72073862Y39174048D01*
X71977864Y39306178D01*
X71855378Y39428664D01*
X71715238Y39530482D01*
X71560895Y39609123D01*
X71396151Y39662652D01*
X71396149Y39662653D01*
X71396148Y39662653D01*
X71264721Y39683469D01*
X71225061Y39689750D01*
X71051839Y39689750D01*
X71012178Y39683469D01*
X70880752Y39662653D01*
X70716002Y39609122D01*
X70561661Y39530482D01*
X70496375Y39483048D01*
X70421522Y39428664D01*
X70421520Y39428662D01*
X70421519Y39428662D01*
X70299038Y39306181D01*
X70299038Y39306180D01*
X70299036Y39306178D01*
X70255309Y39245994D01*
X70197218Y39166039D01*
X70194674Y39161886D01*
X70194208Y39162172D01*
X70174893Y39135592D01*
X70099958Y39060656D01*
X69969719Y38874655D01*
X69915142Y38831031D01*
X69845643Y38823838D01*
X69783289Y38855360D01*
X69766569Y38874656D01*
X69636563Y39060324D01*
X69636558Y39060330D01*
X69561598Y39135290D01*
X69542261Y39161906D01*
X69541799Y39161622D01*
X69539259Y39165766D01*
X69437482Y39305853D01*
X69315052Y39428283D01*
X69174974Y39530055D01*
X69020707Y39608659D01*
X68856039Y39662163D01*
X68856031Y39662165D01*
X68848450Y39663366D01*
X68848450Y38622262D01*
X68791443Y38655175D01*
X68664276Y38689250D01*
X68532624Y38689250D01*
X68405457Y38655175D01*
X68348450Y38622262D01*
X68348450Y39663366D01*
X68348449Y39663366D01*
X68340868Y39662165D01*
X68340860Y39662163D01*
X68176192Y39608659D01*
X68021925Y39530055D01*
X67881847Y39428283D01*
X67759417Y39305853D01*
X67657648Y39165777D01*
X67655102Y39161623D01*
X67654642Y39161905D01*
X67635303Y39135294D01*
X67560343Y39060333D01*
X67430330Y38874655D01*
X67375753Y38831031D01*
X67306254Y38823838D01*
X67243900Y38855360D01*
X67227180Y38874656D01*
X67096946Y39060650D01*
X67070462Y39087134D01*
X67022007Y39135589D01*
X67002698Y39162169D01*
X67002230Y39161881D01*
X66999685Y39166034D01*
X66993862Y39174048D01*
X66897864Y39306178D01*
X66775378Y39428664D01*
X66635238Y39530482D01*
X66480895Y39609123D01*
X66316151Y39662652D01*
X66316149Y39662653D01*
X66316148Y39662653D01*
X66184721Y39683469D01*
X66145061Y39689750D01*
X65971839Y39689750D01*
X65932178Y39683469D01*
X65800752Y39662653D01*
X65636002Y39609122D01*
X65481661Y39530482D01*
X65416375Y39483048D01*
X65341522Y39428664D01*
X65341520Y39428662D01*
X65341519Y39428662D01*
X65219038Y39306181D01*
X65219038Y39306180D01*
X65219036Y39306178D01*
X65175309Y39245994D01*
X65117218Y39166039D01*
X65114674Y39161886D01*
X65114208Y39162172D01*
X65094893Y39135592D01*
X65019956Y39060654D01*
X64890025Y38875092D01*
X64835448Y38831467D01*
X64765950Y38824273D01*
X64703595Y38855796D01*
X64686875Y38875092D01*
X64556946Y39060650D01*
X64530462Y39087134D01*
X64482007Y39135589D01*
X64462698Y39162169D01*
X64462230Y39161881D01*
X64459685Y39166034D01*
X64453862Y39174048D01*
X64357864Y39306178D01*
X64235378Y39428664D01*
X64095238Y39530482D01*
X63940895Y39609123D01*
X63776151Y39662652D01*
X63776149Y39662653D01*
X63776148Y39662653D01*
X63644721Y39683469D01*
X63605061Y39689750D01*
X63431839Y39689750D01*
X63392178Y39683469D01*
X63260752Y39662653D01*
X63096002Y39609122D01*
X62941661Y39530482D01*
X62876375Y39483048D01*
X62801522Y39428664D01*
X62801520Y39428662D01*
X62801519Y39428662D01*
X62679038Y39306181D01*
X62679038Y39306180D01*
X62679036Y39306178D01*
X62635309Y39245994D01*
X62577218Y39166039D01*
X62574674Y39161886D01*
X62574208Y39162172D01*
X62554893Y39135592D01*
X62479956Y39060654D01*
X62350025Y38875092D01*
X62295448Y38831467D01*
X62225950Y38824273D01*
X62163595Y38855796D01*
X62146875Y38875092D01*
X62016946Y39060650D01*
X61990462Y39087134D01*
X61942007Y39135589D01*
X61922698Y39162169D01*
X61922230Y39161881D01*
X61919685Y39166034D01*
X61913862Y39174048D01*
X61817864Y39306178D01*
X61695378Y39428664D01*
X61555238Y39530482D01*
X61400895Y39609123D01*
X61236151Y39662652D01*
X61236149Y39662653D01*
X61236148Y39662653D01*
X61104721Y39683469D01*
X61065061Y39689750D01*
X60891839Y39689750D01*
X60852178Y39683469D01*
X60720752Y39662653D01*
X60556002Y39609122D01*
X60401661Y39530482D01*
X60336375Y39483048D01*
X60261522Y39428664D01*
X60261520Y39428662D01*
X60261519Y39428662D01*
X60139038Y39306181D01*
X60139038Y39306180D01*
X60139036Y39306178D01*
X60095309Y39245994D01*
X60037218Y39166039D01*
X60034674Y39161886D01*
X60034208Y39162172D01*
X60014893Y39135592D01*
X59939956Y39060654D01*
X59810025Y38875092D01*
X59755448Y38831467D01*
X59685950Y38824273D01*
X59623595Y38855796D01*
X59606875Y38875092D01*
X59476946Y39060650D01*
X59450462Y39087134D01*
X59402007Y39135589D01*
X59382698Y39162169D01*
X59382230Y39161881D01*
X59379685Y39166034D01*
X59373862Y39174048D01*
X59277864Y39306178D01*
X59155378Y39428664D01*
X59015238Y39530482D01*
X58860895Y39609123D01*
X58696151Y39662652D01*
X58696149Y39662653D01*
X58696148Y39662653D01*
X58564721Y39683469D01*
X58525061Y39689750D01*
X58351839Y39689750D01*
X58312178Y39683469D01*
X58180752Y39662653D01*
X58016002Y39609122D01*
X57861661Y39530482D01*
X57796375Y39483048D01*
X57721522Y39428664D01*
X57721520Y39428662D01*
X57721519Y39428662D01*
X57599038Y39306181D01*
X57599038Y39306180D01*
X57599036Y39306178D01*
X57555309Y39245994D01*
X57497218Y39166039D01*
X57494674Y39161886D01*
X57494208Y39162172D01*
X57474893Y39135592D01*
X57399956Y39060654D01*
X57270025Y38875092D01*
X57215448Y38831467D01*
X57145950Y38824273D01*
X57083595Y38855796D01*
X57066875Y38875092D01*
X56936946Y39060650D01*
X56910462Y39087134D01*
X56862007Y39135589D01*
X56842698Y39162169D01*
X56842230Y39161881D01*
X56839685Y39166034D01*
X56833862Y39174048D01*
X56737864Y39306178D01*
X56615378Y39428664D01*
X56475238Y39530482D01*
X56320895Y39609123D01*
X56156151Y39662652D01*
X56156149Y39662653D01*
X56156148Y39662653D01*
X56024721Y39683469D01*
X55985061Y39689750D01*
X55811839Y39689750D01*
X55772178Y39683469D01*
X55640752Y39662653D01*
X55476002Y39609122D01*
X55321661Y39530482D01*
X55256375Y39483048D01*
X55181522Y39428664D01*
X55181520Y39428662D01*
X55181519Y39428662D01*
X55059038Y39306181D01*
X55059038Y39306180D01*
X55059036Y39306178D01*
X55015309Y39245994D01*
X54957218Y39166039D01*
X54954674Y39161886D01*
X54954208Y39162172D01*
X54934893Y39135592D01*
X54859956Y39060654D01*
X54730025Y38875092D01*
X54675448Y38831467D01*
X54605950Y38824273D01*
X54543595Y38855796D01*
X54526875Y38875092D01*
X54396946Y39060650D01*
X54370462Y39087134D01*
X54322007Y39135589D01*
X54302698Y39162169D01*
X54302230Y39161881D01*
X54299685Y39166034D01*
X54293862Y39174048D01*
X54197864Y39306178D01*
X54075378Y39428664D01*
X53935238Y39530482D01*
X53780895Y39609123D01*
X53616151Y39662652D01*
X53616149Y39662653D01*
X53616148Y39662653D01*
X53484721Y39683469D01*
X53445061Y39689750D01*
X53271839Y39689750D01*
X53232178Y39683469D01*
X53100752Y39662653D01*
X52936002Y39609122D01*
X52781661Y39530482D01*
X52716375Y39483048D01*
X52641522Y39428664D01*
X52641520Y39428662D01*
X52641519Y39428662D01*
X52519038Y39306181D01*
X52519038Y39306180D01*
X52519036Y39306178D01*
X52475309Y39245994D01*
X52417218Y39166039D01*
X52414674Y39161886D01*
X52414208Y39162172D01*
X52394893Y39135592D01*
X52319956Y39060654D01*
X52190025Y38875092D01*
X52135448Y38831467D01*
X52065950Y38824273D01*
X52003595Y38855796D01*
X51986875Y38875092D01*
X51856946Y39060650D01*
X51830462Y39087134D01*
X51782007Y39135589D01*
X51762698Y39162169D01*
X51762230Y39161881D01*
X51759685Y39166034D01*
X51753862Y39174048D01*
X51657864Y39306178D01*
X51535378Y39428664D01*
X51395238Y39530482D01*
X51240895Y39609123D01*
X51076151Y39662652D01*
X51076149Y39662653D01*
X51076148Y39662653D01*
X50944721Y39683469D01*
X50905061Y39689750D01*
X50731839Y39689750D01*
X50692178Y39683469D01*
X50560752Y39662653D01*
X50396002Y39609122D01*
X50241661Y39530482D01*
X50176375Y39483048D01*
X50101522Y39428664D01*
X50101520Y39428662D01*
X50101519Y39428662D01*
X49979038Y39306181D01*
X49979038Y39306180D01*
X49979036Y39306178D01*
X49935309Y39245994D01*
X49877218Y39166039D01*
X49874674Y39161886D01*
X49874208Y39162172D01*
X49854893Y39135592D01*
X49779956Y39060654D01*
X49650025Y38875092D01*
X49595448Y38831467D01*
X49525950Y38824273D01*
X49463595Y38855796D01*
X49446875Y38875092D01*
X49316946Y39060650D01*
X49290462Y39087134D01*
X49242007Y39135589D01*
X49222698Y39162169D01*
X49222230Y39161881D01*
X49219685Y39166034D01*
X49213862Y39174048D01*
X49117864Y39306178D01*
X48995378Y39428664D01*
X48855238Y39530482D01*
X48700895Y39609123D01*
X48536151Y39662652D01*
X48536149Y39662653D01*
X48536148Y39662653D01*
X48404721Y39683469D01*
X48365061Y39689750D01*
X48191839Y39689750D01*
X48152178Y39683469D01*
X48020752Y39662653D01*
X47856002Y39609122D01*
X47701661Y39530482D01*
X47636375Y39483048D01*
X47561522Y39428664D01*
X47561520Y39428662D01*
X47561519Y39428662D01*
X47439038Y39306181D01*
X47439038Y39306180D01*
X47439036Y39306178D01*
X47395309Y39245994D01*
X47337218Y39166039D01*
X47334674Y39161886D01*
X47334208Y39162172D01*
X47314893Y39135592D01*
X47239956Y39060654D01*
X47110025Y38875092D01*
X47055448Y38831467D01*
X46985950Y38824273D01*
X46923595Y38855796D01*
X46906875Y38875092D01*
X46776946Y39060650D01*
X46750462Y39087134D01*
X46702007Y39135589D01*
X46682698Y39162169D01*
X46682230Y39161881D01*
X46679685Y39166034D01*
X46673862Y39174048D01*
X46577864Y39306178D01*
X46455378Y39428664D01*
X46315238Y39530482D01*
X46160895Y39609123D01*
X45996151Y39662652D01*
X45996149Y39662653D01*
X45996148Y39662653D01*
X45864721Y39683469D01*
X45825061Y39689750D01*
X45651839Y39689750D01*
X45612178Y39683469D01*
X45480752Y39662653D01*
X45316002Y39609122D01*
X45161661Y39530482D01*
X45096375Y39483048D01*
X45021522Y39428664D01*
X45021520Y39428662D01*
X45021519Y39428662D01*
X44899038Y39306181D01*
X44899038Y39306180D01*
X44899036Y39306178D01*
X44855309Y39245994D01*
X44797218Y39166039D01*
X44794674Y39161886D01*
X44794208Y39162172D01*
X44774893Y39135592D01*
X44699956Y39060654D01*
X44570025Y38875092D01*
X44515448Y38831467D01*
X44445950Y38824273D01*
X44383595Y38855796D01*
X44366875Y38875092D01*
X44236946Y39060650D01*
X44210462Y39087134D01*
X44162007Y39135589D01*
X44142698Y39162169D01*
X44142230Y39161881D01*
X44139685Y39166034D01*
X44133862Y39174048D01*
X44037864Y39306178D01*
X43915378Y39428664D01*
X43775238Y39530482D01*
X43620895Y39609123D01*
X43456151Y39662652D01*
X43456149Y39662653D01*
X43456148Y39662653D01*
X43324721Y39683469D01*
X43285061Y39689750D01*
X43111839Y39689750D01*
X43072178Y39683469D01*
X42940752Y39662653D01*
X42776002Y39609122D01*
X42621661Y39530482D01*
X42556375Y39483048D01*
X42481522Y39428664D01*
X42481520Y39428662D01*
X42481519Y39428662D01*
X42359038Y39306181D01*
X42359038Y39306180D01*
X42359036Y39306178D01*
X42315309Y39245994D01*
X42257218Y39166039D01*
X42254674Y39161886D01*
X42254208Y39162172D01*
X42234893Y39135592D01*
X42159956Y39060654D01*
X42030025Y38875092D01*
X41975448Y38831467D01*
X41905950Y38824273D01*
X41843595Y38855796D01*
X41826875Y38875092D01*
X41696946Y39060650D01*
X41670462Y39087134D01*
X41631375Y39126221D01*
X41608572Y39157608D01*
X41606248Y39162169D01*
X41602402Y39169718D01*
X41500584Y39309858D01*
X41378098Y39432344D01*
X41237958Y39534162D01*
X41090839Y39609122D01*
X41083617Y39612802D01*
X41083616Y39612803D01*
X41083615Y39612803D01*
X40918871Y39666332D01*
X40918869Y39666333D01*
X40918868Y39666333D01*
X40787441Y39687149D01*
X40747781Y39693430D01*
X40574559Y39693430D01*
X40534898Y39687149D01*
X40403472Y39666333D01*
X40238722Y39612802D01*
X40084381Y39534162D01*
X40014030Y39483048D01*
X39944242Y39432344D01*
X39944240Y39432342D01*
X39944239Y39432342D01*
X39821758Y39309861D01*
X39821758Y39309860D01*
X39821756Y39309858D01*
X39801210Y39281579D01*
X39719936Y39169716D01*
X39719932Y39169709D01*
X39719410Y39168684D01*
X39718735Y39167756D01*
X39717391Y39165562D01*
X39717218Y39165668D01*
X39696615Y39137314D01*
X39619956Y39060654D01*
X39490025Y38875092D01*
X39435448Y38831467D01*
X39365950Y38824273D01*
X39303595Y38855796D01*
X39286875Y38875092D01*
X39156946Y39060650D01*
X39130462Y39087134D01*
X39091375Y39126221D01*
X39068572Y39157608D01*
X39066248Y39162169D01*
X39062402Y39169718D01*
X38960584Y39309858D01*
X38838098Y39432344D01*
X38697958Y39534162D01*
X38550839Y39609122D01*
X38543617Y39612802D01*
X38543616Y39612803D01*
X38543615Y39612803D01*
X38378871Y39666332D01*
X38378869Y39666333D01*
X38378868Y39666333D01*
X38247441Y39687149D01*
X38207781Y39693430D01*
X38034559Y39693430D01*
X37994898Y39687149D01*
X37863472Y39666333D01*
X37698722Y39612802D01*
X37544381Y39534162D01*
X37474030Y39483048D01*
X37404242Y39432344D01*
X37404240Y39432342D01*
X37404239Y39432342D01*
X37281758Y39309861D01*
X37281758Y39309860D01*
X37281756Y39309858D01*
X37261210Y39281579D01*
X37179936Y39169716D01*
X37179932Y39169709D01*
X37179410Y39168684D01*
X37178735Y39167756D01*
X37177391Y39165562D01*
X37177218Y39165668D01*
X37156614Y39137313D01*
X37125122Y39105821D01*
X37063799Y39072336D01*
X36994107Y39077320D01*
X36938174Y39119192D01*
X36921259Y39150170D01*
X36872248Y39281577D01*
X36872243Y39281586D01*
X36785997Y39396795D01*
X36785994Y39396798D01*
X36670785Y39483044D01*
X36670778Y39483048D01*
X36535932Y39533342D01*
X36535933Y39533342D01*
X36476333Y39539749D01*
X36476331Y39539750D01*
X36476323Y39539750D01*
X36476314Y39539750D01*
X34680579Y39539750D01*
X34680573Y39539749D01*
X34620966Y39533342D01*
X34486121Y39483048D01*
X34486114Y39483044D01*
X34370905Y39396798D01*
X34370902Y39396795D01*
X34284656Y39281586D01*
X34284652Y39281579D01*
X34234358Y39146733D01*
X34227951Y39087134D01*
X34227950Y39087115D01*
X34227950Y37291380D01*
X34227951Y37291374D01*
X34234358Y37231767D01*
X34284652Y37096922D01*
X34284656Y37096915D01*
X34370902Y36981706D01*
X34370905Y36981703D01*
X34486114Y36895457D01*
X34486121Y36895453D01*
X34617532Y36846440D01*
X34673466Y36804569D01*
X34697883Y36739105D01*
X34683032Y36670832D01*
X34661880Y36642577D01*
X34539955Y36520653D01*
X34404415Y36327081D01*
X34404414Y36327079D01*
X34304548Y36112915D01*
X34304544Y36112906D01*
X34243388Y35884664D01*
X34243386Y35884654D01*
X34222791Y35649251D01*
X34222791Y35649250D01*
X34243386Y35413847D01*
X34243388Y35413837D01*
X34304544Y35185595D01*
X34304546Y35185591D01*
X34304547Y35185587D01*
X34384251Y35014662D01*
X34404415Y34971420D01*
X34404417Y34971416D01*
X34497092Y34839063D01*
X34539955Y34777849D01*
X34707049Y34610755D01*
X34803834Y34542985D01*
X34900615Y34475218D01*
X34900617Y34475217D01*
X34900620Y34475215D01*
X35114787Y34375347D01*
X35343042Y34314187D01*
X35531368Y34297711D01*
X35578449Y34293591D01*
X35578450Y34293591D01*
X35578451Y34293591D01*
X35617684Y34297024D01*
X35813858Y34314187D01*
X36042113Y34375347D01*
X36256280Y34475215D01*
X36449851Y34610755D01*
X36616945Y34777849D01*
X36746875Y34963408D01*
X36801452Y35007033D01*
X36870950Y35014227D01*
X36933305Y34982704D01*
X36950025Y34963408D01*
X37079950Y34777855D01*
X37079955Y34777849D01*
X37247049Y34610755D01*
X37343834Y34542985D01*
X37440615Y34475218D01*
X37440617Y34475217D01*
X37440620Y34475215D01*
X37654787Y34375347D01*
X37883042Y34314187D01*
X38071368Y34297711D01*
X38118449Y34293591D01*
X38118450Y34293591D01*
X38118451Y34293591D01*
X38157684Y34297024D01*
X38353858Y34314187D01*
X38582113Y34375347D01*
X38796280Y34475215D01*
X38989851Y34610755D01*
X39156945Y34777849D01*
X39286875Y34963408D01*
X39341452Y35007033D01*
X39410950Y35014227D01*
X39473305Y34982704D01*
X39490025Y34963408D01*
X39619950Y34777855D01*
X39619955Y34777849D01*
X39787049Y34610755D01*
X39883834Y34542985D01*
X39980615Y34475218D01*
X39980617Y34475217D01*
X39980620Y34475215D01*
X40194787Y34375347D01*
X40423042Y34314187D01*
X40611368Y34297711D01*
X40658449Y34293591D01*
X40658450Y34293591D01*
X40658451Y34293591D01*
X40697684Y34297024D01*
X40893858Y34314187D01*
X41122113Y34375347D01*
X41336280Y34475215D01*
X41529851Y34610755D01*
X41696945Y34777849D01*
X41826875Y34963408D01*
X41881452Y35007033D01*
X41950950Y35014227D01*
X42013305Y34982704D01*
X42030025Y34963408D01*
X42159950Y34777855D01*
X42159955Y34777849D01*
X42327049Y34610755D01*
X42423834Y34542985D01*
X42520615Y34475218D01*
X42520617Y34475217D01*
X42520620Y34475215D01*
X42734787Y34375347D01*
X42963042Y34314187D01*
X43151368Y34297711D01*
X43198449Y34293591D01*
X43198450Y34293591D01*
X43198451Y34293591D01*
X43237684Y34297024D01*
X43433858Y34314187D01*
X43662113Y34375347D01*
X43876280Y34475215D01*
X44069851Y34610755D01*
X44236945Y34777849D01*
X44366875Y34963408D01*
X44421452Y35007033D01*
X44490950Y35014227D01*
X44553305Y34982704D01*
X44570025Y34963408D01*
X44699950Y34777855D01*
X44699955Y34777849D01*
X44867049Y34610755D01*
X44963834Y34542985D01*
X45060615Y34475218D01*
X45060617Y34475217D01*
X45060620Y34475215D01*
X45274787Y34375347D01*
X45503042Y34314187D01*
X45691368Y34297711D01*
X45738449Y34293591D01*
X45738450Y34293591D01*
X45738451Y34293591D01*
X45777684Y34297024D01*
X45973858Y34314187D01*
X46202113Y34375347D01*
X46416280Y34475215D01*
X46609851Y34610755D01*
X46776945Y34777849D01*
X46906875Y34963408D01*
X46961452Y35007033D01*
X47030950Y35014227D01*
X47093305Y34982704D01*
X47110025Y34963408D01*
X47239950Y34777855D01*
X47239955Y34777849D01*
X47407049Y34610755D01*
X47503834Y34542985D01*
X47600615Y34475218D01*
X47600617Y34475217D01*
X47600620Y34475215D01*
X47814787Y34375347D01*
X48043042Y34314187D01*
X48231368Y34297711D01*
X48278449Y34293591D01*
X48278450Y34293591D01*
X48278451Y34293591D01*
X48317684Y34297024D01*
X48513858Y34314187D01*
X48742113Y34375347D01*
X48956280Y34475215D01*
X49149851Y34610755D01*
X49316945Y34777849D01*
X49446875Y34963408D01*
X49501452Y35007033D01*
X49570950Y35014227D01*
X49633305Y34982704D01*
X49650025Y34963408D01*
X49779950Y34777855D01*
X49779955Y34777849D01*
X49947049Y34610755D01*
X50043834Y34542985D01*
X50140615Y34475218D01*
X50140617Y34475217D01*
X50140620Y34475215D01*
X50354787Y34375347D01*
X50583042Y34314187D01*
X50771368Y34297711D01*
X50818449Y34293591D01*
X50818450Y34293591D01*
X50818451Y34293591D01*
X50857684Y34297024D01*
X51053858Y34314187D01*
X51282113Y34375347D01*
X51496280Y34475215D01*
X51689851Y34610755D01*
X51856945Y34777849D01*
X51986875Y34963408D01*
X52041452Y35007033D01*
X52110950Y35014227D01*
X52173305Y34982704D01*
X52190025Y34963408D01*
X52319950Y34777855D01*
X52319955Y34777849D01*
X52487049Y34610755D01*
X52583834Y34542985D01*
X52680615Y34475218D01*
X52680617Y34475217D01*
X52680620Y34475215D01*
X52894787Y34375347D01*
X53123042Y34314187D01*
X53311368Y34297711D01*
X53358449Y34293591D01*
X53358450Y34293591D01*
X53358451Y34293591D01*
X53397684Y34297024D01*
X53593858Y34314187D01*
X53822113Y34375347D01*
X54036280Y34475215D01*
X54229851Y34610755D01*
X54396945Y34777849D01*
X54526875Y34963408D01*
X54581452Y35007033D01*
X54650950Y35014227D01*
X54713305Y34982704D01*
X54730025Y34963408D01*
X54859950Y34777855D01*
X54859955Y34777849D01*
X55027049Y34610755D01*
X55123834Y34542985D01*
X55220615Y34475218D01*
X55220617Y34475217D01*
X55220620Y34475215D01*
X55434787Y34375347D01*
X55663042Y34314187D01*
X55851368Y34297711D01*
X55898449Y34293591D01*
X55898450Y34293591D01*
X55898451Y34293591D01*
X55937684Y34297024D01*
X56133858Y34314187D01*
X56362113Y34375347D01*
X56576280Y34475215D01*
X56769851Y34610755D01*
X56936945Y34777849D01*
X57066875Y34963408D01*
X57121452Y35007033D01*
X57190950Y35014227D01*
X57253305Y34982704D01*
X57270025Y34963408D01*
X57399950Y34777855D01*
X57399955Y34777849D01*
X57567049Y34610755D01*
X57663834Y34542985D01*
X57760615Y34475218D01*
X57760617Y34475217D01*
X57760620Y34475215D01*
X57974787Y34375347D01*
X58203042Y34314187D01*
X58391368Y34297711D01*
X58438449Y34293591D01*
X58438450Y34293591D01*
X58438451Y34293591D01*
X58477684Y34297024D01*
X58673858Y34314187D01*
X58902113Y34375347D01*
X59116280Y34475215D01*
X59309851Y34610755D01*
X59476945Y34777849D01*
X59606875Y34963408D01*
X59661452Y35007033D01*
X59730950Y35014227D01*
X59793305Y34982704D01*
X59810025Y34963408D01*
X59939950Y34777855D01*
X59939955Y34777849D01*
X60107049Y34610755D01*
X60203834Y34542985D01*
X60300615Y34475218D01*
X60300617Y34475217D01*
X60300620Y34475215D01*
X60514787Y34375347D01*
X60743042Y34314187D01*
X60931368Y34297711D01*
X60978449Y34293591D01*
X60978450Y34293591D01*
X60978451Y34293591D01*
X61017684Y34297024D01*
X61213858Y34314187D01*
X61442113Y34375347D01*
X61656280Y34475215D01*
X61849851Y34610755D01*
X62016945Y34777849D01*
X62146875Y34963408D01*
X62201452Y35007033D01*
X62270950Y35014227D01*
X62333305Y34982704D01*
X62350025Y34963408D01*
X62479950Y34777855D01*
X62479955Y34777849D01*
X62647049Y34610755D01*
X62743834Y34542985D01*
X62840615Y34475218D01*
X62840617Y34475217D01*
X62840620Y34475215D01*
X63054787Y34375347D01*
X63283042Y34314187D01*
X63471368Y34297711D01*
X63518449Y34293591D01*
X63518450Y34293591D01*
X63518451Y34293591D01*
X63557684Y34297024D01*
X63753858Y34314187D01*
X63982113Y34375347D01*
X64196280Y34475215D01*
X64389851Y34610755D01*
X64556945Y34777849D01*
X64686875Y34963408D01*
X64741452Y35007033D01*
X64810950Y35014227D01*
X64873305Y34982704D01*
X64890025Y34963408D01*
X65019950Y34777855D01*
X65019955Y34777849D01*
X65187049Y34610755D01*
X65283834Y34542985D01*
X65380615Y34475218D01*
X65380617Y34475217D01*
X65380620Y34475215D01*
X65594787Y34375347D01*
X65823042Y34314187D01*
X66011368Y34297711D01*
X66058449Y34293591D01*
X66058450Y34293591D01*
X66058451Y34293591D01*
X66097684Y34297024D01*
X66293858Y34314187D01*
X66522113Y34375347D01*
X66736280Y34475215D01*
X66929851Y34610755D01*
X67096945Y34777849D01*
X67227180Y34963845D01*
X67281757Y35007469D01*
X67351255Y35014663D01*
X67413610Y34983140D01*
X67430329Y34963845D01*
X67560340Y34778172D01*
X67727367Y34611145D01*
X67920871Y34475650D01*
X68134957Y34375821D01*
X68134966Y34375817D01*
X68348450Y34318616D01*
X68348450Y35216238D01*
X68405457Y35183325D01*
X68532624Y35149250D01*
X68664276Y35149250D01*
X68791443Y35183325D01*
X68848450Y35216238D01*
X68848450Y34318617D01*
X69061933Y34375817D01*
X69061942Y34375821D01*
X69276028Y34475650D01*
X69469532Y34611145D01*
X69636555Y34778168D01*
X69766569Y34963845D01*
X69821146Y35007469D01*
X69890645Y35014662D01*
X69952999Y34983140D01*
X69969719Y34963845D01*
X70099955Y34777849D01*
X70267049Y34610755D01*
X70363834Y34542985D01*
X70460615Y34475218D01*
X70460617Y34475217D01*
X70460620Y34475215D01*
X70674787Y34375347D01*
X70903042Y34314187D01*
X71091368Y34297711D01*
X71138449Y34293591D01*
X71138450Y34293591D01*
X71138451Y34293591D01*
X71177684Y34297024D01*
X71373858Y34314187D01*
X71602113Y34375347D01*
X71816280Y34475215D01*
X72009851Y34610755D01*
X72176945Y34777849D01*
X72306875Y34963408D01*
X72361452Y35007033D01*
X72430950Y35014227D01*
X72493305Y34982704D01*
X72510025Y34963408D01*
X72639950Y34777855D01*
X72639955Y34777849D01*
X72807049Y34610755D01*
X72903834Y34542985D01*
X73000615Y34475218D01*
X73000617Y34475217D01*
X73000620Y34475215D01*
X73214787Y34375347D01*
X73443042Y34314187D01*
X73631368Y34297711D01*
X73678449Y34293591D01*
X73678450Y34293591D01*
X73678451Y34293591D01*
X73717684Y34297024D01*
X73913858Y34314187D01*
X74142113Y34375347D01*
X74356280Y34475215D01*
X74549851Y34610755D01*
X74716945Y34777849D01*
X74846875Y34963408D01*
X74901452Y35007033D01*
X74970950Y35014227D01*
X75033305Y34982704D01*
X75050025Y34963408D01*
X75179950Y34777855D01*
X75179955Y34777849D01*
X75347049Y34610755D01*
X75443834Y34542985D01*
X75540615Y34475218D01*
X75540617Y34475217D01*
X75540620Y34475215D01*
X75754787Y34375347D01*
X75983042Y34314187D01*
X76171368Y34297711D01*
X76218449Y34293591D01*
X76218450Y34293591D01*
X76218451Y34293591D01*
X76257684Y34297024D01*
X76453858Y34314187D01*
X76682113Y34375347D01*
X76896280Y34475215D01*
X77089851Y34610755D01*
X77256945Y34777849D01*
X77386875Y34963408D01*
X77441452Y35007033D01*
X77510950Y35014227D01*
X77573305Y34982704D01*
X77590025Y34963408D01*
X77719950Y34777855D01*
X77719955Y34777849D01*
X77887049Y34610755D01*
X77983834Y34542985D01*
X78080615Y34475218D01*
X78080617Y34475217D01*
X78080620Y34475215D01*
X78294787Y34375347D01*
X78523042Y34314187D01*
X78711368Y34297711D01*
X78758449Y34293591D01*
X78758450Y34293591D01*
X78758451Y34293591D01*
X78797684Y34297024D01*
X78993858Y34314187D01*
X79222113Y34375347D01*
X79436280Y34475215D01*
X79629851Y34610755D01*
X79796945Y34777849D01*
X79926875Y34963408D01*
X79981452Y35007033D01*
X80050950Y35014227D01*
X80113305Y34982704D01*
X80130025Y34963408D01*
X80259950Y34777855D01*
X80259955Y34777849D01*
X80427049Y34610755D01*
X80523834Y34542985D01*
X80620615Y34475218D01*
X80620617Y34475217D01*
X80620620Y34475215D01*
X80834787Y34375347D01*
X81063042Y34314187D01*
X81251368Y34297711D01*
X81298449Y34293591D01*
X81298450Y34293591D01*
X81298451Y34293591D01*
X81337684Y34297024D01*
X81533858Y34314187D01*
X81762113Y34375347D01*
X81976280Y34475215D01*
X82169851Y34610755D01*
X82336945Y34777849D01*
X82467180Y34963845D01*
X82521757Y35007469D01*
X82591255Y35014663D01*
X82653610Y34983140D01*
X82670329Y34963845D01*
X82800340Y34778172D01*
X82967367Y34611145D01*
X83160872Y34475650D01*
X83160874Y34475649D01*
X83216841Y34449551D01*
X83269281Y34403379D01*
X83288433Y34336186D01*
X83268218Y34269305D01*
X83252119Y34249488D01*
X83162783Y34160151D01*
X82964099Y33961468D01*
X82902779Y33927984D01*
X82876420Y33925150D01*
X78163030Y33925150D01*
X78018042Y33896310D01*
X78018032Y33896307D01*
X77881461Y33839738D01*
X77881448Y33839731D01*
X77758534Y33757602D01*
X77758530Y33757599D01*
X62866778Y18865848D01*
X62805455Y18832363D01*
X62804879Y18832239D01*
X62739746Y18818394D01*
X62739742Y18818393D01*
X62566820Y18741402D01*
X62566815Y18741399D01*
X62413679Y18630139D01*
X62287016Y18489465D01*
X62192371Y18325535D01*
X62192368Y18325528D01*
X62139767Y18163638D01*
X62133876Y18145506D01*
X62114090Y17957250D01*
X62133876Y17768994D01*
X62133877Y17768991D01*
X62192368Y17588973D01*
X62192371Y17588966D01*
X62287017Y17425034D01*
X62361643Y17342154D01*
X62413679Y17284362D01*
X62566815Y17173102D01*
X62566820Y17173099D01*
X62739742Y17096108D01*
X62739747Y17096106D01*
X62924904Y17056750D01*
X62924905Y17056750D01*
X63114194Y17056750D01*
X63114196Y17056750D01*
X63299353Y17096106D01*
X63472280Y17173099D01*
X63625421Y17284362D01*
X63752083Y17425034D01*
X63846729Y17588966D01*
X63902072Y17759295D01*
X63932319Y17808653D01*
X78511498Y32387831D01*
X78572821Y32421316D01*
X78599179Y32424150D01*
X79761221Y32424150D01*
X79828260Y32404465D01*
X79874015Y32351661D01*
X79883959Y32282503D01*
X79854934Y32218947D01*
X79848902Y32212469D01*
X66140400Y18503970D01*
X66140394Y18503962D01*
X66091162Y18430282D01*
X66091163Y18430281D01*
X66058271Y18381054D01*
X66058264Y18381042D01*
X66001692Y18244464D01*
X66001690Y18244458D01*
X65972850Y18099471D01*
X65972850Y17916673D01*
X65956237Y17854673D01*
X65896171Y17750636D01*
X65842879Y17586619D01*
X65837676Y17570606D01*
X65817890Y17382350D01*
X65837676Y17194094D01*
X65837677Y17194091D01*
X65896168Y17014073D01*
X65896171Y17014066D01*
X65990817Y16850134D01*
X66069574Y16762666D01*
X66117479Y16709462D01*
X66270615Y16598202D01*
X66270620Y16598199D01*
X66443542Y16521208D01*
X66443547Y16521206D01*
X66628704Y16481850D01*
X66628705Y16481850D01*
X66817994Y16481850D01*
X66817996Y16481850D01*
X67003153Y16521206D01*
X67176080Y16598199D01*
X67329221Y16709462D01*
X67455883Y16850134D01*
X67550529Y17014066D01*
X67609024Y17194094D01*
X67628810Y17382350D01*
X67609024Y17570606D01*
X67564021Y17709108D01*
X67562027Y17778948D01*
X67594270Y17835104D01*
X80523925Y30764760D01*
X80585246Y30798243D01*
X80654938Y30793259D01*
X80710871Y30751387D01*
X80729535Y30715396D01*
X80778769Y30563870D01*
X80778771Y30563866D01*
X80873417Y30399934D01*
X80964573Y30298695D01*
X81000079Y30259262D01*
X81153215Y30148002D01*
X81153220Y30147999D01*
X81326142Y30071008D01*
X81326147Y30071006D01*
X81511304Y30031650D01*
X81511305Y30031650D01*
X81700594Y30031650D01*
X81700596Y30031650D01*
X81885753Y30071006D01*
X82058680Y30147999D01*
X82060726Y30149486D01*
X82072402Y30157968D01*
X82138208Y30181448D01*
X82145287Y30181650D01*
X85037870Y30181650D01*
X85135412Y30201054D01*
X85182863Y30210492D01*
X85319445Y30267066D01*
X85368679Y30299964D01*
X85442366Y30349198D01*
X92849902Y37756735D01*
X92901365Y37833756D01*
X92932034Y37879655D01*
X92970714Y37973037D01*
X92988609Y38016238D01*
X93017450Y38161233D01*
X93017450Y38309068D01*
X93017450Y53959522D01*
X93037135Y54026561D01*
X93053765Y54047199D01*
X93481629Y54475064D01*
X93542952Y54508548D01*
X93612644Y54503564D01*
X93668577Y54461692D01*
X93676692Y54449391D01*
X93694337Y54418829D01*
X93710950Y54356829D01*
X93710950Y37987481D01*
X93691265Y37920442D01*
X93674631Y37899800D01*
X74174178Y18399348D01*
X74112855Y18365863D01*
X74112279Y18365739D01*
X74047146Y18351894D01*
X74047142Y18351893D01*
X73874220Y18274902D01*
X73874215Y18274899D01*
X73721079Y18163639D01*
X73594416Y18022965D01*
X73499771Y17859035D01*
X73499768Y17859028D01*
X73451056Y17709107D01*
X73441276Y17679006D01*
X73421490Y17490750D01*
X73441276Y17302494D01*
X73441277Y17302491D01*
X73499768Y17122473D01*
X73499771Y17122466D01*
X73594417Y16958534D01*
X73692019Y16850136D01*
X73721079Y16817862D01*
X73874215Y16706602D01*
X73874220Y16706599D01*
X74047142Y16629608D01*
X74047147Y16629606D01*
X74232304Y16590250D01*
X74232305Y16590250D01*
X74421594Y16590250D01*
X74421596Y16590250D01*
X74606753Y16629606D01*
X74779680Y16706599D01*
X74932821Y16817862D01*
X75059483Y16958534D01*
X75154129Y17122466D01*
X75209472Y17292794D01*
X75239718Y17342152D01*
X94945371Y37047804D01*
X95006692Y37081287D01*
X95076384Y37076303D01*
X95132317Y37034431D01*
X95156734Y36968967D01*
X95157050Y36960121D01*
X95157050Y31112781D01*
X95137365Y31045742D01*
X95120731Y31025100D01*
X94231422Y30135792D01*
X94170099Y30102307D01*
X94132935Y30099945D01*
X94001153Y30111473D01*
X94001148Y30111473D01*
X93781087Y30092221D01*
X93781079Y30092220D01*
X93567704Y30035046D01*
X93567698Y30035043D01*
X93367490Y29941685D01*
X93367488Y29941684D01*
X93186527Y29814975D01*
X93030325Y29658773D01*
X92903616Y29477812D01*
X92903615Y29477810D01*
X92810257Y29277602D01*
X92810254Y29277596D01*
X92753080Y29064221D01*
X92753079Y29064213D01*
X92733827Y28844153D01*
X92733827Y28844148D01*
X92753079Y28624088D01*
X92753080Y28624080D01*
X92810254Y28410705D01*
X92810255Y28410703D01*
X92810256Y28410700D01*
X92843532Y28339339D01*
X92903616Y28210488D01*
X92903618Y28210484D01*
X93030320Y28029535D01*
X93030325Y28029529D01*
X93186528Y27873326D01*
X93186534Y27873321D01*
X93367483Y27746619D01*
X93367485Y27746618D01*
X93367488Y27746616D01*
X93567700Y27653256D01*
X93781082Y27596080D01*
X93938273Y27582328D01*
X94001148Y27576827D01*
X94001150Y27576827D01*
X94001152Y27576827D01*
X94057456Y27581753D01*
X94221218Y27596080D01*
X94434600Y27653256D01*
X94634812Y27746616D01*
X94815770Y27873324D01*
X94971976Y28029530D01*
X95098684Y28210488D01*
X95158768Y28339339D01*
X95204940Y28391779D01*
X95272133Y28410931D01*
X95339015Y28390715D01*
X95383532Y28339339D01*
X95443614Y28210492D01*
X95443618Y28210484D01*
X95570320Y28029535D01*
X95570325Y28029529D01*
X95726528Y27873326D01*
X95726534Y27873321D01*
X95907483Y27746619D01*
X95907485Y27746618D01*
X95907488Y27746616D01*
X96107700Y27653256D01*
X96321082Y27596080D01*
X96478273Y27582328D01*
X96541148Y27576827D01*
X96541150Y27576827D01*
X96541152Y27576827D01*
X96597456Y27581753D01*
X96761218Y27596080D01*
X96974600Y27653256D01*
X97174812Y27746616D01*
X97355770Y27873324D01*
X97511976Y28029530D01*
X97638684Y28210488D01*
X97698768Y28339339D01*
X97744940Y28391779D01*
X97812133Y28410931D01*
X97879015Y28390715D01*
X97923532Y28339339D01*
X97983614Y28210492D01*
X97983618Y28210484D01*
X98110320Y28029535D01*
X98110325Y28029529D01*
X98266528Y27873326D01*
X98266534Y27873321D01*
X98447483Y27746619D01*
X98447485Y27746618D01*
X98447488Y27746616D01*
X98647700Y27653256D01*
X98861082Y27596080D01*
X99018273Y27582328D01*
X99081148Y27576827D01*
X99081150Y27576827D01*
X99081152Y27576827D01*
X99137456Y27581753D01*
X99301218Y27596080D01*
X99444560Y27634489D01*
X99514405Y27632826D01*
X99572268Y27593664D01*
X99599773Y27529436D01*
X99600650Y27514714D01*
X99600650Y20316381D01*
X99580965Y20249342D01*
X99564331Y20228700D01*
X99311422Y19975792D01*
X99250099Y19942307D01*
X99212935Y19939945D01*
X99081153Y19951473D01*
X99081148Y19951473D01*
X98861087Y19932221D01*
X98861079Y19932220D01*
X98647704Y19875046D01*
X98647698Y19875043D01*
X98447490Y19781685D01*
X98447488Y19781684D01*
X98266527Y19654975D01*
X98110325Y19498773D01*
X97983616Y19317812D01*
X97983615Y19317810D01*
X97923532Y19188961D01*
X97877359Y19136522D01*
X97810166Y19117370D01*
X97743285Y19137586D01*
X97698768Y19188961D01*
X97638684Y19317810D01*
X97638683Y19317812D01*
X97511977Y19498769D01*
X97511973Y19498773D01*
X97355770Y19654976D01*
X97355766Y19654979D01*
X97355765Y19654980D01*
X97174816Y19781682D01*
X97174812Y19781684D01*
X97070584Y19830286D01*
X96974600Y19875044D01*
X96974597Y19875045D01*
X96974595Y19875046D01*
X96761220Y19932220D01*
X96761212Y19932221D01*
X96541152Y19951473D01*
X96541148Y19951473D01*
X96321087Y19932221D01*
X96321079Y19932220D01*
X96107704Y19875046D01*
X96107698Y19875043D01*
X95907490Y19781685D01*
X95907488Y19781684D01*
X95726527Y19654975D01*
X95570325Y19498773D01*
X95443616Y19317812D01*
X95443615Y19317810D01*
X95383532Y19188961D01*
X95337359Y19136522D01*
X95270166Y19117370D01*
X95203285Y19137586D01*
X95158768Y19188961D01*
X95098684Y19317810D01*
X95098683Y19317812D01*
X94971977Y19498769D01*
X94971973Y19498773D01*
X94815770Y19654976D01*
X94815766Y19654979D01*
X94815765Y19654980D01*
X94634816Y19781682D01*
X94634812Y19781684D01*
X94530584Y19830286D01*
X94434600Y19875044D01*
X94434597Y19875045D01*
X94434595Y19875046D01*
X94221220Y19932220D01*
X94221212Y19932221D01*
X94001152Y19951473D01*
X94001148Y19951473D01*
X93781087Y19932221D01*
X93781079Y19932220D01*
X93567704Y19875046D01*
X93567698Y19875043D01*
X93367490Y19781685D01*
X93367488Y19781684D01*
X93186527Y19654975D01*
X93030325Y19498773D01*
X92903616Y19317812D01*
X92903615Y19317810D01*
X92810257Y19117602D01*
X92810254Y19117596D01*
X92753080Y18904221D01*
X92753079Y18904213D01*
X92733827Y18684153D01*
X92733827Y18684148D01*
X92753079Y18464088D01*
X92753080Y18464080D01*
X92810254Y18250705D01*
X92810258Y18250694D01*
X92852641Y18159803D01*
X92863133Y18090726D01*
X92834613Y18026942D01*
X92790695Y17994120D01*
X92613220Y17915102D01*
X92613215Y17915099D01*
X92460079Y17803839D01*
X92333416Y17663165D01*
X92238771Y17499235D01*
X92238768Y17499228D01*
X92180277Y17319210D01*
X92180276Y17319206D01*
X92160490Y17130950D01*
X92180276Y16942694D01*
X92180277Y16942691D01*
X92238768Y16762673D01*
X92238771Y16762666D01*
X92333417Y16598734D01*
X92438660Y16481850D01*
X92460079Y16458062D01*
X92613215Y16346802D01*
X92613220Y16346799D01*
X92786142Y16269808D01*
X92786147Y16269806D01*
X92971304Y16230450D01*
X92971305Y16230450D01*
X93160594Y16230450D01*
X93160596Y16230450D01*
X93345753Y16269806D01*
X93518680Y16346799D01*
X93520726Y16348286D01*
X93532402Y16356768D01*
X93598208Y16380248D01*
X93605287Y16380450D01*
X105221870Y16380450D01*
X105319412Y16399854D01*
X105366863Y16409292D01*
X105503445Y16465866D01*
X105552679Y16498764D01*
X105626366Y16547998D01*
X106470878Y17392512D01*
X106532199Y17425995D01*
X106569361Y17428357D01*
X106679952Y17418682D01*
X106701149Y17416827D01*
X106701150Y17416827D01*
X106701152Y17416827D01*
X106771755Y17423004D01*
X106921218Y17436080D01*
X107134600Y17493256D01*
X107334812Y17586616D01*
X107515770Y17713324D01*
X107671976Y17869530D01*
X107798684Y18050488D01*
X107858768Y18179339D01*
X107904940Y18231779D01*
X107972133Y18250931D01*
X108039015Y18230715D01*
X108083532Y18179339D01*
X108143614Y18050492D01*
X108143618Y18050484D01*
X108270320Y17869535D01*
X108270325Y17869529D01*
X108426528Y17713326D01*
X108426534Y17713321D01*
X108607483Y17586619D01*
X108607485Y17586618D01*
X108607488Y17586616D01*
X108807700Y17493256D01*
X109021082Y17436080D01*
X109170545Y17423004D01*
X109241148Y17416827D01*
X109241150Y17416827D01*
X109241152Y17416827D01*
X109311755Y17423004D01*
X109461218Y17436080D01*
X109674600Y17493256D01*
X109874812Y17586616D01*
X110055770Y17713324D01*
X110211976Y17869530D01*
X110338684Y18050488D01*
X110398768Y18179339D01*
X110444940Y18231779D01*
X110512133Y18250931D01*
X110579015Y18230715D01*
X110623532Y18179339D01*
X110683614Y18050492D01*
X110683618Y18050484D01*
X110810320Y17869535D01*
X110810325Y17869529D01*
X110966528Y17713326D01*
X110966534Y17713321D01*
X111147483Y17586619D01*
X111147485Y17586618D01*
X111147488Y17586616D01*
X111347700Y17493256D01*
X111561082Y17436080D01*
X111710552Y17423004D01*
X111775620Y17397552D01*
X111816598Y17340961D01*
X111820477Y17271199D01*
X111787425Y17211795D01*
X107836801Y13261169D01*
X107775478Y13227684D01*
X107749120Y13224850D01*
X92238626Y13224850D01*
X92209792Y13219116D01*
X92209793Y13219115D01*
X92093643Y13196011D01*
X92093633Y13196008D01*
X92013631Y13162871D01*
X92013632Y13162870D01*
X91957052Y13139433D01*
X91907819Y13106537D01*
X91834138Y13057306D01*
X91834130Y13057300D01*
X90441912Y11665082D01*
X90380589Y11631597D01*
X90333822Y11630454D01*
X90205599Y11651850D01*
X89973501Y11651850D01*
X89932146Y11644949D01*
X89744565Y11613648D01*
X89525054Y11538289D01*
X89525045Y11538286D01*
X89320921Y11427819D01*
X89320915Y11427815D01*
X89137772Y11285269D01*
X89137765Y11285263D01*
X89129034Y11275778D01*
X89069145Y11239789D01*
X88999307Y11241892D01*
X88941693Y11281418D01*
X88921625Y11316432D01*
X88892905Y11393435D01*
X88892900Y11393444D01*
X88806740Y11508538D01*
X88806737Y11508541D01*
X88691643Y11594701D01*
X88691636Y11594705D01*
X88556929Y11644947D01*
X88556922Y11644949D01*
X88497394Y11651350D01*
X87799550Y11651350D01*
X87799550Y10626628D01*
X87723244Y10670683D01*
X87608794Y10701350D01*
X87490306Y10701350D01*
X87375856Y10670683D01*
X87299550Y10626628D01*
X87299550Y11651350D01*
X86601705Y11651350D01*
X86542177Y11644949D01*
X86542170Y11644947D01*
X86407463Y11594705D01*
X86407456Y11594701D01*
X86292362Y11508541D01*
X86292359Y11508538D01*
X86206199Y11393444D01*
X86206195Y11393437D01*
X86155953Y11258730D01*
X86155951Y11258723D01*
X86149550Y11199195D01*
X86149550Y10501350D01*
X87174272Y10501350D01*
X87130217Y10425044D01*
X87099550Y10310594D01*
X87099550Y10192106D01*
X87130217Y10077656D01*
X87174272Y10001350D01*
X86149550Y10001350D01*
X86149550Y9303506D01*
X86155951Y9243978D01*
X86155953Y9243971D01*
X86206195Y9109264D01*
X86206199Y9109257D01*
X86292359Y8994163D01*
X86292362Y8994160D01*
X86407456Y8908000D01*
X86407463Y8907996D01*
X86542170Y8857754D01*
X86542177Y8857752D01*
X86601705Y8851351D01*
X86601722Y8851350D01*
X87299550Y8851350D01*
X87299550Y9876073D01*
X87375856Y9832017D01*
X87490306Y9801350D01*
X87608794Y9801350D01*
X87723244Y9832017D01*
X87799550Y9876073D01*
X87799550Y8851350D01*
X88497378Y8851350D01*
X88497394Y8851351D01*
X88556922Y8857752D01*
X88556929Y8857754D01*
X88691636Y8907996D01*
X88691643Y8908000D01*
X88806737Y8994160D01*
X88806740Y8994163D01*
X88892900Y9109257D01*
X88892905Y9109266D01*
X88921625Y9186269D01*
X88963495Y9242203D01*
X89028959Y9266621D01*
X89097232Y9251770D01*
X89129034Y9226922D01*
X89137766Y9217437D01*
X89137769Y9217435D01*
X89137772Y9217432D01*
X89320915Y9074886D01*
X89320921Y9074882D01*
X89320924Y9074880D01*
X89525047Y8964414D01*
X89639037Y8925282D01*
X89744565Y8889053D01*
X89744567Y8889053D01*
X89744569Y8889052D01*
X89973501Y8850850D01*
X89973502Y8850850D01*
X90205598Y8850850D01*
X90205599Y8850850D01*
X90434531Y8889052D01*
X90654053Y8964414D01*
X90858176Y9074880D01*
X91041334Y9217437D01*
X91198529Y9388197D01*
X91325474Y9582501D01*
X91418707Y9795050D01*
X91475684Y10020045D01*
X91485324Y10136380D01*
X91494850Y10251344D01*
X91494850Y10251357D01*
X91475685Y10482642D01*
X91475684Y10482655D01*
X91474096Y10488926D01*
X91476716Y10558743D01*
X91506616Y10607050D01*
X92587099Y11687531D01*
X92648422Y11721016D01*
X92674780Y11723850D01*
X98908310Y11723850D01*
X98975349Y11704165D01*
X99021104Y11651361D01*
X99031048Y11582203D01*
X99002023Y11518647D01*
X98995991Y11512169D01*
X98992359Y11508538D01*
X98906199Y11393444D01*
X98906195Y11393437D01*
X98855953Y11258730D01*
X98855951Y11258723D01*
X98849550Y11199195D01*
X98849550Y10501350D01*
X99874272Y10501350D01*
X99830217Y10425044D01*
X99799550Y10310594D01*
X99799550Y10192106D01*
X99830217Y10077656D01*
X99874272Y10001350D01*
X98849550Y10001350D01*
X98849550Y9303506D01*
X98855951Y9243978D01*
X98855953Y9243971D01*
X98906195Y9109264D01*
X98906199Y9109257D01*
X98992359Y8994163D01*
X98992362Y8994160D01*
X99107456Y8908000D01*
X99107463Y8907996D01*
X99242170Y8857754D01*
X99242177Y8857752D01*
X99301705Y8851351D01*
X99301722Y8851350D01*
X99999550Y8851350D01*
X99999550Y9876073D01*
X100075856Y9832017D01*
X100190306Y9801350D01*
X100308794Y9801350D01*
X100423244Y9832017D01*
X100499550Y9876073D01*
X100499550Y8851350D01*
X101197378Y8851350D01*
X101197394Y8851351D01*
X101256922Y8857752D01*
X101256929Y8857754D01*
X101391636Y8907996D01*
X101391643Y8908000D01*
X101506737Y8994160D01*
X101506740Y8994163D01*
X101592900Y9109257D01*
X101592905Y9109266D01*
X101621625Y9186269D01*
X101663495Y9242203D01*
X101728959Y9266621D01*
X101797232Y9251770D01*
X101829034Y9226922D01*
X101837766Y9217437D01*
X101837769Y9217435D01*
X101837772Y9217432D01*
X102020915Y9074886D01*
X102020921Y9074882D01*
X102020924Y9074880D01*
X102225047Y8964414D01*
X102339037Y8925282D01*
X102444565Y8889053D01*
X102444567Y8889053D01*
X102444569Y8889052D01*
X102673501Y8850850D01*
X102673502Y8850850D01*
X102905598Y8850850D01*
X102905599Y8850850D01*
X103134531Y8889052D01*
X103354053Y8964414D01*
X103558176Y9074880D01*
X103741334Y9217437D01*
X103898529Y9388197D01*
X103905464Y9398813D01*
X103935427Y9444672D01*
X103988573Y9490028D01*
X104039235Y9500850D01*
X108045070Y9500850D01*
X108142612Y9520254D01*
X108190063Y9529692D01*
X108326645Y9586266D01*
X108375879Y9619164D01*
X108449566Y9668398D01*
X122604569Y23823401D01*
X122665892Y23856886D01*
X122735584Y23851902D01*
X122791517Y23810030D01*
X122815934Y23744566D01*
X122816250Y23735720D01*
X122816250Y18690781D01*
X122796565Y18623742D01*
X122779931Y18603100D01*
X115841912Y11665082D01*
X115780589Y11631597D01*
X115733822Y11630454D01*
X115605599Y11651850D01*
X115373501Y11651850D01*
X115332146Y11644949D01*
X115144565Y11613648D01*
X114925054Y11538289D01*
X114925045Y11538286D01*
X114720921Y11427819D01*
X114720915Y11427815D01*
X114537772Y11285269D01*
X114537765Y11285263D01*
X114529034Y11275778D01*
X114469145Y11239789D01*
X114399307Y11241892D01*
X114341693Y11281418D01*
X114321625Y11316432D01*
X114292905Y11393435D01*
X114292900Y11393444D01*
X114206740Y11508538D01*
X114206737Y11508541D01*
X114091643Y11594701D01*
X114091636Y11594705D01*
X113956929Y11644947D01*
X113956922Y11644949D01*
X113897394Y11651350D01*
X113199550Y11651350D01*
X113199550Y10626628D01*
X113123244Y10670683D01*
X113008794Y10701350D01*
X112890306Y10701350D01*
X112775856Y10670683D01*
X112699550Y10626628D01*
X112699550Y11651350D01*
X112001705Y11651350D01*
X111942177Y11644949D01*
X111942170Y11644947D01*
X111807463Y11594705D01*
X111807456Y11594701D01*
X111692362Y11508541D01*
X111692359Y11508538D01*
X111606199Y11393444D01*
X111606195Y11393437D01*
X111555953Y11258730D01*
X111555951Y11258723D01*
X111549550Y11199195D01*
X111549550Y10501350D01*
X112574272Y10501350D01*
X112530217Y10425044D01*
X112499550Y10310594D01*
X112499550Y10192106D01*
X112530217Y10077656D01*
X112574272Y10001350D01*
X111549550Y10001350D01*
X111549550Y9303506D01*
X111555951Y9243978D01*
X111555953Y9243971D01*
X111606195Y9109264D01*
X111606199Y9109257D01*
X111692359Y8994163D01*
X111692362Y8994160D01*
X111807456Y8908000D01*
X111807463Y8907996D01*
X111942170Y8857754D01*
X111942177Y8857752D01*
X112001705Y8851351D01*
X112001722Y8851350D01*
X112699550Y8851350D01*
X112699550Y9876073D01*
X112775856Y9832017D01*
X112890306Y9801350D01*
X113008794Y9801350D01*
X113123244Y9832017D01*
X113199550Y9876073D01*
X113199550Y8851350D01*
X113897378Y8851350D01*
X113897394Y8851351D01*
X113956922Y8857752D01*
X113956929Y8857754D01*
X114091636Y8907996D01*
X114091643Y8908000D01*
X114206737Y8994160D01*
X114206740Y8994163D01*
X114292900Y9109257D01*
X114292905Y9109266D01*
X114321625Y9186269D01*
X114363495Y9242203D01*
X114428959Y9266621D01*
X114497232Y9251770D01*
X114529034Y9226922D01*
X114537766Y9217437D01*
X114537769Y9217435D01*
X114537772Y9217432D01*
X114720915Y9074886D01*
X114720921Y9074882D01*
X114720924Y9074880D01*
X114925047Y8964414D01*
X115039037Y8925282D01*
X115144565Y8889053D01*
X115144567Y8889053D01*
X115144569Y8889052D01*
X115373501Y8850850D01*
X115373502Y8850850D01*
X115605598Y8850850D01*
X115605599Y8850850D01*
X115834531Y8889052D01*
X116054053Y8964414D01*
X116258176Y9074880D01*
X116441334Y9217437D01*
X116598529Y9388197D01*
X116725474Y9582501D01*
X116818707Y9795050D01*
X116847536Y9908892D01*
X123670650Y9908892D01*
X123670650Y9679409D01*
X123690362Y9529692D01*
X123700602Y9451912D01*
X123740367Y9303506D01*
X123759992Y9230263D01*
X123847800Y9018274D01*
X123847807Y9018260D01*
X123962542Y8819533D01*
X124102231Y8637489D01*
X124102239Y8637480D01*
X124264480Y8475239D01*
X124264488Y8475232D01*
X124446532Y8335543D01*
X124446535Y8335542D01*
X124446538Y8335539D01*
X124645262Y8220806D01*
X124645267Y8220804D01*
X124645273Y8220801D01*
X124736630Y8182960D01*
X124857263Y8132992D01*
X125078912Y8073602D01*
X125306416Y8043650D01*
X125306423Y8043650D01*
X125535877Y8043650D01*
X125535884Y8043650D01*
X125763388Y8073602D01*
X125985037Y8132992D01*
X126197038Y8220806D01*
X126395762Y8335539D01*
X126577811Y8475231D01*
X126577815Y8475236D01*
X126577820Y8475239D01*
X126740061Y8637480D01*
X126740064Y8637485D01*
X126740069Y8637489D01*
X126879761Y8819538D01*
X126994494Y9018262D01*
X127082308Y9230263D01*
X127141698Y9451912D01*
X127171650Y9679416D01*
X127171650Y9908884D01*
X127141698Y10136388D01*
X127082308Y10358037D01*
X127030688Y10482658D01*
X126994499Y10570027D01*
X126994496Y10570033D01*
X126994494Y10570038D01*
X126879761Y10768762D01*
X126879758Y10768765D01*
X126879757Y10768768D01*
X126778914Y10900188D01*
X126740069Y10950811D01*
X126740068Y10950812D01*
X126740061Y10950820D01*
X126577820Y11113061D01*
X126577811Y11113069D01*
X126395767Y11252758D01*
X126339461Y11285266D01*
X126197038Y11367494D01*
X126197026Y11367500D01*
X125985037Y11455308D01*
X125763388Y11514698D01*
X125725365Y11519704D01*
X125535891Y11544650D01*
X125535884Y11544650D01*
X125306416Y11544650D01*
X125306408Y11544650D01*
X125089865Y11516141D01*
X125078912Y11514698D01*
X124989704Y11490795D01*
X124857262Y11455308D01*
X124645273Y11367500D01*
X124645259Y11367493D01*
X124446532Y11252758D01*
X124264488Y11113069D01*
X124102231Y10950812D01*
X123962542Y10768768D01*
X123847807Y10570041D01*
X123847800Y10570027D01*
X123759992Y10358038D01*
X123731406Y10251350D01*
X123715532Y10192106D01*
X123700603Y10136391D01*
X123700601Y10136380D01*
X123670650Y9908892D01*
X116847536Y9908892D01*
X116875684Y10020045D01*
X116885324Y10136380D01*
X116894850Y10251344D01*
X116894850Y10251357D01*
X116875685Y10482642D01*
X116875684Y10482655D01*
X116874096Y10488926D01*
X116876716Y10558743D01*
X116906616Y10607050D01*
X124149702Y17850134D01*
X124194161Y17916673D01*
X124224774Y17962488D01*
X124224776Y17962493D01*
X124231834Y17973055D01*
X124288408Y18109637D01*
X124302273Y18179339D01*
X124317250Y18254630D01*
X124317250Y49909161D01*
X124326689Y49956614D01*
X124339208Y49986837D01*
X124368050Y50131832D01*
X124368050Y51879668D01*
X124368050Y51879671D01*
X124339209Y52024658D01*
X124339208Y52024659D01*
X124339208Y52024663D01*
X124282634Y52161245D01*
X124249736Y52210480D01*
X124249735Y52210482D01*
X124200506Y52284161D01*
X124200502Y52284166D01*
X109770365Y66714303D01*
X109770360Y66714307D01*
X109691449Y66767032D01*
X109691447Y66767033D01*
X109647450Y66796431D01*
X109647438Y66796438D01*
X109510867Y66853007D01*
X109510857Y66853010D01*
X109365870Y66881850D01*
X109365868Y66881850D01*
X108815287Y66881850D01*
X108748248Y66901535D01*
X108742402Y66905532D01*
X108728684Y66915499D01*
X108728679Y66915502D01*
X108555757Y66992493D01*
X108555752Y66992495D01*
X108409951Y67023485D01*
X108370596Y67031850D01*
X108181304Y67031850D01*
X108148847Y67024952D01*
X107996147Y66992495D01*
X107996142Y66992493D01*
X107823220Y66915502D01*
X107823215Y66915499D01*
X107670079Y66804239D01*
X107543416Y66663565D01*
X107448771Y66499635D01*
X107448768Y66499628D01*
X107428178Y66436257D01*
X107390276Y66319606D01*
X107370490Y66131350D01*
X107390276Y65943094D01*
X107390277Y65943091D01*
X107448768Y65763073D01*
X107448771Y65763066D01*
X107543417Y65599134D01*
X107665867Y65463140D01*
X107670079Y65458462D01*
X107823215Y65347202D01*
X107823220Y65347199D01*
X107996142Y65270208D01*
X107996147Y65270206D01*
X108181304Y65230850D01*
X108181305Y65230850D01*
X108370594Y65230850D01*
X108370596Y65230850D01*
X108555753Y65270206D01*
X108728680Y65347199D01*
X108730726Y65348686D01*
X108742402Y65357168D01*
X108808208Y65380648D01*
X108815287Y65380850D01*
X108929720Y65380850D01*
X108996759Y65361165D01*
X109017401Y65344531D01*
X122830731Y51531201D01*
X122864216Y51469878D01*
X122867050Y51443520D01*
X122867050Y50451539D01*
X122857611Y50404087D01*
X122845092Y50373865D01*
X122845090Y50373857D01*
X122816250Y50228871D01*
X122816250Y48735380D01*
X122796565Y48668341D01*
X122743761Y48622586D01*
X122674603Y48612642D01*
X122611047Y48641667D01*
X122604569Y48647699D01*
X106470867Y64781401D01*
X106447826Y64796796D01*
X106395766Y64831581D01*
X106395765Y64831582D01*
X106347951Y64863531D01*
X106347938Y64863538D01*
X106211367Y64920107D01*
X106211357Y64920110D01*
X106066370Y64948950D01*
X106066368Y64948950D01*
X105205687Y64948950D01*
X105138648Y64968635D01*
X105132802Y64972632D01*
X105119084Y64982599D01*
X105119079Y64982602D01*
X104946157Y65059593D01*
X104946152Y65059595D01*
X104797716Y65091145D01*
X104760996Y65098950D01*
X104571704Y65098950D01*
X104539247Y65092052D01*
X104386547Y65059595D01*
X104386542Y65059593D01*
X104213620Y64982602D01*
X104213615Y64982599D01*
X104060479Y64871339D01*
X103933816Y64730665D01*
X103839171Y64566735D01*
X103839168Y64566728D01*
X103780677Y64386710D01*
X103780676Y64386706D01*
X103760890Y64198450D01*
X103780676Y64010194D01*
X103780677Y64010191D01*
X103839168Y63830173D01*
X103839171Y63830166D01*
X103933817Y63666234D01*
X103943864Y63655076D01*
X104060479Y63525562D01*
X104213615Y63414302D01*
X104213620Y63414299D01*
X104386542Y63337308D01*
X104386547Y63337306D01*
X104571704Y63297950D01*
X104571705Y63297950D01*
X104760994Y63297950D01*
X104760996Y63297950D01*
X104946153Y63337306D01*
X105119080Y63414299D01*
X105121126Y63415786D01*
X105132802Y63424268D01*
X105198608Y63447748D01*
X105205687Y63447950D01*
X105630220Y63447950D01*
X105697259Y63428265D01*
X105717901Y63411631D01*
X106904924Y62224608D01*
X106938409Y62163285D01*
X106933425Y62093593D01*
X106891553Y62037660D01*
X106826089Y62013243D01*
X106793055Y62015309D01*
X106778770Y62018150D01*
X106778768Y62018150D01*
X104975780Y62018150D01*
X104908741Y62037835D01*
X104888099Y62054469D01*
X98368020Y68574548D01*
X98337771Y68623909D01*
X98290959Y68767981D01*
X98282431Y68794229D01*
X98282428Y68794235D01*
X98187783Y68958166D01*
X98061121Y69098838D01*
X98061120Y69098839D01*
X97907984Y69210099D01*
X97907979Y69210102D01*
X97735057Y69287093D01*
X97735052Y69287095D01*
X97589251Y69318085D01*
X97549896Y69326450D01*
X97360604Y69326450D01*
X97328147Y69319552D01*
X97175447Y69287095D01*
X97175442Y69287093D01*
X97002520Y69210102D01*
X97002515Y69210099D01*
X96908554Y69141832D01*
X96842747Y69118352D01*
X96774694Y69134178D01*
X96725999Y69184284D01*
X96712349Y69229184D01*
X96707124Y69278906D01*
X96648629Y69458934D01*
X96553983Y69622866D01*
X96427321Y69763538D01*
X96427320Y69763539D01*
X96274184Y69874799D01*
X96274179Y69874802D01*
X96101257Y69951793D01*
X96101252Y69951795D01*
X95955451Y69982785D01*
X95916096Y69991150D01*
X95726804Y69991150D01*
X95694347Y69984252D01*
X95541647Y69951795D01*
X95541642Y69951793D01*
X95368720Y69874802D01*
X95368715Y69874799D01*
X95215579Y69763539D01*
X95088916Y69622865D01*
X94994271Y69458935D01*
X94994268Y69458928D01*
X94938436Y69287094D01*
X94935776Y69278906D01*
X94915990Y69090650D01*
X94935776Y68902394D01*
X94935777Y68902391D01*
X94973381Y68786659D01*
X94979450Y68748341D01*
X94979450Y62804632D01*
X94979450Y62804630D01*
X94979449Y62804630D01*
X95008290Y62659643D01*
X95008293Y62659633D01*
X95064863Y62523060D01*
X95064864Y62523058D01*
X95092454Y62481767D01*
X95092455Y62481765D01*
X95146995Y62400136D01*
X95146999Y62400132D01*
X95933178Y61613955D01*
X95963428Y61564592D01*
X96018768Y61394273D01*
X96018771Y61394266D01*
X96113417Y61230334D01*
X96240079Y61089662D01*
X96393215Y60978402D01*
X96393217Y60978401D01*
X96393220Y60978399D01*
X96406854Y60972329D01*
X96460090Y60927078D01*
X96480411Y60860229D01*
X96461365Y60793005D01*
X96408998Y60746750D01*
X96356417Y60735050D01*
X88819574Y60735050D01*
X88752535Y60754735D01*
X88706780Y60807539D01*
X88696836Y60876697D01*
X88701643Y60897368D01*
X88717681Y60946731D01*
X88740024Y61015494D01*
X88759810Y61203750D01*
X88740024Y61392006D01*
X88681529Y61572034D01*
X88621463Y61676073D01*
X88604850Y61738073D01*
X88604850Y68366922D01*
X88624535Y68433961D01*
X88641164Y68454598D01*
X94971120Y74784555D01*
X95032441Y74818038D01*
X95032777Y74818111D01*
X95098153Y74832006D01*
X95271080Y74908999D01*
X95424221Y75020262D01*
X95550883Y75160934D01*
X95645529Y75324866D01*
X95704024Y75504894D01*
X95723810Y75693150D01*
X95704024Y75881406D01*
X95645529Y76061434D01*
X95550883Y76225366D01*
X95424221Y76366038D01*
X95424220Y76366039D01*
X95271084Y76477299D01*
X95271079Y76477302D01*
X95098157Y76554293D01*
X95098152Y76554295D01*
X94952351Y76585285D01*
X94912996Y76593650D01*
X94723704Y76593650D01*
X94691247Y76586752D01*
X94538547Y76554295D01*
X94538542Y76554293D01*
X94365620Y76477302D01*
X94365615Y76477299D01*
X94231835Y76380102D01*
X94166028Y76356622D01*
X94097975Y76372448D01*
X94049280Y76422554D01*
X94034950Y76480420D01*
X94034950Y76517994D01*
X93996502Y76711280D01*
X93996501Y76711281D01*
X93996501Y76711285D01*
X93945650Y76834051D01*
X93921085Y76893358D01*
X93921078Y76893371D01*
X93811589Y77057232D01*
X93811586Y77057236D01*
X93672235Y77196587D01*
X93672231Y77196590D01*
X93508370Y77306079D01*
X93508357Y77306086D01*
X93326289Y77381500D01*
X93326279Y77381503D01*
X93241668Y77398333D01*
X93179757Y77430718D01*
X93145183Y77491434D01*
X93148923Y77561203D01*
X93189790Y77617875D01*
X93254808Y77643457D01*
X93265860Y77643950D01*
X98943070Y77643950D01*
X99040612Y77663354D01*
X99088063Y77672792D01*
X99224645Y77729366D01*
X99273879Y77762264D01*
X99347566Y77811498D01*
X99848621Y78312556D01*
X99909941Y78346038D01*
X99910277Y78346111D01*
X99975653Y78360006D01*
X99976828Y78360529D01*
X99978085Y78360797D01*
X99981840Y78362016D01*
X99981968Y78361622D01*
X100027265Y78371250D01*
X117393113Y78371250D01*
X117460152Y78351565D01*
X117465998Y78347568D01*
X117479715Y78337602D01*
X117479720Y78337599D01*
X117652642Y78260608D01*
X117652647Y78260606D01*
X117837804Y78221250D01*
X117837805Y78221250D01*
X118027094Y78221250D01*
X118027096Y78221250D01*
X118212253Y78260606D01*
X118385180Y78337599D01*
X118538321Y78448862D01*
X118664983Y78589534D01*
X118759629Y78753466D01*
X118818124Y78933494D01*
X118837910Y79121750D01*
X118818124Y79310006D01*
X118759629Y79490034D01*
X118664983Y79653966D01*
X118538321Y79794638D01*
X118538320Y79794639D01*
X118385184Y79905899D01*
X118385179Y79905902D01*
X118212257Y79982893D01*
X118212252Y79982895D01*
X118066451Y80013885D01*
X118027096Y80022250D01*
X117837804Y80022250D01*
X117805347Y80015352D01*
X117652647Y79982895D01*
X117652642Y79982893D01*
X117479720Y79905902D01*
X117479715Y79905899D01*
X117465998Y79895932D01*
X117400192Y79872452D01*
X117393113Y79872250D01*
X100371999Y79872250D01*
X100304960Y79891935D01*
X100299114Y79895932D01*
X100148584Y80005299D01*
X100148579Y80005302D01*
X99975657Y80082293D01*
X99975652Y80082295D01*
X99829851Y80113285D01*
X99790496Y80121650D01*
X99601204Y80121650D01*
X99568747Y80114752D01*
X99416047Y80082295D01*
X99416042Y80082293D01*
X99243120Y80005302D01*
X99243115Y80005299D01*
X99089979Y79894039D01*
X98963316Y79753365D01*
X98868671Y79589435D01*
X98868668Y79589428D01*
X98813329Y79419111D01*
X98783079Y79369748D01*
X98594601Y79181269D01*
X98533278Y79147784D01*
X98506920Y79144950D01*
X97697654Y79144950D01*
X97630615Y79164635D01*
X97584860Y79217439D01*
X97574333Y79281911D01*
X97575210Y79290250D01*
X97555424Y79478506D01*
X97496929Y79658534D01*
X97402283Y79822466D01*
X97275621Y79963138D01*
X97275620Y79963139D01*
X97122484Y80074399D01*
X97122479Y80074402D01*
X96949557Y80151393D01*
X96949552Y80151395D01*
X96803751Y80182385D01*
X96764396Y80190750D01*
X96575104Y80190750D01*
X96542647Y80183852D01*
X96389947Y80151395D01*
X96389942Y80151393D01*
X96217020Y80074402D01*
X96217015Y80074399D01*
X96203298Y80064432D01*
X96137492Y80040952D01*
X96130413Y80040750D01*
X71525526Y80040750D01*
X71496692Y80035016D01*
X71496693Y80035015D01*
X71380542Y80011911D01*
X71380536Y80011909D01*
X71310490Y79982894D01*
X71243959Y79955336D01*
X71243946Y79955329D01*
X71194719Y79922437D01*
X71121038Y79873206D01*
X71121030Y79873200D01*
X58749950Y67502120D01*
X58688627Y67468635D01*
X58651462Y67466273D01*
X58438452Y67484909D01*
X58438449Y67484909D01*
X58203046Y67464314D01*
X58203036Y67464312D01*
X57974794Y67403156D01*
X57974785Y67403152D01*
X57760621Y67303286D01*
X57760619Y67303285D01*
X57567047Y67167745D01*
X57399955Y67000653D01*
X57270025Y66815092D01*
X57215448Y66771467D01*
X57145950Y66764273D01*
X57083595Y66795796D01*
X57066875Y66815092D01*
X56936944Y67000653D01*
X56769852Y67167744D01*
X56769845Y67167749D01*
X56576284Y67303283D01*
X56576280Y67303285D01*
X56576278Y67303286D01*
X56362113Y67403153D01*
X56362109Y67403154D01*
X56362105Y67403156D01*
X56133863Y67464312D01*
X56133853Y67464314D01*
X55898451Y67484909D01*
X55898449Y67484909D01*
X55663046Y67464314D01*
X55663036Y67464312D01*
X55434794Y67403156D01*
X55434785Y67403152D01*
X55220621Y67303286D01*
X55220619Y67303285D01*
X55027047Y67167745D01*
X54859955Y67000653D01*
X54730025Y66815092D01*
X54675448Y66771467D01*
X54605950Y66764273D01*
X54543595Y66795796D01*
X54526875Y66815092D01*
X54396944Y67000653D01*
X54229852Y67167744D01*
X54229845Y67167749D01*
X54036284Y67303283D01*
X54036280Y67303285D01*
X54036278Y67303286D01*
X53822113Y67403153D01*
X53822109Y67403154D01*
X53822105Y67403156D01*
X53593863Y67464312D01*
X53593853Y67464314D01*
X53358451Y67484909D01*
X53358449Y67484909D01*
X53123046Y67464314D01*
X53123036Y67464312D01*
X52894794Y67403156D01*
X52894785Y67403152D01*
X52680621Y67303286D01*
X52680619Y67303285D01*
X52487047Y67167745D01*
X52319958Y67000656D01*
X52189719Y66814655D01*
X52135142Y66771031D01*
X52065643Y66763838D01*
X52003289Y66795360D01*
X51986569Y66814656D01*
X51856563Y67000324D01*
X51856558Y67000330D01*
X51689532Y67167356D01*
X51496028Y67302851D01*
X51281942Y67402680D01*
X51281936Y67402683D01*
X51068450Y67459886D01*
X51068450Y66562262D01*
X51011443Y66595175D01*
X50884276Y66629250D01*
X50752624Y66629250D01*
X50625457Y66595175D01*
X50568450Y66562262D01*
X50568450Y67459886D01*
X50568449Y67459886D01*
X50354963Y67402683D01*
X50354957Y67402680D01*
X50140872Y67302851D01*
X50140870Y67302850D01*
X49947376Y67167364D01*
X49947370Y67167359D01*
X49780341Y67000330D01*
X49780340Y67000328D01*
X49650330Y66814655D01*
X49595753Y66771031D01*
X49526254Y66763838D01*
X49463900Y66795360D01*
X49447180Y66814656D01*
X49316944Y67000653D01*
X49149852Y67167744D01*
X49149845Y67167749D01*
X48956284Y67303283D01*
X48956280Y67303285D01*
X48956278Y67303286D01*
X48742113Y67403153D01*
X48742109Y67403154D01*
X48742105Y67403156D01*
X48513863Y67464312D01*
X48513853Y67464314D01*
X48278451Y67484909D01*
X48278449Y67484909D01*
X48043046Y67464314D01*
X48043036Y67464312D01*
X47814794Y67403156D01*
X47814785Y67403152D01*
X47600621Y67303286D01*
X47600619Y67303285D01*
X47407047Y67167745D01*
X47239955Y67000653D01*
X47110025Y66815092D01*
X47055448Y66771467D01*
X46985950Y66764273D01*
X46923595Y66795796D01*
X46906875Y66815092D01*
X46776944Y67000653D01*
X46609852Y67167744D01*
X46609845Y67167749D01*
X46416284Y67303283D01*
X46416280Y67303285D01*
X46416278Y67303286D01*
X46202113Y67403153D01*
X46202109Y67403154D01*
X46202105Y67403156D01*
X45973863Y67464312D01*
X45973853Y67464314D01*
X45738451Y67484909D01*
X45738449Y67484909D01*
X45503046Y67464314D01*
X45503036Y67464312D01*
X45274794Y67403156D01*
X45274785Y67403152D01*
X45060621Y67303286D01*
X45060619Y67303285D01*
X44867047Y67167745D01*
X44699955Y67000653D01*
X44570025Y66815092D01*
X44515448Y66771467D01*
X44445950Y66764273D01*
X44383595Y66795796D01*
X44366875Y66815092D01*
X44236944Y67000653D01*
X44069852Y67167744D01*
X44069845Y67167749D01*
X43876284Y67303283D01*
X43876280Y67303285D01*
X43876278Y67303286D01*
X43662113Y67403153D01*
X43662109Y67403154D01*
X43662105Y67403156D01*
X43433863Y67464312D01*
X43433853Y67464314D01*
X43198451Y67484909D01*
X43198449Y67484909D01*
X42963046Y67464314D01*
X42963036Y67464312D01*
X42734794Y67403156D01*
X42734785Y67403152D01*
X42520621Y67303286D01*
X42520619Y67303285D01*
X42327047Y67167745D01*
X42159955Y67000653D01*
X42030025Y66815092D01*
X41975448Y66771467D01*
X41905950Y66764273D01*
X41843595Y66795796D01*
X41826875Y66815092D01*
X41696944Y67000653D01*
X41529852Y67167744D01*
X41529845Y67167749D01*
X41336284Y67303283D01*
X41336280Y67303285D01*
X41336278Y67303286D01*
X41122113Y67403153D01*
X41122109Y67403154D01*
X41122105Y67403156D01*
X40893863Y67464312D01*
X40893853Y67464314D01*
X40658451Y67484909D01*
X40658449Y67484909D01*
X40423046Y67464314D01*
X40423036Y67464312D01*
X40194794Y67403156D01*
X40194785Y67403152D01*
X39980621Y67303286D01*
X39980619Y67303285D01*
X39787047Y67167745D01*
X39619955Y67000653D01*
X39490025Y66815092D01*
X39435448Y66771467D01*
X39365950Y66764273D01*
X39303595Y66795796D01*
X39286875Y66815092D01*
X39156944Y67000653D01*
X38989852Y67167744D01*
X38989845Y67167749D01*
X38796284Y67303283D01*
X38796280Y67303285D01*
X38796278Y67303286D01*
X38582113Y67403153D01*
X38582109Y67403154D01*
X38582105Y67403156D01*
X38353863Y67464312D01*
X38353853Y67464314D01*
X38118451Y67484909D01*
X38118449Y67484909D01*
X37883046Y67464314D01*
X37883036Y67464312D01*
X37654794Y67403156D01*
X37654785Y67403152D01*
X37440621Y67303286D01*
X37440619Y67303285D01*
X37247047Y67167745D01*
X37079955Y67000653D01*
X36950025Y66815092D01*
X36895448Y66771467D01*
X36825950Y66764273D01*
X36763595Y66795796D01*
X36746875Y66815092D01*
X36616944Y67000653D01*
X36449852Y67167744D01*
X36449845Y67167749D01*
X36256284Y67303283D01*
X36256280Y67303285D01*
X36256278Y67303286D01*
X36042113Y67403153D01*
X36042109Y67403154D01*
X36042105Y67403156D01*
X35813863Y67464312D01*
X35813853Y67464314D01*
X35578451Y67484909D01*
X35578449Y67484909D01*
X35343046Y67464314D01*
X35343036Y67464312D01*
X35114794Y67403156D01*
X35114785Y67403152D01*
X34900621Y67303286D01*
X34900619Y67303285D01*
X34707047Y67167745D01*
X34539955Y67000653D01*
X34404415Y66807081D01*
X34404414Y66807079D01*
X34304548Y66592915D01*
X34304544Y66592906D01*
X34243388Y66364664D01*
X34243386Y66364654D01*
X34222791Y66129251D01*
X31352450Y66129251D01*
X31352450Y74840437D01*
X40223050Y74840437D01*
X40223050Y74627864D01*
X40256303Y74417911D01*
X40321994Y74215736D01*
X40418501Y74026330D01*
X40543440Y73854364D01*
X40693763Y73704041D01*
X40865729Y73579102D01*
X40865731Y73579101D01*
X40865734Y73579099D01*
X41055138Y73482593D01*
X41257307Y73416904D01*
X41467263Y73383650D01*
X41467264Y73383650D01*
X41979836Y73383650D01*
X41979837Y73383650D01*
X42189793Y73416904D01*
X42391962Y73482593D01*
X42581366Y73579099D01*
X42603339Y73595064D01*
X42753336Y73704041D01*
X42753338Y73704044D01*
X42753342Y73704046D01*
X42903654Y73854358D01*
X42903656Y73854362D01*
X42903659Y73854364D01*
X43028598Y74026330D01*
X43028597Y74026330D01*
X43028601Y74026334D01*
X43125107Y74215738D01*
X43190796Y74417907D01*
X43224050Y74627863D01*
X43224050Y74840437D01*
X43190796Y75050393D01*
X43125107Y75252562D01*
X43028601Y75441966D01*
X43028599Y75441969D01*
X43028598Y75441971D01*
X42903659Y75613937D01*
X42764481Y75753115D01*
X42730996Y75814438D01*
X42735980Y75884130D01*
X42777852Y75940063D01*
X42787066Y75946335D01*
X42941893Y76041833D01*
X43065865Y76165805D01*
X43157906Y76315026D01*
X43157908Y76315031D01*
X43213055Y76481453D01*
X43213056Y76481460D01*
X43223549Y76584164D01*
X43223550Y76584177D01*
X43223550Y76984150D01*
X42156562Y76984150D01*
X42189475Y77041157D01*
X42223550Y77168324D01*
X42223550Y77299976D01*
X42189475Y77427143D01*
X42156562Y77484150D01*
X43223549Y77484150D01*
X43223549Y77884122D01*
X43223548Y77884137D01*
X43213055Y77986848D01*
X43157908Y78153270D01*
X43157906Y78153275D01*
X43065865Y78302496D01*
X42941895Y78426466D01*
X42792674Y78518507D01*
X42792669Y78518509D01*
X42626247Y78573656D01*
X42626240Y78573657D01*
X42523536Y78584150D01*
X41973550Y78584150D01*
X41973550Y77667162D01*
X41916543Y77700075D01*
X41789376Y77734150D01*
X41657724Y77734150D01*
X41530557Y77700075D01*
X41473550Y77667162D01*
X41473550Y78584150D01*
X40923578Y78584150D01*
X40923562Y78584149D01*
X40820852Y78573656D01*
X40654430Y78518509D01*
X40654425Y78518507D01*
X40505204Y78426466D01*
X40381234Y78302496D01*
X40289193Y78153275D01*
X40289191Y78153270D01*
X40234044Y77986848D01*
X40234043Y77986841D01*
X40223550Y77884137D01*
X40223550Y77484150D01*
X41290538Y77484150D01*
X41257625Y77427143D01*
X41223550Y77299976D01*
X41223550Y77168324D01*
X41257625Y77041157D01*
X41290538Y76984150D01*
X40223551Y76984150D01*
X40223551Y76584164D01*
X40234044Y76481453D01*
X40289191Y76315031D01*
X40289193Y76315026D01*
X40381234Y76165805D01*
X40505204Y76041835D01*
X40660034Y75946335D01*
X40706758Y75894387D01*
X40717981Y75825424D01*
X40690137Y75761342D01*
X40682619Y75753115D01*
X40543439Y75613935D01*
X40418501Y75441971D01*
X40321994Y75252565D01*
X40256303Y75050390D01*
X40223050Y74840437D01*
X31352450Y74840437D01*
X31352450Y88242492D01*
X33881450Y88242492D01*
X33881450Y88013009D01*
X33906396Y87823535D01*
X33911402Y87785512D01*
X33911403Y87785510D01*
X33970792Y87563863D01*
X34058600Y87351874D01*
X34058607Y87351860D01*
X34173342Y87153133D01*
X34313031Y86971089D01*
X34313039Y86971080D01*
X34475280Y86808839D01*
X34475288Y86808832D01*
X34657332Y86669143D01*
X34657335Y86669142D01*
X34657338Y86669139D01*
X34856062Y86554406D01*
X34856067Y86554404D01*
X34856073Y86554401D01*
X34947430Y86516560D01*
X35068063Y86466592D01*
X35289712Y86407202D01*
X35517216Y86377250D01*
X35517223Y86377250D01*
X35746677Y86377250D01*
X35746684Y86377250D01*
X35974188Y86407202D01*
X36195837Y86466592D01*
X36407838Y86554406D01*
X36606562Y86669139D01*
X36788611Y86808831D01*
X36788615Y86808836D01*
X36788620Y86808839D01*
X36950861Y86971080D01*
X36950864Y86971085D01*
X36950869Y86971089D01*
X37090561Y87153138D01*
X37205294Y87351862D01*
X37293108Y87563863D01*
X37352498Y87785512D01*
X37382450Y88013016D01*
X37382450Y88242484D01*
X37382449Y88242492D01*
X123721450Y88242492D01*
X123721450Y88013009D01*
X123746396Y87823535D01*
X123751402Y87785512D01*
X123751403Y87785510D01*
X123810792Y87563863D01*
X123898600Y87351874D01*
X123898607Y87351860D01*
X124013342Y87153133D01*
X124153031Y86971089D01*
X124153039Y86971080D01*
X124315280Y86808839D01*
X124315288Y86808832D01*
X124497332Y86669143D01*
X124497335Y86669142D01*
X124497338Y86669139D01*
X124696062Y86554406D01*
X124696067Y86554404D01*
X124696073Y86554401D01*
X124787430Y86516560D01*
X124908063Y86466592D01*
X125129712Y86407202D01*
X125357216Y86377250D01*
X125357223Y86377250D01*
X125586677Y86377250D01*
X125586684Y86377250D01*
X125814188Y86407202D01*
X126035837Y86466592D01*
X126247838Y86554406D01*
X126446562Y86669139D01*
X126628611Y86808831D01*
X126628615Y86808836D01*
X126628620Y86808839D01*
X126790861Y86971080D01*
X126790864Y86971085D01*
X126790869Y86971089D01*
X126930561Y87153138D01*
X127045294Y87351862D01*
X127133108Y87563863D01*
X127192498Y87785512D01*
X127222450Y88013016D01*
X127222450Y88242484D01*
X127192498Y88469988D01*
X127133108Y88691637D01*
X127045294Y88903638D01*
X126930561Y89102362D01*
X126930558Y89102365D01*
X126930557Y89102368D01*
X126790868Y89284412D01*
X126790861Y89284420D01*
X126628620Y89446661D01*
X126628611Y89446669D01*
X126446567Y89586358D01*
X126247840Y89701093D01*
X126247826Y89701100D01*
X126035837Y89788908D01*
X125814188Y89848298D01*
X125776165Y89853304D01*
X125586691Y89878250D01*
X125586684Y89878250D01*
X125357216Y89878250D01*
X125357208Y89878250D01*
X125140665Y89849741D01*
X125129712Y89848298D01*
X125036026Y89823196D01*
X124908062Y89788908D01*
X124696073Y89701100D01*
X124696059Y89701093D01*
X124497332Y89586358D01*
X124315288Y89446669D01*
X124153031Y89284412D01*
X124013342Y89102368D01*
X123898607Y88903641D01*
X123898600Y88903627D01*
X123810792Y88691638D01*
X123751403Y88469991D01*
X123751401Y88469980D01*
X123721450Y88242492D01*
X37382449Y88242492D01*
X37352498Y88469988D01*
X37293108Y88691637D01*
X37205294Y88903638D01*
X37090561Y89102362D01*
X37090558Y89102365D01*
X37090557Y89102368D01*
X36950868Y89284412D01*
X36950861Y89284420D01*
X36788620Y89446661D01*
X36788611Y89446669D01*
X36606567Y89586358D01*
X36407840Y89701093D01*
X36407826Y89701100D01*
X36195837Y89788908D01*
X35974188Y89848298D01*
X35936165Y89853304D01*
X35746691Y89878250D01*
X35746684Y89878250D01*
X35517216Y89878250D01*
X35517208Y89878250D01*
X35300665Y89849741D01*
X35289712Y89848298D01*
X35196026Y89823196D01*
X35068062Y89788908D01*
X34856073Y89701100D01*
X34856059Y89701093D01*
X34657332Y89586358D01*
X34475288Y89446669D01*
X34313031Y89284412D01*
X34173342Y89102368D01*
X34058607Y88903641D01*
X34058600Y88903627D01*
X33970792Y88691638D01*
X33911403Y88469991D01*
X33911401Y88469980D01*
X33881450Y88242492D01*
X31352450Y88242492D01*
X31352450Y92283250D01*
X31372135Y92350289D01*
X31424939Y92396044D01*
X31476450Y92407250D01*
X129627450Y92407250D01*
X129694489Y92387565D01*
G37*
%TD.AperFunction*%
%TD*%
M02*
